M48
; DRILL file {KiCad 9.0.0-rc1} date 2025-10-12T14:16:51+0300
; FORMAT={-:-/ absolute / inch / decimal}
; #@! TF.CreationDate,2025-10-12T14:16:51+03:00
; #@! TF.GenerationSoftware,Kicad,Pcbnew,9.0.0-rc1
; #@! TF.FileFunction,Plated,1,2,PTH
FMAT,2
INCH
; #@! TA.AperFunction,Plated,PTH,ViaDrill
T1C0.0118
; #@! TA.AperFunction,Plated,PTH,ComponentDrill
T2C0.0295
; #@! TA.AperFunction,Plated,PTH,ComponentDrill
T3C0.0394
; #@! TA.AperFunction,Plated,PTH,ComponentDrill
T4C0.0551
%
G90
G05
T1
X1.3928Y-2.1791
X1.4961Y-2.8583
X1.5669Y-3.5472
X1.6014Y-2.5482
X1.751Y-2.2136
X1.759Y-1.8642
X1.7785Y-2.3868
X1.8031Y-2.752
X1.9439Y-2.1703
X1.9478Y-2.4341
X1.9951Y-2.2726
X2.0325Y-2.1644
X2.0384Y-1.438
X2.0699Y-2.3789
X2.315Y-3.4764
X2.436Y-1.5128
X2.4449Y-1.8593
X2.5541Y-2.1388
T2
X1.3917Y-3.1142
X1.3917Y-3.1929
X1.3917Y-3.2717
X1.3917Y-3.4724
X1.3917Y-3.5512
X1.3917Y-3.6299
X2.5453Y-3.1102
X2.5453Y-3.189
X2.5453Y-3.2677
X2.5453Y-3.4685
X2.5453Y-3.5472
X2.5453Y-3.626
T3
X1.4085Y-2.5404
X1.4085Y-2.7372
X1.5069Y-2.6388
X1.5256Y-1.4783
X1.624Y-1.4783
X2.4429Y-2.6555
X2.4429Y-2.7539
T4
X1.8425Y-3.1555
X1.8425Y-3.6555
X2.063Y-3.1555
X2.063Y-3.6555
M30
