%TF.GenerationSoftware,KiCad,Pcbnew,9.0.0-rc1*%
%TF.CreationDate,2025-10-12T14:16:47+03:00*%
%TF.ProjectId,uvp,7576702e-6b69-4636-9164-5f7063625858,rev?*%
%TF.SameCoordinates,Original*%
%TF.FileFunction,Legend,Top*%
%TF.FilePolarity,Positive*%
%FSLAX46Y46*%
G04 Gerber Fmt 4.6, Leading zero omitted, Abs format (unit mm)*
G04 Created by KiCad (PCBNEW 9.0.0-rc1) date 2025-10-12 14:16:47*
%MOMM*%
%LPD*%
G01*
G04 APERTURE LIST*
%ADD10C,0.150000*%
%ADD11C,0.120000*%
%ADD12C,0.200000*%
%ADD13C,0.127000*%
G04 APERTURE END LIST*
D10*
X62704819Y-83990475D02*
X61704819Y-83990475D01*
X62704819Y-83514285D02*
X61704819Y-83514285D01*
X61704819Y-83514285D02*
X62704819Y-82942857D01*
X62704819Y-82942857D02*
X61704819Y-82942857D01*
X61704819Y-82609523D02*
X62704819Y-82276190D01*
X62704819Y-82276190D02*
X61704819Y-81942857D01*
X62181009Y-80514285D02*
X62181009Y-80847618D01*
X62704819Y-80847618D02*
X61704819Y-80847618D01*
X61704819Y-80847618D02*
X61704819Y-80371428D01*
X62419104Y-80038094D02*
X62419104Y-79561904D01*
X62704819Y-80133332D02*
X61704819Y-79799999D01*
X61704819Y-79799999D02*
X62704819Y-79466666D01*
X62704819Y-79133332D02*
X61704819Y-79133332D01*
X61704819Y-79133332D02*
X62704819Y-78561904D01*
X62704819Y-78561904D02*
X61704819Y-78561904D01*
X62704819Y-77561904D02*
X62704819Y-78133332D01*
X62704819Y-77847618D02*
X61704819Y-77847618D01*
X61704819Y-77847618D02*
X61847676Y-77942856D01*
X61847676Y-77942856D02*
X61942914Y-78038094D01*
X61942914Y-78038094D02*
X61990533Y-78133332D01*
X38304819Y-84290475D02*
X37304819Y-84290475D01*
X38304819Y-83814285D02*
X37304819Y-83814285D01*
X37304819Y-83814285D02*
X38304819Y-83242857D01*
X38304819Y-83242857D02*
X37304819Y-83242857D01*
X37304819Y-82909523D02*
X38304819Y-82576190D01*
X38304819Y-82576190D02*
X37304819Y-82242857D01*
X37781009Y-80814285D02*
X37781009Y-81147618D01*
X38304819Y-81147618D02*
X37304819Y-81147618D01*
X37304819Y-81147618D02*
X37304819Y-80671428D01*
X38019104Y-80338094D02*
X38019104Y-79861904D01*
X38304819Y-80433332D02*
X37304819Y-80099999D01*
X37304819Y-80099999D02*
X38304819Y-79766666D01*
X38304819Y-79433332D02*
X37304819Y-79433332D01*
X37304819Y-79433332D02*
X38304819Y-78861904D01*
X38304819Y-78861904D02*
X37304819Y-78861904D01*
X37400057Y-78433332D02*
X37352438Y-78385713D01*
X37352438Y-78385713D02*
X37304819Y-78290475D01*
X37304819Y-78290475D02*
X37304819Y-78052380D01*
X37304819Y-78052380D02*
X37352438Y-77957142D01*
X37352438Y-77957142D02*
X37400057Y-77909523D01*
X37400057Y-77909523D02*
X37495295Y-77861904D01*
X37495295Y-77861904D02*
X37590533Y-77861904D01*
X37590533Y-77861904D02*
X37733390Y-77909523D01*
X37733390Y-77909523D02*
X38304819Y-78480951D01*
X38304819Y-78480951D02*
X38304819Y-77861904D01*
X61981009Y-90885714D02*
X61981009Y-91219047D01*
X62504819Y-91219047D02*
X61504819Y-91219047D01*
X61504819Y-91219047D02*
X61504819Y-90742857D01*
X62219104Y-90409523D02*
X62219104Y-89933333D01*
X62504819Y-90504761D02*
X61504819Y-90171428D01*
X61504819Y-90171428D02*
X62504819Y-89838095D01*
X62504819Y-89504761D02*
X61504819Y-89504761D01*
X61504819Y-89504761D02*
X62504819Y-88933333D01*
X62504819Y-88933333D02*
X61504819Y-88933333D01*
X62504819Y-87933333D02*
X62504819Y-88504761D01*
X62504819Y-88219047D02*
X61504819Y-88219047D01*
X61504819Y-88219047D02*
X61647676Y-88314285D01*
X61647676Y-88314285D02*
X61742914Y-88409523D01*
X61742914Y-88409523D02*
X61790533Y-88504761D01*
X37681009Y-91185714D02*
X37681009Y-91519047D01*
X38204819Y-91519047D02*
X37204819Y-91519047D01*
X37204819Y-91519047D02*
X37204819Y-91042857D01*
X37919104Y-90709523D02*
X37919104Y-90233333D01*
X38204819Y-90804761D02*
X37204819Y-90471428D01*
X37204819Y-90471428D02*
X38204819Y-90138095D01*
X38204819Y-89804761D02*
X37204819Y-89804761D01*
X37204819Y-89804761D02*
X38204819Y-89233333D01*
X38204819Y-89233333D02*
X37204819Y-89233333D01*
X37300057Y-88804761D02*
X37252438Y-88757142D01*
X37252438Y-88757142D02*
X37204819Y-88661904D01*
X37204819Y-88661904D02*
X37204819Y-88423809D01*
X37204819Y-88423809D02*
X37252438Y-88328571D01*
X37252438Y-88328571D02*
X37300057Y-88280952D01*
X37300057Y-88280952D02*
X37395295Y-88233333D01*
X37395295Y-88233333D02*
X37490533Y-88233333D01*
X37490533Y-88233333D02*
X37633390Y-88280952D01*
X37633390Y-88280952D02*
X38204819Y-88852380D01*
X38204819Y-88852380D02*
X38204819Y-88233333D01*
X58804819Y-69442857D02*
X58804819Y-69919047D01*
X58804819Y-69919047D02*
X57804819Y-69919047D01*
X57804819Y-68919047D02*
X57804819Y-68728571D01*
X57804819Y-68728571D02*
X57852438Y-68633333D01*
X57852438Y-68633333D02*
X57947676Y-68538095D01*
X57947676Y-68538095D02*
X58138152Y-68490476D01*
X58138152Y-68490476D02*
X58471485Y-68490476D01*
X58471485Y-68490476D02*
X58661961Y-68538095D01*
X58661961Y-68538095D02*
X58757200Y-68633333D01*
X58757200Y-68633333D02*
X58804819Y-68728571D01*
X58804819Y-68728571D02*
X58804819Y-68919047D01*
X58804819Y-68919047D02*
X58757200Y-69014285D01*
X58757200Y-69014285D02*
X58661961Y-69109523D01*
X58661961Y-69109523D02*
X58471485Y-69157142D01*
X58471485Y-69157142D02*
X58138152Y-69157142D01*
X58138152Y-69157142D02*
X57947676Y-69109523D01*
X57947676Y-69109523D02*
X57852438Y-69014285D01*
X57852438Y-69014285D02*
X57804819Y-68919047D01*
X58519104Y-68109523D02*
X58519104Y-67633333D01*
X58804819Y-68204761D02*
X57804819Y-67871428D01*
X57804819Y-67871428D02*
X58804819Y-67538095D01*
X58804819Y-67204761D02*
X57804819Y-67204761D01*
X57804819Y-67204761D02*
X57804819Y-66966666D01*
X57804819Y-66966666D02*
X57852438Y-66823809D01*
X57852438Y-66823809D02*
X57947676Y-66728571D01*
X57947676Y-66728571D02*
X58042914Y-66680952D01*
X58042914Y-66680952D02*
X58233390Y-66633333D01*
X58233390Y-66633333D02*
X58376247Y-66633333D01*
X58376247Y-66633333D02*
X58566723Y-66680952D01*
X58566723Y-66680952D02*
X58661961Y-66728571D01*
X58661961Y-66728571D02*
X58757200Y-66823809D01*
X58757200Y-66823809D02*
X58804819Y-66966666D01*
X58804819Y-66966666D02*
X58804819Y-67204761D01*
X39376191Y-41754819D02*
X39376191Y-40754819D01*
X39852381Y-41754819D02*
X39852381Y-40754819D01*
X39852381Y-40754819D02*
X40423809Y-41754819D01*
X40423809Y-41754819D02*
X40423809Y-40754819D01*
X47708333Y-46464580D02*
X47660714Y-46512200D01*
X47660714Y-46512200D02*
X47517857Y-46559819D01*
X47517857Y-46559819D02*
X47422619Y-46559819D01*
X47422619Y-46559819D02*
X47279762Y-46512200D01*
X47279762Y-46512200D02*
X47184524Y-46416961D01*
X47184524Y-46416961D02*
X47136905Y-46321723D01*
X47136905Y-46321723D02*
X47089286Y-46131247D01*
X47089286Y-46131247D02*
X47089286Y-45988390D01*
X47089286Y-45988390D02*
X47136905Y-45797914D01*
X47136905Y-45797914D02*
X47184524Y-45702676D01*
X47184524Y-45702676D02*
X47279762Y-45607438D01*
X47279762Y-45607438D02*
X47422619Y-45559819D01*
X47422619Y-45559819D02*
X47517857Y-45559819D01*
X47517857Y-45559819D02*
X47660714Y-45607438D01*
X47660714Y-45607438D02*
X47708333Y-45655057D01*
X48089286Y-45655057D02*
X48136905Y-45607438D01*
X48136905Y-45607438D02*
X48232143Y-45559819D01*
X48232143Y-45559819D02*
X48470238Y-45559819D01*
X48470238Y-45559819D02*
X48565476Y-45607438D01*
X48565476Y-45607438D02*
X48613095Y-45655057D01*
X48613095Y-45655057D02*
X48660714Y-45750295D01*
X48660714Y-45750295D02*
X48660714Y-45845533D01*
X48660714Y-45845533D02*
X48613095Y-45988390D01*
X48613095Y-45988390D02*
X48041667Y-46559819D01*
X48041667Y-46559819D02*
X48660714Y-46559819D01*
X59732142Y-34629819D02*
X59398809Y-34153628D01*
X59160714Y-34629819D02*
X59160714Y-33629819D01*
X59160714Y-33629819D02*
X59541666Y-33629819D01*
X59541666Y-33629819D02*
X59636904Y-33677438D01*
X59636904Y-33677438D02*
X59684523Y-33725057D01*
X59684523Y-33725057D02*
X59732142Y-33820295D01*
X59732142Y-33820295D02*
X59732142Y-33963152D01*
X59732142Y-33963152D02*
X59684523Y-34058390D01*
X59684523Y-34058390D02*
X59636904Y-34106009D01*
X59636904Y-34106009D02*
X59541666Y-34153628D01*
X59541666Y-34153628D02*
X59160714Y-34153628D01*
X60684523Y-34629819D02*
X60113095Y-34629819D01*
X60398809Y-34629819D02*
X60398809Y-33629819D01*
X60398809Y-33629819D02*
X60303571Y-33772676D01*
X60303571Y-33772676D02*
X60208333Y-33867914D01*
X60208333Y-33867914D02*
X60113095Y-33915533D01*
X61255952Y-34058390D02*
X61160714Y-34010771D01*
X61160714Y-34010771D02*
X61113095Y-33963152D01*
X61113095Y-33963152D02*
X61065476Y-33867914D01*
X61065476Y-33867914D02*
X61065476Y-33820295D01*
X61065476Y-33820295D02*
X61113095Y-33725057D01*
X61113095Y-33725057D02*
X61160714Y-33677438D01*
X61160714Y-33677438D02*
X61255952Y-33629819D01*
X61255952Y-33629819D02*
X61446428Y-33629819D01*
X61446428Y-33629819D02*
X61541666Y-33677438D01*
X61541666Y-33677438D02*
X61589285Y-33725057D01*
X61589285Y-33725057D02*
X61636904Y-33820295D01*
X61636904Y-33820295D02*
X61636904Y-33867914D01*
X61636904Y-33867914D02*
X61589285Y-33963152D01*
X61589285Y-33963152D02*
X61541666Y-34010771D01*
X61541666Y-34010771D02*
X61446428Y-34058390D01*
X61446428Y-34058390D02*
X61255952Y-34058390D01*
X61255952Y-34058390D02*
X61160714Y-34106009D01*
X61160714Y-34106009D02*
X61113095Y-34153628D01*
X61113095Y-34153628D02*
X61065476Y-34248866D01*
X61065476Y-34248866D02*
X61065476Y-34439342D01*
X61065476Y-34439342D02*
X61113095Y-34534580D01*
X61113095Y-34534580D02*
X61160714Y-34582200D01*
X61160714Y-34582200D02*
X61255952Y-34629819D01*
X61255952Y-34629819D02*
X61446428Y-34629819D01*
X61446428Y-34629819D02*
X61541666Y-34582200D01*
X61541666Y-34582200D02*
X61589285Y-34534580D01*
X61589285Y-34534580D02*
X61636904Y-34439342D01*
X61636904Y-34439342D02*
X61636904Y-34248866D01*
X61636904Y-34248866D02*
X61589285Y-34153628D01*
X61589285Y-34153628D02*
X61541666Y-34106009D01*
X61541666Y-34106009D02*
X61446428Y-34058390D01*
X63829819Y-45367857D02*
X63353628Y-45701190D01*
X63829819Y-45939285D02*
X62829819Y-45939285D01*
X62829819Y-45939285D02*
X62829819Y-45558333D01*
X62829819Y-45558333D02*
X62877438Y-45463095D01*
X62877438Y-45463095D02*
X62925057Y-45415476D01*
X62925057Y-45415476D02*
X63020295Y-45367857D01*
X63020295Y-45367857D02*
X63163152Y-45367857D01*
X63163152Y-45367857D02*
X63258390Y-45415476D01*
X63258390Y-45415476D02*
X63306009Y-45463095D01*
X63306009Y-45463095D02*
X63353628Y-45558333D01*
X63353628Y-45558333D02*
X63353628Y-45939285D01*
X63829819Y-44415476D02*
X63829819Y-44986904D01*
X63829819Y-44701190D02*
X62829819Y-44701190D01*
X62829819Y-44701190D02*
X62972676Y-44796428D01*
X62972676Y-44796428D02*
X63067914Y-44891666D01*
X63067914Y-44891666D02*
X63115533Y-44986904D01*
X62829819Y-43558333D02*
X62829819Y-43748809D01*
X62829819Y-43748809D02*
X62877438Y-43844047D01*
X62877438Y-43844047D02*
X62925057Y-43891666D01*
X62925057Y-43891666D02*
X63067914Y-43986904D01*
X63067914Y-43986904D02*
X63258390Y-44034523D01*
X63258390Y-44034523D02*
X63639342Y-44034523D01*
X63639342Y-44034523D02*
X63734580Y-43986904D01*
X63734580Y-43986904D02*
X63782200Y-43939285D01*
X63782200Y-43939285D02*
X63829819Y-43844047D01*
X63829819Y-43844047D02*
X63829819Y-43653571D01*
X63829819Y-43653571D02*
X63782200Y-43558333D01*
X63782200Y-43558333D02*
X63734580Y-43510714D01*
X63734580Y-43510714D02*
X63639342Y-43463095D01*
X63639342Y-43463095D02*
X63401247Y-43463095D01*
X63401247Y-43463095D02*
X63306009Y-43510714D01*
X63306009Y-43510714D02*
X63258390Y-43558333D01*
X63258390Y-43558333D02*
X63210771Y-43653571D01*
X63210771Y-43653571D02*
X63210771Y-43844047D01*
X63210771Y-43844047D02*
X63258390Y-43939285D01*
X63258390Y-43939285D02*
X63306009Y-43986904D01*
X63306009Y-43986904D02*
X63401247Y-44034523D01*
X36445833Y-44384580D02*
X36398214Y-44432200D01*
X36398214Y-44432200D02*
X36255357Y-44479819D01*
X36255357Y-44479819D02*
X36160119Y-44479819D01*
X36160119Y-44479819D02*
X36017262Y-44432200D01*
X36017262Y-44432200D02*
X35922024Y-44336961D01*
X35922024Y-44336961D02*
X35874405Y-44241723D01*
X35874405Y-44241723D02*
X35826786Y-44051247D01*
X35826786Y-44051247D02*
X35826786Y-43908390D01*
X35826786Y-43908390D02*
X35874405Y-43717914D01*
X35874405Y-43717914D02*
X35922024Y-43622676D01*
X35922024Y-43622676D02*
X36017262Y-43527438D01*
X36017262Y-43527438D02*
X36160119Y-43479819D01*
X36160119Y-43479819D02*
X36255357Y-43479819D01*
X36255357Y-43479819D02*
X36398214Y-43527438D01*
X36398214Y-43527438D02*
X36445833Y-43575057D01*
X37350595Y-43479819D02*
X36874405Y-43479819D01*
X36874405Y-43479819D02*
X36826786Y-43956009D01*
X36826786Y-43956009D02*
X36874405Y-43908390D01*
X36874405Y-43908390D02*
X36969643Y-43860771D01*
X36969643Y-43860771D02*
X37207738Y-43860771D01*
X37207738Y-43860771D02*
X37302976Y-43908390D01*
X37302976Y-43908390D02*
X37350595Y-43956009D01*
X37350595Y-43956009D02*
X37398214Y-44051247D01*
X37398214Y-44051247D02*
X37398214Y-44289342D01*
X37398214Y-44289342D02*
X37350595Y-44384580D01*
X37350595Y-44384580D02*
X37302976Y-44432200D01*
X37302976Y-44432200D02*
X37207738Y-44479819D01*
X37207738Y-44479819D02*
X36969643Y-44479819D01*
X36969643Y-44479819D02*
X36874405Y-44432200D01*
X36874405Y-44432200D02*
X36826786Y-44384580D01*
X34579819Y-60491666D02*
X34103628Y-60824999D01*
X34579819Y-61063094D02*
X33579819Y-61063094D01*
X33579819Y-61063094D02*
X33579819Y-60682142D01*
X33579819Y-60682142D02*
X33627438Y-60586904D01*
X33627438Y-60586904D02*
X33675057Y-60539285D01*
X33675057Y-60539285D02*
X33770295Y-60491666D01*
X33770295Y-60491666D02*
X33913152Y-60491666D01*
X33913152Y-60491666D02*
X34008390Y-60539285D01*
X34008390Y-60539285D02*
X34056009Y-60586904D01*
X34056009Y-60586904D02*
X34103628Y-60682142D01*
X34103628Y-60682142D02*
X34103628Y-61063094D01*
X33675057Y-60110713D02*
X33627438Y-60063094D01*
X33627438Y-60063094D02*
X33579819Y-59967856D01*
X33579819Y-59967856D02*
X33579819Y-59729761D01*
X33579819Y-59729761D02*
X33627438Y-59634523D01*
X33627438Y-59634523D02*
X33675057Y-59586904D01*
X33675057Y-59586904D02*
X33770295Y-59539285D01*
X33770295Y-59539285D02*
X33865533Y-59539285D01*
X33865533Y-59539285D02*
X34008390Y-59586904D01*
X34008390Y-59586904D02*
X34579819Y-60158332D01*
X34579819Y-60158332D02*
X34579819Y-59539285D01*
X42754580Y-52691666D02*
X42802200Y-52739285D01*
X42802200Y-52739285D02*
X42849819Y-52882142D01*
X42849819Y-52882142D02*
X42849819Y-52977380D01*
X42849819Y-52977380D02*
X42802200Y-53120237D01*
X42802200Y-53120237D02*
X42706961Y-53215475D01*
X42706961Y-53215475D02*
X42611723Y-53263094D01*
X42611723Y-53263094D02*
X42421247Y-53310713D01*
X42421247Y-53310713D02*
X42278390Y-53310713D01*
X42278390Y-53310713D02*
X42087914Y-53263094D01*
X42087914Y-53263094D02*
X41992676Y-53215475D01*
X41992676Y-53215475D02*
X41897438Y-53120237D01*
X41897438Y-53120237D02*
X41849819Y-52977380D01*
X41849819Y-52977380D02*
X41849819Y-52882142D01*
X41849819Y-52882142D02*
X41897438Y-52739285D01*
X41897438Y-52739285D02*
X41945057Y-52691666D01*
X41849819Y-51834523D02*
X41849819Y-52024999D01*
X41849819Y-52024999D02*
X41897438Y-52120237D01*
X41897438Y-52120237D02*
X41945057Y-52167856D01*
X41945057Y-52167856D02*
X42087914Y-52263094D01*
X42087914Y-52263094D02*
X42278390Y-52310713D01*
X42278390Y-52310713D02*
X42659342Y-52310713D01*
X42659342Y-52310713D02*
X42754580Y-52263094D01*
X42754580Y-52263094D02*
X42802200Y-52215475D01*
X42802200Y-52215475D02*
X42849819Y-52120237D01*
X42849819Y-52120237D02*
X42849819Y-51929761D01*
X42849819Y-51929761D02*
X42802200Y-51834523D01*
X42802200Y-51834523D02*
X42754580Y-51786904D01*
X42754580Y-51786904D02*
X42659342Y-51739285D01*
X42659342Y-51739285D02*
X42421247Y-51739285D01*
X42421247Y-51739285D02*
X42326009Y-51786904D01*
X42326009Y-51786904D02*
X42278390Y-51834523D01*
X42278390Y-51834523D02*
X42230771Y-51929761D01*
X42230771Y-51929761D02*
X42230771Y-52120237D01*
X42230771Y-52120237D02*
X42278390Y-52215475D01*
X42278390Y-52215475D02*
X42326009Y-52263094D01*
X42326009Y-52263094D02*
X42421247Y-52310713D01*
X54195833Y-75639580D02*
X54148214Y-75687200D01*
X54148214Y-75687200D02*
X54005357Y-75734819D01*
X54005357Y-75734819D02*
X53910119Y-75734819D01*
X53910119Y-75734819D02*
X53767262Y-75687200D01*
X53767262Y-75687200D02*
X53672024Y-75591961D01*
X53672024Y-75591961D02*
X53624405Y-75496723D01*
X53624405Y-75496723D02*
X53576786Y-75306247D01*
X53576786Y-75306247D02*
X53576786Y-75163390D01*
X53576786Y-75163390D02*
X53624405Y-74972914D01*
X53624405Y-74972914D02*
X53672024Y-74877676D01*
X53672024Y-74877676D02*
X53767262Y-74782438D01*
X53767262Y-74782438D02*
X53910119Y-74734819D01*
X53910119Y-74734819D02*
X54005357Y-74734819D01*
X54005357Y-74734819D02*
X54148214Y-74782438D01*
X54148214Y-74782438D02*
X54195833Y-74830057D01*
X54529167Y-74734819D02*
X55148214Y-74734819D01*
X55148214Y-74734819D02*
X54814881Y-75115771D01*
X54814881Y-75115771D02*
X54957738Y-75115771D01*
X54957738Y-75115771D02*
X55052976Y-75163390D01*
X55052976Y-75163390D02*
X55100595Y-75211009D01*
X55100595Y-75211009D02*
X55148214Y-75306247D01*
X55148214Y-75306247D02*
X55148214Y-75544342D01*
X55148214Y-75544342D02*
X55100595Y-75639580D01*
X55100595Y-75639580D02*
X55052976Y-75687200D01*
X55052976Y-75687200D02*
X54957738Y-75734819D01*
X54957738Y-75734819D02*
X54672024Y-75734819D01*
X54672024Y-75734819D02*
X54576786Y-75687200D01*
X54576786Y-75687200D02*
X54529167Y-75639580D01*
X52229819Y-65691666D02*
X51753628Y-66024999D01*
X52229819Y-66263094D02*
X51229819Y-66263094D01*
X51229819Y-66263094D02*
X51229819Y-65882142D01*
X51229819Y-65882142D02*
X51277438Y-65786904D01*
X51277438Y-65786904D02*
X51325057Y-65739285D01*
X51325057Y-65739285D02*
X51420295Y-65691666D01*
X51420295Y-65691666D02*
X51563152Y-65691666D01*
X51563152Y-65691666D02*
X51658390Y-65739285D01*
X51658390Y-65739285D02*
X51706009Y-65786904D01*
X51706009Y-65786904D02*
X51753628Y-65882142D01*
X51753628Y-65882142D02*
X51753628Y-66263094D01*
X51229819Y-64786904D02*
X51229819Y-65263094D01*
X51229819Y-65263094D02*
X51706009Y-65310713D01*
X51706009Y-65310713D02*
X51658390Y-65263094D01*
X51658390Y-65263094D02*
X51610771Y-65167856D01*
X51610771Y-65167856D02*
X51610771Y-64929761D01*
X51610771Y-64929761D02*
X51658390Y-64834523D01*
X51658390Y-64834523D02*
X51706009Y-64786904D01*
X51706009Y-64786904D02*
X51801247Y-64739285D01*
X51801247Y-64739285D02*
X52039342Y-64739285D01*
X52039342Y-64739285D02*
X52134580Y-64786904D01*
X52134580Y-64786904D02*
X52182200Y-64834523D01*
X52182200Y-64834523D02*
X52229819Y-64929761D01*
X52229819Y-64929761D02*
X52229819Y-65167856D01*
X52229819Y-65167856D02*
X52182200Y-65263094D01*
X52182200Y-65263094D02*
X52134580Y-65310713D01*
X52982319Y-50492857D02*
X52506128Y-50826190D01*
X52982319Y-51064285D02*
X51982319Y-51064285D01*
X51982319Y-51064285D02*
X51982319Y-50683333D01*
X51982319Y-50683333D02*
X52029938Y-50588095D01*
X52029938Y-50588095D02*
X52077557Y-50540476D01*
X52077557Y-50540476D02*
X52172795Y-50492857D01*
X52172795Y-50492857D02*
X52315652Y-50492857D01*
X52315652Y-50492857D02*
X52410890Y-50540476D01*
X52410890Y-50540476D02*
X52458509Y-50588095D01*
X52458509Y-50588095D02*
X52506128Y-50683333D01*
X52506128Y-50683333D02*
X52506128Y-51064285D01*
X52982319Y-49540476D02*
X52982319Y-50111904D01*
X52982319Y-49826190D02*
X51982319Y-49826190D01*
X51982319Y-49826190D02*
X52125176Y-49921428D01*
X52125176Y-49921428D02*
X52220414Y-50016666D01*
X52220414Y-50016666D02*
X52268033Y-50111904D01*
X51982319Y-49207142D02*
X51982319Y-48588095D01*
X51982319Y-48588095D02*
X52363271Y-48921428D01*
X52363271Y-48921428D02*
X52363271Y-48778571D01*
X52363271Y-48778571D02*
X52410890Y-48683333D01*
X52410890Y-48683333D02*
X52458509Y-48635714D01*
X52458509Y-48635714D02*
X52553747Y-48588095D01*
X52553747Y-48588095D02*
X52791842Y-48588095D01*
X52791842Y-48588095D02*
X52887080Y-48635714D01*
X52887080Y-48635714D02*
X52934700Y-48683333D01*
X52934700Y-48683333D02*
X52982319Y-48778571D01*
X52982319Y-48778571D02*
X52982319Y-49064285D01*
X52982319Y-49064285D02*
X52934700Y-49159523D01*
X52934700Y-49159523D02*
X52887080Y-49207142D01*
X42967319Y-46391666D02*
X42491128Y-46724999D01*
X42967319Y-46963094D02*
X41967319Y-46963094D01*
X41967319Y-46963094D02*
X41967319Y-46582142D01*
X41967319Y-46582142D02*
X42014938Y-46486904D01*
X42014938Y-46486904D02*
X42062557Y-46439285D01*
X42062557Y-46439285D02*
X42157795Y-46391666D01*
X42157795Y-46391666D02*
X42300652Y-46391666D01*
X42300652Y-46391666D02*
X42395890Y-46439285D01*
X42395890Y-46439285D02*
X42443509Y-46486904D01*
X42443509Y-46486904D02*
X42491128Y-46582142D01*
X42491128Y-46582142D02*
X42491128Y-46963094D01*
X42967319Y-45915475D02*
X42967319Y-45724999D01*
X42967319Y-45724999D02*
X42919700Y-45629761D01*
X42919700Y-45629761D02*
X42872080Y-45582142D01*
X42872080Y-45582142D02*
X42729223Y-45486904D01*
X42729223Y-45486904D02*
X42538747Y-45439285D01*
X42538747Y-45439285D02*
X42157795Y-45439285D01*
X42157795Y-45439285D02*
X42062557Y-45486904D01*
X42062557Y-45486904D02*
X42014938Y-45534523D01*
X42014938Y-45534523D02*
X41967319Y-45629761D01*
X41967319Y-45629761D02*
X41967319Y-45820237D01*
X41967319Y-45820237D02*
X42014938Y-45915475D01*
X42014938Y-45915475D02*
X42062557Y-45963094D01*
X42062557Y-45963094D02*
X42157795Y-46010713D01*
X42157795Y-46010713D02*
X42395890Y-46010713D01*
X42395890Y-46010713D02*
X42491128Y-45963094D01*
X42491128Y-45963094D02*
X42538747Y-45915475D01*
X42538747Y-45915475D02*
X42586366Y-45820237D01*
X42586366Y-45820237D02*
X42586366Y-45629761D01*
X42586366Y-45629761D02*
X42538747Y-45534523D01*
X42538747Y-45534523D02*
X42491128Y-45486904D01*
X42491128Y-45486904D02*
X42395890Y-45439285D01*
X52279819Y-70091666D02*
X51803628Y-70424999D01*
X52279819Y-70663094D02*
X51279819Y-70663094D01*
X51279819Y-70663094D02*
X51279819Y-70282142D01*
X51279819Y-70282142D02*
X51327438Y-70186904D01*
X51327438Y-70186904D02*
X51375057Y-70139285D01*
X51375057Y-70139285D02*
X51470295Y-70091666D01*
X51470295Y-70091666D02*
X51613152Y-70091666D01*
X51613152Y-70091666D02*
X51708390Y-70139285D01*
X51708390Y-70139285D02*
X51756009Y-70186904D01*
X51756009Y-70186904D02*
X51803628Y-70282142D01*
X51803628Y-70282142D02*
X51803628Y-70663094D01*
X51613152Y-69234523D02*
X52279819Y-69234523D01*
X51232200Y-69472618D02*
X51946485Y-69710713D01*
X51946485Y-69710713D02*
X51946485Y-69091666D01*
X40029819Y-67749404D02*
X40839342Y-67749404D01*
X40839342Y-67749404D02*
X40934580Y-67701785D01*
X40934580Y-67701785D02*
X40982200Y-67654166D01*
X40982200Y-67654166D02*
X41029819Y-67558928D01*
X41029819Y-67558928D02*
X41029819Y-67368452D01*
X41029819Y-67368452D02*
X40982200Y-67273214D01*
X40982200Y-67273214D02*
X40934580Y-67225595D01*
X40934580Y-67225595D02*
X40839342Y-67177976D01*
X40839342Y-67177976D02*
X40029819Y-67177976D01*
X40029819Y-66797023D02*
X40029819Y-66177976D01*
X40029819Y-66177976D02*
X40410771Y-66511309D01*
X40410771Y-66511309D02*
X40410771Y-66368452D01*
X40410771Y-66368452D02*
X40458390Y-66273214D01*
X40458390Y-66273214D02*
X40506009Y-66225595D01*
X40506009Y-66225595D02*
X40601247Y-66177976D01*
X40601247Y-66177976D02*
X40839342Y-66177976D01*
X40839342Y-66177976D02*
X40934580Y-66225595D01*
X40934580Y-66225595D02*
X40982200Y-66273214D01*
X40982200Y-66273214D02*
X41029819Y-66368452D01*
X41029819Y-66368452D02*
X41029819Y-66654166D01*
X41029819Y-66654166D02*
X40982200Y-66749404D01*
X40982200Y-66749404D02*
X40934580Y-66797023D01*
X59664761Y-63550057D02*
X59569523Y-63502438D01*
X59569523Y-63502438D02*
X59474285Y-63407200D01*
X59474285Y-63407200D02*
X59331428Y-63264342D01*
X59331428Y-63264342D02*
X59236190Y-63216723D01*
X59236190Y-63216723D02*
X59140952Y-63216723D01*
X59188571Y-63454819D02*
X59093333Y-63407200D01*
X59093333Y-63407200D02*
X58998095Y-63311961D01*
X58998095Y-63311961D02*
X58950476Y-63121485D01*
X58950476Y-63121485D02*
X58950476Y-62788152D01*
X58950476Y-62788152D02*
X58998095Y-62597676D01*
X58998095Y-62597676D02*
X59093333Y-62502438D01*
X59093333Y-62502438D02*
X59188571Y-62454819D01*
X59188571Y-62454819D02*
X59379047Y-62454819D01*
X59379047Y-62454819D02*
X59474285Y-62502438D01*
X59474285Y-62502438D02*
X59569523Y-62597676D01*
X59569523Y-62597676D02*
X59617142Y-62788152D01*
X59617142Y-62788152D02*
X59617142Y-63121485D01*
X59617142Y-63121485D02*
X59569523Y-63311961D01*
X59569523Y-63311961D02*
X59474285Y-63407200D01*
X59474285Y-63407200D02*
X59379047Y-63454819D01*
X59379047Y-63454819D02*
X59188571Y-63454819D01*
X59998095Y-62550057D02*
X60045714Y-62502438D01*
X60045714Y-62502438D02*
X60140952Y-62454819D01*
X60140952Y-62454819D02*
X60379047Y-62454819D01*
X60379047Y-62454819D02*
X60474285Y-62502438D01*
X60474285Y-62502438D02*
X60521904Y-62550057D01*
X60521904Y-62550057D02*
X60569523Y-62645295D01*
X60569523Y-62645295D02*
X60569523Y-62740533D01*
X60569523Y-62740533D02*
X60521904Y-62883390D01*
X60521904Y-62883390D02*
X59950476Y-63454819D01*
X59950476Y-63454819D02*
X60569523Y-63454819D01*
X60179819Y-45267857D02*
X59703628Y-45601190D01*
X60179819Y-45839285D02*
X59179819Y-45839285D01*
X59179819Y-45839285D02*
X59179819Y-45458333D01*
X59179819Y-45458333D02*
X59227438Y-45363095D01*
X59227438Y-45363095D02*
X59275057Y-45315476D01*
X59275057Y-45315476D02*
X59370295Y-45267857D01*
X59370295Y-45267857D02*
X59513152Y-45267857D01*
X59513152Y-45267857D02*
X59608390Y-45315476D01*
X59608390Y-45315476D02*
X59656009Y-45363095D01*
X59656009Y-45363095D02*
X59703628Y-45458333D01*
X59703628Y-45458333D02*
X59703628Y-45839285D01*
X60179819Y-44315476D02*
X60179819Y-44886904D01*
X60179819Y-44601190D02*
X59179819Y-44601190D01*
X59179819Y-44601190D02*
X59322676Y-44696428D01*
X59322676Y-44696428D02*
X59417914Y-44791666D01*
X59417914Y-44791666D02*
X59465533Y-44886904D01*
X59179819Y-43410714D02*
X59179819Y-43886904D01*
X59179819Y-43886904D02*
X59656009Y-43934523D01*
X59656009Y-43934523D02*
X59608390Y-43886904D01*
X59608390Y-43886904D02*
X59560771Y-43791666D01*
X59560771Y-43791666D02*
X59560771Y-43553571D01*
X59560771Y-43553571D02*
X59608390Y-43458333D01*
X59608390Y-43458333D02*
X59656009Y-43410714D01*
X59656009Y-43410714D02*
X59751247Y-43363095D01*
X59751247Y-43363095D02*
X59989342Y-43363095D01*
X59989342Y-43363095D02*
X60084580Y-43410714D01*
X60084580Y-43410714D02*
X60132200Y-43458333D01*
X60132200Y-43458333D02*
X60179819Y-43553571D01*
X60179819Y-43553571D02*
X60179819Y-43791666D01*
X60179819Y-43791666D02*
X60132200Y-43886904D01*
X60132200Y-43886904D02*
X60084580Y-43934523D01*
X56432319Y-50492857D02*
X55956128Y-50826190D01*
X56432319Y-51064285D02*
X55432319Y-51064285D01*
X55432319Y-51064285D02*
X55432319Y-50683333D01*
X55432319Y-50683333D02*
X55479938Y-50588095D01*
X55479938Y-50588095D02*
X55527557Y-50540476D01*
X55527557Y-50540476D02*
X55622795Y-50492857D01*
X55622795Y-50492857D02*
X55765652Y-50492857D01*
X55765652Y-50492857D02*
X55860890Y-50540476D01*
X55860890Y-50540476D02*
X55908509Y-50588095D01*
X55908509Y-50588095D02*
X55956128Y-50683333D01*
X55956128Y-50683333D02*
X55956128Y-51064285D01*
X56432319Y-49540476D02*
X56432319Y-50111904D01*
X56432319Y-49826190D02*
X55432319Y-49826190D01*
X55432319Y-49826190D02*
X55575176Y-49921428D01*
X55575176Y-49921428D02*
X55670414Y-50016666D01*
X55670414Y-50016666D02*
X55718033Y-50111904D01*
X55527557Y-49159523D02*
X55479938Y-49111904D01*
X55479938Y-49111904D02*
X55432319Y-49016666D01*
X55432319Y-49016666D02*
X55432319Y-48778571D01*
X55432319Y-48778571D02*
X55479938Y-48683333D01*
X55479938Y-48683333D02*
X55527557Y-48635714D01*
X55527557Y-48635714D02*
X55622795Y-48588095D01*
X55622795Y-48588095D02*
X55718033Y-48588095D01*
X55718033Y-48588095D02*
X55860890Y-48635714D01*
X55860890Y-48635714D02*
X56432319Y-49207142D01*
X56432319Y-49207142D02*
X56432319Y-48588095D01*
X38479819Y-60591666D02*
X38003628Y-60924999D01*
X38479819Y-61163094D02*
X37479819Y-61163094D01*
X37479819Y-61163094D02*
X37479819Y-60782142D01*
X37479819Y-60782142D02*
X37527438Y-60686904D01*
X37527438Y-60686904D02*
X37575057Y-60639285D01*
X37575057Y-60639285D02*
X37670295Y-60591666D01*
X37670295Y-60591666D02*
X37813152Y-60591666D01*
X37813152Y-60591666D02*
X37908390Y-60639285D01*
X37908390Y-60639285D02*
X37956009Y-60686904D01*
X37956009Y-60686904D02*
X38003628Y-60782142D01*
X38003628Y-60782142D02*
X38003628Y-61163094D01*
X37908390Y-60020237D02*
X37860771Y-60115475D01*
X37860771Y-60115475D02*
X37813152Y-60163094D01*
X37813152Y-60163094D02*
X37717914Y-60210713D01*
X37717914Y-60210713D02*
X37670295Y-60210713D01*
X37670295Y-60210713D02*
X37575057Y-60163094D01*
X37575057Y-60163094D02*
X37527438Y-60115475D01*
X37527438Y-60115475D02*
X37479819Y-60020237D01*
X37479819Y-60020237D02*
X37479819Y-59829761D01*
X37479819Y-59829761D02*
X37527438Y-59734523D01*
X37527438Y-59734523D02*
X37575057Y-59686904D01*
X37575057Y-59686904D02*
X37670295Y-59639285D01*
X37670295Y-59639285D02*
X37717914Y-59639285D01*
X37717914Y-59639285D02*
X37813152Y-59686904D01*
X37813152Y-59686904D02*
X37860771Y-59734523D01*
X37860771Y-59734523D02*
X37908390Y-59829761D01*
X37908390Y-59829761D02*
X37908390Y-60020237D01*
X37908390Y-60020237D02*
X37956009Y-60115475D01*
X37956009Y-60115475D02*
X38003628Y-60163094D01*
X38003628Y-60163094D02*
X38098866Y-60210713D01*
X38098866Y-60210713D02*
X38289342Y-60210713D01*
X38289342Y-60210713D02*
X38384580Y-60163094D01*
X38384580Y-60163094D02*
X38432200Y-60115475D01*
X38432200Y-60115475D02*
X38479819Y-60020237D01*
X38479819Y-60020237D02*
X38479819Y-59829761D01*
X38479819Y-59829761D02*
X38432200Y-59734523D01*
X38432200Y-59734523D02*
X38384580Y-59686904D01*
X38384580Y-59686904D02*
X38289342Y-59639285D01*
X38289342Y-59639285D02*
X38098866Y-59639285D01*
X38098866Y-59639285D02*
X38003628Y-59686904D01*
X38003628Y-59686904D02*
X37956009Y-59734523D01*
X37956009Y-59734523D02*
X37908390Y-59829761D01*
X60182319Y-50467857D02*
X59706128Y-50801190D01*
X60182319Y-51039285D02*
X59182319Y-51039285D01*
X59182319Y-51039285D02*
X59182319Y-50658333D01*
X59182319Y-50658333D02*
X59229938Y-50563095D01*
X59229938Y-50563095D02*
X59277557Y-50515476D01*
X59277557Y-50515476D02*
X59372795Y-50467857D01*
X59372795Y-50467857D02*
X59515652Y-50467857D01*
X59515652Y-50467857D02*
X59610890Y-50515476D01*
X59610890Y-50515476D02*
X59658509Y-50563095D01*
X59658509Y-50563095D02*
X59706128Y-50658333D01*
X59706128Y-50658333D02*
X59706128Y-51039285D01*
X60182319Y-49515476D02*
X60182319Y-50086904D01*
X60182319Y-49801190D02*
X59182319Y-49801190D01*
X59182319Y-49801190D02*
X59325176Y-49896428D01*
X59325176Y-49896428D02*
X59420414Y-49991666D01*
X59420414Y-49991666D02*
X59468033Y-50086904D01*
X59515652Y-48658333D02*
X60182319Y-48658333D01*
X59134700Y-48896428D02*
X59848985Y-49134523D01*
X59848985Y-49134523D02*
X59848985Y-48515476D01*
X55208333Y-38284580D02*
X55160714Y-38332200D01*
X55160714Y-38332200D02*
X55017857Y-38379819D01*
X55017857Y-38379819D02*
X54922619Y-38379819D01*
X54922619Y-38379819D02*
X54779762Y-38332200D01*
X54779762Y-38332200D02*
X54684524Y-38236961D01*
X54684524Y-38236961D02*
X54636905Y-38141723D01*
X54636905Y-38141723D02*
X54589286Y-37951247D01*
X54589286Y-37951247D02*
X54589286Y-37808390D01*
X54589286Y-37808390D02*
X54636905Y-37617914D01*
X54636905Y-37617914D02*
X54684524Y-37522676D01*
X54684524Y-37522676D02*
X54779762Y-37427438D01*
X54779762Y-37427438D02*
X54922619Y-37379819D01*
X54922619Y-37379819D02*
X55017857Y-37379819D01*
X55017857Y-37379819D02*
X55160714Y-37427438D01*
X55160714Y-37427438D02*
X55208333Y-37475057D01*
X55541667Y-37379819D02*
X56208333Y-37379819D01*
X56208333Y-37379819D02*
X55779762Y-38379819D01*
X46479819Y-67191666D02*
X46003628Y-67524999D01*
X46479819Y-67763094D02*
X45479819Y-67763094D01*
X45479819Y-67763094D02*
X45479819Y-67382142D01*
X45479819Y-67382142D02*
X45527438Y-67286904D01*
X45527438Y-67286904D02*
X45575057Y-67239285D01*
X45575057Y-67239285D02*
X45670295Y-67191666D01*
X45670295Y-67191666D02*
X45813152Y-67191666D01*
X45813152Y-67191666D02*
X45908390Y-67239285D01*
X45908390Y-67239285D02*
X45956009Y-67286904D01*
X45956009Y-67286904D02*
X46003628Y-67382142D01*
X46003628Y-67382142D02*
X46003628Y-67763094D01*
X45479819Y-66334523D02*
X45479819Y-66524999D01*
X45479819Y-66524999D02*
X45527438Y-66620237D01*
X45527438Y-66620237D02*
X45575057Y-66667856D01*
X45575057Y-66667856D02*
X45717914Y-66763094D01*
X45717914Y-66763094D02*
X45908390Y-66810713D01*
X45908390Y-66810713D02*
X46289342Y-66810713D01*
X46289342Y-66810713D02*
X46384580Y-66763094D01*
X46384580Y-66763094D02*
X46432200Y-66715475D01*
X46432200Y-66715475D02*
X46479819Y-66620237D01*
X46479819Y-66620237D02*
X46479819Y-66429761D01*
X46479819Y-66429761D02*
X46432200Y-66334523D01*
X46432200Y-66334523D02*
X46384580Y-66286904D01*
X46384580Y-66286904D02*
X46289342Y-66239285D01*
X46289342Y-66239285D02*
X46051247Y-66239285D01*
X46051247Y-66239285D02*
X45956009Y-66286904D01*
X45956009Y-66286904D02*
X45908390Y-66334523D01*
X45908390Y-66334523D02*
X45860771Y-66429761D01*
X45860771Y-66429761D02*
X45860771Y-66620237D01*
X45860771Y-66620237D02*
X45908390Y-66715475D01*
X45908390Y-66715475D02*
X45956009Y-66763094D01*
X45956009Y-66763094D02*
X46051247Y-66810713D01*
X44929819Y-50186904D02*
X45739342Y-50186904D01*
X45739342Y-50186904D02*
X45834580Y-50139285D01*
X45834580Y-50139285D02*
X45882200Y-50091666D01*
X45882200Y-50091666D02*
X45929819Y-49996428D01*
X45929819Y-49996428D02*
X45929819Y-49805952D01*
X45929819Y-49805952D02*
X45882200Y-49710714D01*
X45882200Y-49710714D02*
X45834580Y-49663095D01*
X45834580Y-49663095D02*
X45739342Y-49615476D01*
X45739342Y-49615476D02*
X44929819Y-49615476D01*
X44929819Y-48710714D02*
X44929819Y-48901190D01*
X44929819Y-48901190D02*
X44977438Y-48996428D01*
X44977438Y-48996428D02*
X45025057Y-49044047D01*
X45025057Y-49044047D02*
X45167914Y-49139285D01*
X45167914Y-49139285D02*
X45358390Y-49186904D01*
X45358390Y-49186904D02*
X45739342Y-49186904D01*
X45739342Y-49186904D02*
X45834580Y-49139285D01*
X45834580Y-49139285D02*
X45882200Y-49091666D01*
X45882200Y-49091666D02*
X45929819Y-48996428D01*
X45929819Y-48996428D02*
X45929819Y-48805952D01*
X45929819Y-48805952D02*
X45882200Y-48710714D01*
X45882200Y-48710714D02*
X45834580Y-48663095D01*
X45834580Y-48663095D02*
X45739342Y-48615476D01*
X45739342Y-48615476D02*
X45501247Y-48615476D01*
X45501247Y-48615476D02*
X45406009Y-48663095D01*
X45406009Y-48663095D02*
X45358390Y-48710714D01*
X45358390Y-48710714D02*
X45310771Y-48805952D01*
X45310771Y-48805952D02*
X45310771Y-48996428D01*
X45310771Y-48996428D02*
X45358390Y-49091666D01*
X45358390Y-49091666D02*
X45406009Y-49139285D01*
X45406009Y-49139285D02*
X45501247Y-49186904D01*
X35133333Y-74704819D02*
X34800000Y-74228628D01*
X34561905Y-74704819D02*
X34561905Y-73704819D01*
X34561905Y-73704819D02*
X34942857Y-73704819D01*
X34942857Y-73704819D02*
X35038095Y-73752438D01*
X35038095Y-73752438D02*
X35085714Y-73800057D01*
X35085714Y-73800057D02*
X35133333Y-73895295D01*
X35133333Y-73895295D02*
X35133333Y-74038152D01*
X35133333Y-74038152D02*
X35085714Y-74133390D01*
X35085714Y-74133390D02*
X35038095Y-74181009D01*
X35038095Y-74181009D02*
X34942857Y-74228628D01*
X34942857Y-74228628D02*
X34561905Y-74228628D01*
X36085714Y-74704819D02*
X35514286Y-74704819D01*
X35800000Y-74704819D02*
X35800000Y-73704819D01*
X35800000Y-73704819D02*
X35704762Y-73847676D01*
X35704762Y-73847676D02*
X35609524Y-73942914D01*
X35609524Y-73942914D02*
X35514286Y-73990533D01*
X67029819Y-36967857D02*
X66553628Y-37301190D01*
X67029819Y-37539285D02*
X66029819Y-37539285D01*
X66029819Y-37539285D02*
X66029819Y-37158333D01*
X66029819Y-37158333D02*
X66077438Y-37063095D01*
X66077438Y-37063095D02*
X66125057Y-37015476D01*
X66125057Y-37015476D02*
X66220295Y-36967857D01*
X66220295Y-36967857D02*
X66363152Y-36967857D01*
X66363152Y-36967857D02*
X66458390Y-37015476D01*
X66458390Y-37015476D02*
X66506009Y-37063095D01*
X66506009Y-37063095D02*
X66553628Y-37158333D01*
X66553628Y-37158333D02*
X66553628Y-37539285D01*
X66125057Y-36586904D02*
X66077438Y-36539285D01*
X66077438Y-36539285D02*
X66029819Y-36444047D01*
X66029819Y-36444047D02*
X66029819Y-36205952D01*
X66029819Y-36205952D02*
X66077438Y-36110714D01*
X66077438Y-36110714D02*
X66125057Y-36063095D01*
X66125057Y-36063095D02*
X66220295Y-36015476D01*
X66220295Y-36015476D02*
X66315533Y-36015476D01*
X66315533Y-36015476D02*
X66458390Y-36063095D01*
X66458390Y-36063095D02*
X67029819Y-36634523D01*
X67029819Y-36634523D02*
X67029819Y-36015476D01*
X66029819Y-35396428D02*
X66029819Y-35301190D01*
X66029819Y-35301190D02*
X66077438Y-35205952D01*
X66077438Y-35205952D02*
X66125057Y-35158333D01*
X66125057Y-35158333D02*
X66220295Y-35110714D01*
X66220295Y-35110714D02*
X66410771Y-35063095D01*
X66410771Y-35063095D02*
X66648866Y-35063095D01*
X66648866Y-35063095D02*
X66839342Y-35110714D01*
X66839342Y-35110714D02*
X66934580Y-35158333D01*
X66934580Y-35158333D02*
X66982200Y-35205952D01*
X66982200Y-35205952D02*
X67029819Y-35301190D01*
X67029819Y-35301190D02*
X67029819Y-35396428D01*
X67029819Y-35396428D02*
X66982200Y-35491666D01*
X66982200Y-35491666D02*
X66934580Y-35539285D01*
X66934580Y-35539285D02*
X66839342Y-35586904D01*
X66839342Y-35586904D02*
X66648866Y-35634523D01*
X66648866Y-35634523D02*
X66410771Y-35634523D01*
X66410771Y-35634523D02*
X66220295Y-35586904D01*
X66220295Y-35586904D02*
X66125057Y-35539285D01*
X66125057Y-35539285D02*
X66077438Y-35491666D01*
X66077438Y-35491666D02*
X66029819Y-35396428D01*
X46229819Y-72791666D02*
X45753628Y-73124999D01*
X46229819Y-73363094D02*
X45229819Y-73363094D01*
X45229819Y-73363094D02*
X45229819Y-72982142D01*
X45229819Y-72982142D02*
X45277438Y-72886904D01*
X45277438Y-72886904D02*
X45325057Y-72839285D01*
X45325057Y-72839285D02*
X45420295Y-72791666D01*
X45420295Y-72791666D02*
X45563152Y-72791666D01*
X45563152Y-72791666D02*
X45658390Y-72839285D01*
X45658390Y-72839285D02*
X45706009Y-72886904D01*
X45706009Y-72886904D02*
X45753628Y-72982142D01*
X45753628Y-72982142D02*
X45753628Y-73363094D01*
X45229819Y-72458332D02*
X45229819Y-71839285D01*
X45229819Y-71839285D02*
X45610771Y-72172618D01*
X45610771Y-72172618D02*
X45610771Y-72029761D01*
X45610771Y-72029761D02*
X45658390Y-71934523D01*
X45658390Y-71934523D02*
X45706009Y-71886904D01*
X45706009Y-71886904D02*
X45801247Y-71839285D01*
X45801247Y-71839285D02*
X46039342Y-71839285D01*
X46039342Y-71839285D02*
X46134580Y-71886904D01*
X46134580Y-71886904D02*
X46182200Y-71934523D01*
X46182200Y-71934523D02*
X46229819Y-72029761D01*
X46229819Y-72029761D02*
X46229819Y-72315475D01*
X46229819Y-72315475D02*
X46182200Y-72410713D01*
X46182200Y-72410713D02*
X46134580Y-72458332D01*
X46529819Y-62991666D02*
X46053628Y-63324999D01*
X46529819Y-63563094D02*
X45529819Y-63563094D01*
X45529819Y-63563094D02*
X45529819Y-63182142D01*
X45529819Y-63182142D02*
X45577438Y-63086904D01*
X45577438Y-63086904D02*
X45625057Y-63039285D01*
X45625057Y-63039285D02*
X45720295Y-62991666D01*
X45720295Y-62991666D02*
X45863152Y-62991666D01*
X45863152Y-62991666D02*
X45958390Y-63039285D01*
X45958390Y-63039285D02*
X46006009Y-63086904D01*
X46006009Y-63086904D02*
X46053628Y-63182142D01*
X46053628Y-63182142D02*
X46053628Y-63563094D01*
X45529819Y-62658332D02*
X45529819Y-61991666D01*
X45529819Y-61991666D02*
X46529819Y-62420237D01*
X37288095Y-55084819D02*
X37288095Y-55894342D01*
X37288095Y-55894342D02*
X37335714Y-55989580D01*
X37335714Y-55989580D02*
X37383333Y-56037200D01*
X37383333Y-56037200D02*
X37478571Y-56084819D01*
X37478571Y-56084819D02*
X37669047Y-56084819D01*
X37669047Y-56084819D02*
X37764285Y-56037200D01*
X37764285Y-56037200D02*
X37811904Y-55989580D01*
X37811904Y-55989580D02*
X37859523Y-55894342D01*
X37859523Y-55894342D02*
X37859523Y-55084819D01*
X38811904Y-55084819D02*
X38335714Y-55084819D01*
X38335714Y-55084819D02*
X38288095Y-55561009D01*
X38288095Y-55561009D02*
X38335714Y-55513390D01*
X38335714Y-55513390D02*
X38430952Y-55465771D01*
X38430952Y-55465771D02*
X38669047Y-55465771D01*
X38669047Y-55465771D02*
X38764285Y-55513390D01*
X38764285Y-55513390D02*
X38811904Y-55561009D01*
X38811904Y-55561009D02*
X38859523Y-55656247D01*
X38859523Y-55656247D02*
X38859523Y-55894342D01*
X38859523Y-55894342D02*
X38811904Y-55989580D01*
X38811904Y-55989580D02*
X38764285Y-56037200D01*
X38764285Y-56037200D02*
X38669047Y-56084819D01*
X38669047Y-56084819D02*
X38430952Y-56084819D01*
X38430952Y-56084819D02*
X38335714Y-56037200D01*
X38335714Y-56037200D02*
X38288095Y-55989580D01*
X63779819Y-40867857D02*
X63303628Y-41201190D01*
X63779819Y-41439285D02*
X62779819Y-41439285D01*
X62779819Y-41439285D02*
X62779819Y-41058333D01*
X62779819Y-41058333D02*
X62827438Y-40963095D01*
X62827438Y-40963095D02*
X62875057Y-40915476D01*
X62875057Y-40915476D02*
X62970295Y-40867857D01*
X62970295Y-40867857D02*
X63113152Y-40867857D01*
X63113152Y-40867857D02*
X63208390Y-40915476D01*
X63208390Y-40915476D02*
X63256009Y-40963095D01*
X63256009Y-40963095D02*
X63303628Y-41058333D01*
X63303628Y-41058333D02*
X63303628Y-41439285D01*
X63779819Y-39915476D02*
X63779819Y-40486904D01*
X63779819Y-40201190D02*
X62779819Y-40201190D01*
X62779819Y-40201190D02*
X62922676Y-40296428D01*
X62922676Y-40296428D02*
X63017914Y-40391666D01*
X63017914Y-40391666D02*
X63065533Y-40486904D01*
X63779819Y-39439285D02*
X63779819Y-39248809D01*
X63779819Y-39248809D02*
X63732200Y-39153571D01*
X63732200Y-39153571D02*
X63684580Y-39105952D01*
X63684580Y-39105952D02*
X63541723Y-39010714D01*
X63541723Y-39010714D02*
X63351247Y-38963095D01*
X63351247Y-38963095D02*
X62970295Y-38963095D01*
X62970295Y-38963095D02*
X62875057Y-39010714D01*
X62875057Y-39010714D02*
X62827438Y-39058333D01*
X62827438Y-39058333D02*
X62779819Y-39153571D01*
X62779819Y-39153571D02*
X62779819Y-39344047D01*
X62779819Y-39344047D02*
X62827438Y-39439285D01*
X62827438Y-39439285D02*
X62875057Y-39486904D01*
X62875057Y-39486904D02*
X62970295Y-39534523D01*
X62970295Y-39534523D02*
X63208390Y-39534523D01*
X63208390Y-39534523D02*
X63303628Y-39486904D01*
X63303628Y-39486904D02*
X63351247Y-39439285D01*
X63351247Y-39439285D02*
X63398866Y-39344047D01*
X63398866Y-39344047D02*
X63398866Y-39153571D01*
X63398866Y-39153571D02*
X63351247Y-39058333D01*
X63351247Y-39058333D02*
X63303628Y-39010714D01*
X63303628Y-39010714D02*
X63208390Y-38963095D01*
X54825057Y-44157738D02*
X54777438Y-44252976D01*
X54777438Y-44252976D02*
X54682200Y-44348214D01*
X54682200Y-44348214D02*
X54539342Y-44491071D01*
X54539342Y-44491071D02*
X54491723Y-44586309D01*
X54491723Y-44586309D02*
X54491723Y-44681547D01*
X54729819Y-44633928D02*
X54682200Y-44729166D01*
X54682200Y-44729166D02*
X54586961Y-44824404D01*
X54586961Y-44824404D02*
X54396485Y-44872023D01*
X54396485Y-44872023D02*
X54063152Y-44872023D01*
X54063152Y-44872023D02*
X53872676Y-44824404D01*
X53872676Y-44824404D02*
X53777438Y-44729166D01*
X53777438Y-44729166D02*
X53729819Y-44633928D01*
X53729819Y-44633928D02*
X53729819Y-44443452D01*
X53729819Y-44443452D02*
X53777438Y-44348214D01*
X53777438Y-44348214D02*
X53872676Y-44252976D01*
X53872676Y-44252976D02*
X54063152Y-44205357D01*
X54063152Y-44205357D02*
X54396485Y-44205357D01*
X54396485Y-44205357D02*
X54586961Y-44252976D01*
X54586961Y-44252976D02*
X54682200Y-44348214D01*
X54682200Y-44348214D02*
X54729819Y-44443452D01*
X54729819Y-44443452D02*
X54729819Y-44633928D01*
X54729819Y-43252976D02*
X54729819Y-43824404D01*
X54729819Y-43538690D02*
X53729819Y-43538690D01*
X53729819Y-43538690D02*
X53872676Y-43633928D01*
X53872676Y-43633928D02*
X53967914Y-43729166D01*
X53967914Y-43729166D02*
X54015533Y-43824404D01*
X54732142Y-34629819D02*
X54398809Y-34153628D01*
X54160714Y-34629819D02*
X54160714Y-33629819D01*
X54160714Y-33629819D02*
X54541666Y-33629819D01*
X54541666Y-33629819D02*
X54636904Y-33677438D01*
X54636904Y-33677438D02*
X54684523Y-33725057D01*
X54684523Y-33725057D02*
X54732142Y-33820295D01*
X54732142Y-33820295D02*
X54732142Y-33963152D01*
X54732142Y-33963152D02*
X54684523Y-34058390D01*
X54684523Y-34058390D02*
X54636904Y-34106009D01*
X54636904Y-34106009D02*
X54541666Y-34153628D01*
X54541666Y-34153628D02*
X54160714Y-34153628D01*
X55684523Y-34629819D02*
X55113095Y-34629819D01*
X55398809Y-34629819D02*
X55398809Y-33629819D01*
X55398809Y-33629819D02*
X55303571Y-33772676D01*
X55303571Y-33772676D02*
X55208333Y-33867914D01*
X55208333Y-33867914D02*
X55113095Y-33915533D01*
X56017857Y-33629819D02*
X56684523Y-33629819D01*
X56684523Y-33629819D02*
X56255952Y-34629819D01*
X42034580Y-60591666D02*
X42082200Y-60639285D01*
X42082200Y-60639285D02*
X42129819Y-60782142D01*
X42129819Y-60782142D02*
X42129819Y-60877380D01*
X42129819Y-60877380D02*
X42082200Y-61020237D01*
X42082200Y-61020237D02*
X41986961Y-61115475D01*
X41986961Y-61115475D02*
X41891723Y-61163094D01*
X41891723Y-61163094D02*
X41701247Y-61210713D01*
X41701247Y-61210713D02*
X41558390Y-61210713D01*
X41558390Y-61210713D02*
X41367914Y-61163094D01*
X41367914Y-61163094D02*
X41272676Y-61115475D01*
X41272676Y-61115475D02*
X41177438Y-61020237D01*
X41177438Y-61020237D02*
X41129819Y-60877380D01*
X41129819Y-60877380D02*
X41129819Y-60782142D01*
X41129819Y-60782142D02*
X41177438Y-60639285D01*
X41177438Y-60639285D02*
X41225057Y-60591666D01*
X41463152Y-59734523D02*
X42129819Y-59734523D01*
X41082200Y-59972618D02*
X41796485Y-60210713D01*
X41796485Y-60210713D02*
X41796485Y-59591666D01*
X36329819Y-67520238D02*
X35853628Y-67853571D01*
X36329819Y-68091666D02*
X35329819Y-68091666D01*
X35329819Y-68091666D02*
X35329819Y-67710714D01*
X35329819Y-67710714D02*
X35377438Y-67615476D01*
X35377438Y-67615476D02*
X35425057Y-67567857D01*
X35425057Y-67567857D02*
X35520295Y-67520238D01*
X35520295Y-67520238D02*
X35663152Y-67520238D01*
X35663152Y-67520238D02*
X35758390Y-67567857D01*
X35758390Y-67567857D02*
X35806009Y-67615476D01*
X35806009Y-67615476D02*
X35853628Y-67710714D01*
X35853628Y-67710714D02*
X35853628Y-68091666D01*
X35329819Y-67234523D02*
X36329819Y-66901190D01*
X36329819Y-66901190D02*
X35329819Y-66567857D01*
X36329819Y-65710714D02*
X36329819Y-66282142D01*
X36329819Y-65996428D02*
X35329819Y-65996428D01*
X35329819Y-65996428D02*
X35472676Y-66091666D01*
X35472676Y-66091666D02*
X35567914Y-66186904D01*
X35567914Y-66186904D02*
X35615533Y-66282142D01*
X59875595Y-37329819D02*
X59875595Y-38139342D01*
X59875595Y-38139342D02*
X59923214Y-38234580D01*
X59923214Y-38234580D02*
X59970833Y-38282200D01*
X59970833Y-38282200D02*
X60066071Y-38329819D01*
X60066071Y-38329819D02*
X60256547Y-38329819D01*
X60256547Y-38329819D02*
X60351785Y-38282200D01*
X60351785Y-38282200D02*
X60399404Y-38234580D01*
X60399404Y-38234580D02*
X60447023Y-38139342D01*
X60447023Y-38139342D02*
X60447023Y-37329819D01*
X60827976Y-37329819D02*
X61494642Y-37329819D01*
X61494642Y-37329819D02*
X61066071Y-38329819D01*
X57319642Y-92534819D02*
X56986309Y-92058628D01*
X56748214Y-92534819D02*
X56748214Y-91534819D01*
X56748214Y-91534819D02*
X57129166Y-91534819D01*
X57129166Y-91534819D02*
X57224404Y-91582438D01*
X57224404Y-91582438D02*
X57272023Y-91630057D01*
X57272023Y-91630057D02*
X57319642Y-91725295D01*
X57319642Y-91725295D02*
X57319642Y-91868152D01*
X57319642Y-91868152D02*
X57272023Y-91963390D01*
X57272023Y-91963390D02*
X57224404Y-92011009D01*
X57224404Y-92011009D02*
X57129166Y-92058628D01*
X57129166Y-92058628D02*
X56748214Y-92058628D01*
X57700595Y-91630057D02*
X57748214Y-91582438D01*
X57748214Y-91582438D02*
X57843452Y-91534819D01*
X57843452Y-91534819D02*
X58081547Y-91534819D01*
X58081547Y-91534819D02*
X58176785Y-91582438D01*
X58176785Y-91582438D02*
X58224404Y-91630057D01*
X58224404Y-91630057D02*
X58272023Y-91725295D01*
X58272023Y-91725295D02*
X58272023Y-91820533D01*
X58272023Y-91820533D02*
X58224404Y-91963390D01*
X58224404Y-91963390D02*
X57652976Y-92534819D01*
X57652976Y-92534819D02*
X58272023Y-92534819D01*
X58652976Y-91630057D02*
X58700595Y-91582438D01*
X58700595Y-91582438D02*
X58795833Y-91534819D01*
X58795833Y-91534819D02*
X59033928Y-91534819D01*
X59033928Y-91534819D02*
X59129166Y-91582438D01*
X59129166Y-91582438D02*
X59176785Y-91630057D01*
X59176785Y-91630057D02*
X59224404Y-91725295D01*
X59224404Y-91725295D02*
X59224404Y-91820533D01*
X59224404Y-91820533D02*
X59176785Y-91963390D01*
X59176785Y-91963390D02*
X58605357Y-92534819D01*
X58605357Y-92534819D02*
X59224404Y-92534819D01*
X48829819Y-58066904D02*
X49639342Y-58066904D01*
X49639342Y-58066904D02*
X49734580Y-58019285D01*
X49734580Y-58019285D02*
X49782200Y-57971666D01*
X49782200Y-57971666D02*
X49829819Y-57876428D01*
X49829819Y-57876428D02*
X49829819Y-57685952D01*
X49829819Y-57685952D02*
X49782200Y-57590714D01*
X49782200Y-57590714D02*
X49734580Y-57543095D01*
X49734580Y-57543095D02*
X49639342Y-57495476D01*
X49639342Y-57495476D02*
X48829819Y-57495476D01*
X49163152Y-56590714D02*
X49829819Y-56590714D01*
X48782200Y-56828809D02*
X49496485Y-57066904D01*
X49496485Y-57066904D02*
X49496485Y-56447857D01*
X46329819Y-58267857D02*
X45853628Y-58601190D01*
X46329819Y-58839285D02*
X45329819Y-58839285D01*
X45329819Y-58839285D02*
X45329819Y-58458333D01*
X45329819Y-58458333D02*
X45377438Y-58363095D01*
X45377438Y-58363095D02*
X45425057Y-58315476D01*
X45425057Y-58315476D02*
X45520295Y-58267857D01*
X45520295Y-58267857D02*
X45663152Y-58267857D01*
X45663152Y-58267857D02*
X45758390Y-58315476D01*
X45758390Y-58315476D02*
X45806009Y-58363095D01*
X45806009Y-58363095D02*
X45853628Y-58458333D01*
X45853628Y-58458333D02*
X45853628Y-58839285D01*
X46329819Y-57315476D02*
X46329819Y-57886904D01*
X46329819Y-57601190D02*
X45329819Y-57601190D01*
X45329819Y-57601190D02*
X45472676Y-57696428D01*
X45472676Y-57696428D02*
X45567914Y-57791666D01*
X45567914Y-57791666D02*
X45615533Y-57886904D01*
X45329819Y-56696428D02*
X45329819Y-56601190D01*
X45329819Y-56601190D02*
X45377438Y-56505952D01*
X45377438Y-56505952D02*
X45425057Y-56458333D01*
X45425057Y-56458333D02*
X45520295Y-56410714D01*
X45520295Y-56410714D02*
X45710771Y-56363095D01*
X45710771Y-56363095D02*
X45948866Y-56363095D01*
X45948866Y-56363095D02*
X46139342Y-56410714D01*
X46139342Y-56410714D02*
X46234580Y-56458333D01*
X46234580Y-56458333D02*
X46282200Y-56505952D01*
X46282200Y-56505952D02*
X46329819Y-56601190D01*
X46329819Y-56601190D02*
X46329819Y-56696428D01*
X46329819Y-56696428D02*
X46282200Y-56791666D01*
X46282200Y-56791666D02*
X46234580Y-56839285D01*
X46234580Y-56839285D02*
X46139342Y-56886904D01*
X46139342Y-56886904D02*
X45948866Y-56934523D01*
X45948866Y-56934523D02*
X45710771Y-56934523D01*
X45710771Y-56934523D02*
X45520295Y-56886904D01*
X45520295Y-56886904D02*
X45425057Y-56839285D01*
X45425057Y-56839285D02*
X45377438Y-56791666D01*
X45377438Y-56791666D02*
X45329819Y-56696428D01*
X50929819Y-41386904D02*
X51739342Y-41386904D01*
X51739342Y-41386904D02*
X51834580Y-41339285D01*
X51834580Y-41339285D02*
X51882200Y-41291666D01*
X51882200Y-41291666D02*
X51929819Y-41196428D01*
X51929819Y-41196428D02*
X51929819Y-41005952D01*
X51929819Y-41005952D02*
X51882200Y-40910714D01*
X51882200Y-40910714D02*
X51834580Y-40863095D01*
X51834580Y-40863095D02*
X51739342Y-40815476D01*
X51739342Y-40815476D02*
X50929819Y-40815476D01*
X51929819Y-39815476D02*
X51929819Y-40386904D01*
X51929819Y-40101190D02*
X50929819Y-40101190D01*
X50929819Y-40101190D02*
X51072676Y-40196428D01*
X51072676Y-40196428D02*
X51167914Y-40291666D01*
X51167914Y-40291666D02*
X51215533Y-40386904D01*
X47808333Y-34404580D02*
X47760714Y-34452200D01*
X47760714Y-34452200D02*
X47617857Y-34499819D01*
X47617857Y-34499819D02*
X47522619Y-34499819D01*
X47522619Y-34499819D02*
X47379762Y-34452200D01*
X47379762Y-34452200D02*
X47284524Y-34356961D01*
X47284524Y-34356961D02*
X47236905Y-34261723D01*
X47236905Y-34261723D02*
X47189286Y-34071247D01*
X47189286Y-34071247D02*
X47189286Y-33928390D01*
X47189286Y-33928390D02*
X47236905Y-33737914D01*
X47236905Y-33737914D02*
X47284524Y-33642676D01*
X47284524Y-33642676D02*
X47379762Y-33547438D01*
X47379762Y-33547438D02*
X47522619Y-33499819D01*
X47522619Y-33499819D02*
X47617857Y-33499819D01*
X47617857Y-33499819D02*
X47760714Y-33547438D01*
X47760714Y-33547438D02*
X47808333Y-33595057D01*
X48760714Y-34499819D02*
X48189286Y-34499819D01*
X48475000Y-34499819D02*
X48475000Y-33499819D01*
X48475000Y-33499819D02*
X48379762Y-33642676D01*
X48379762Y-33642676D02*
X48284524Y-33737914D01*
X48284524Y-33737914D02*
X48189286Y-33785533D01*
X51229819Y-44667857D02*
X50753628Y-45001190D01*
X51229819Y-45239285D02*
X50229819Y-45239285D01*
X50229819Y-45239285D02*
X50229819Y-44858333D01*
X50229819Y-44858333D02*
X50277438Y-44763095D01*
X50277438Y-44763095D02*
X50325057Y-44715476D01*
X50325057Y-44715476D02*
X50420295Y-44667857D01*
X50420295Y-44667857D02*
X50563152Y-44667857D01*
X50563152Y-44667857D02*
X50658390Y-44715476D01*
X50658390Y-44715476D02*
X50706009Y-44763095D01*
X50706009Y-44763095D02*
X50753628Y-44858333D01*
X50753628Y-44858333D02*
X50753628Y-45239285D01*
X51229819Y-43715476D02*
X51229819Y-44286904D01*
X51229819Y-44001190D02*
X50229819Y-44001190D01*
X50229819Y-44001190D02*
X50372676Y-44096428D01*
X50372676Y-44096428D02*
X50467914Y-44191666D01*
X50467914Y-44191666D02*
X50515533Y-44286904D01*
X51229819Y-42763095D02*
X51229819Y-43334523D01*
X51229819Y-43048809D02*
X50229819Y-43048809D01*
X50229819Y-43048809D02*
X50372676Y-43144047D01*
X50372676Y-43144047D02*
X50467914Y-43239285D01*
X50467914Y-43239285D02*
X50515533Y-43334523D01*
X63827557Y-49982738D02*
X63779938Y-50077976D01*
X63779938Y-50077976D02*
X63684700Y-50173214D01*
X63684700Y-50173214D02*
X63541842Y-50316071D01*
X63541842Y-50316071D02*
X63494223Y-50411309D01*
X63494223Y-50411309D02*
X63494223Y-50506547D01*
X63732319Y-50458928D02*
X63684700Y-50554166D01*
X63684700Y-50554166D02*
X63589461Y-50649404D01*
X63589461Y-50649404D02*
X63398985Y-50697023D01*
X63398985Y-50697023D02*
X63065652Y-50697023D01*
X63065652Y-50697023D02*
X62875176Y-50649404D01*
X62875176Y-50649404D02*
X62779938Y-50554166D01*
X62779938Y-50554166D02*
X62732319Y-50458928D01*
X62732319Y-50458928D02*
X62732319Y-50268452D01*
X62732319Y-50268452D02*
X62779938Y-50173214D01*
X62779938Y-50173214D02*
X62875176Y-50077976D01*
X62875176Y-50077976D02*
X63065652Y-50030357D01*
X63065652Y-50030357D02*
X63398985Y-50030357D01*
X63398985Y-50030357D02*
X63589461Y-50077976D01*
X63589461Y-50077976D02*
X63684700Y-50173214D01*
X63684700Y-50173214D02*
X63732319Y-50268452D01*
X63732319Y-50268452D02*
X63732319Y-50458928D01*
X62732319Y-49697023D02*
X62732319Y-49077976D01*
X62732319Y-49077976D02*
X63113271Y-49411309D01*
X63113271Y-49411309D02*
X63113271Y-49268452D01*
X63113271Y-49268452D02*
X63160890Y-49173214D01*
X63160890Y-49173214D02*
X63208509Y-49125595D01*
X63208509Y-49125595D02*
X63303747Y-49077976D01*
X63303747Y-49077976D02*
X63541842Y-49077976D01*
X63541842Y-49077976D02*
X63637080Y-49125595D01*
X63637080Y-49125595D02*
X63684700Y-49173214D01*
X63684700Y-49173214D02*
X63732319Y-49268452D01*
X63732319Y-49268452D02*
X63732319Y-49554166D01*
X63732319Y-49554166D02*
X63684700Y-49649404D01*
X63684700Y-49649404D02*
X63637080Y-49697023D01*
X41188095Y-74679819D02*
X41188095Y-75489342D01*
X41188095Y-75489342D02*
X41235714Y-75584580D01*
X41235714Y-75584580D02*
X41283333Y-75632200D01*
X41283333Y-75632200D02*
X41378571Y-75679819D01*
X41378571Y-75679819D02*
X41569047Y-75679819D01*
X41569047Y-75679819D02*
X41664285Y-75632200D01*
X41664285Y-75632200D02*
X41711904Y-75584580D01*
X41711904Y-75584580D02*
X41759523Y-75489342D01*
X41759523Y-75489342D02*
X41759523Y-74679819D01*
X42188095Y-74775057D02*
X42235714Y-74727438D01*
X42235714Y-74727438D02*
X42330952Y-74679819D01*
X42330952Y-74679819D02*
X42569047Y-74679819D01*
X42569047Y-74679819D02*
X42664285Y-74727438D01*
X42664285Y-74727438D02*
X42711904Y-74775057D01*
X42711904Y-74775057D02*
X42759523Y-74870295D01*
X42759523Y-74870295D02*
X42759523Y-74965533D01*
X42759523Y-74965533D02*
X42711904Y-75108390D01*
X42711904Y-75108390D02*
X42140476Y-75679819D01*
X42140476Y-75679819D02*
X42759523Y-75679819D01*
X44284819Y-87238094D02*
X43284819Y-87238094D01*
X43284819Y-87238094D02*
X43284819Y-86999999D01*
X43284819Y-86999999D02*
X43332438Y-86857142D01*
X43332438Y-86857142D02*
X43427676Y-86761904D01*
X43427676Y-86761904D02*
X43522914Y-86714285D01*
X43522914Y-86714285D02*
X43713390Y-86666666D01*
X43713390Y-86666666D02*
X43856247Y-86666666D01*
X43856247Y-86666666D02*
X44046723Y-86714285D01*
X44046723Y-86714285D02*
X44141961Y-86761904D01*
X44141961Y-86761904D02*
X44237200Y-86857142D01*
X44237200Y-86857142D02*
X44284819Y-86999999D01*
X44284819Y-86999999D02*
X44284819Y-87238094D01*
X43380057Y-86285713D02*
X43332438Y-86238094D01*
X43332438Y-86238094D02*
X43284819Y-86142856D01*
X43284819Y-86142856D02*
X43284819Y-85904761D01*
X43284819Y-85904761D02*
X43332438Y-85809523D01*
X43332438Y-85809523D02*
X43380057Y-85761904D01*
X43380057Y-85761904D02*
X43475295Y-85714285D01*
X43475295Y-85714285D02*
X43570533Y-85714285D01*
X43570533Y-85714285D02*
X43713390Y-85761904D01*
X43713390Y-85761904D02*
X44284819Y-86333332D01*
X44284819Y-86333332D02*
X44284819Y-85714285D01*
X44854819Y-93111904D02*
X43854819Y-93111904D01*
X44854819Y-92540476D02*
X44283390Y-92969047D01*
X43854819Y-92540476D02*
X44426247Y-93111904D01*
X56025057Y-89257738D02*
X55977438Y-89352976D01*
X55977438Y-89352976D02*
X55882200Y-89448214D01*
X55882200Y-89448214D02*
X55739342Y-89591071D01*
X55739342Y-89591071D02*
X55691723Y-89686309D01*
X55691723Y-89686309D02*
X55691723Y-89781547D01*
X55929819Y-89733928D02*
X55882200Y-89829166D01*
X55882200Y-89829166D02*
X55786961Y-89924404D01*
X55786961Y-89924404D02*
X55596485Y-89972023D01*
X55596485Y-89972023D02*
X55263152Y-89972023D01*
X55263152Y-89972023D02*
X55072676Y-89924404D01*
X55072676Y-89924404D02*
X54977438Y-89829166D01*
X54977438Y-89829166D02*
X54929819Y-89733928D01*
X54929819Y-89733928D02*
X54929819Y-89543452D01*
X54929819Y-89543452D02*
X54977438Y-89448214D01*
X54977438Y-89448214D02*
X55072676Y-89352976D01*
X55072676Y-89352976D02*
X55263152Y-89305357D01*
X55263152Y-89305357D02*
X55596485Y-89305357D01*
X55596485Y-89305357D02*
X55786961Y-89352976D01*
X55786961Y-89352976D02*
X55882200Y-89448214D01*
X55882200Y-89448214D02*
X55929819Y-89543452D01*
X55929819Y-89543452D02*
X55929819Y-89733928D01*
X55263152Y-88448214D02*
X55929819Y-88448214D01*
X54882200Y-88686309D02*
X55596485Y-88924404D01*
X55596485Y-88924404D02*
X55596485Y-88305357D01*
X43762557Y-89257738D02*
X43714938Y-89352976D01*
X43714938Y-89352976D02*
X43619700Y-89448214D01*
X43619700Y-89448214D02*
X43476842Y-89591071D01*
X43476842Y-89591071D02*
X43429223Y-89686309D01*
X43429223Y-89686309D02*
X43429223Y-89781547D01*
X43667319Y-89733928D02*
X43619700Y-89829166D01*
X43619700Y-89829166D02*
X43524461Y-89924404D01*
X43524461Y-89924404D02*
X43333985Y-89972023D01*
X43333985Y-89972023D02*
X43000652Y-89972023D01*
X43000652Y-89972023D02*
X42810176Y-89924404D01*
X42810176Y-89924404D02*
X42714938Y-89829166D01*
X42714938Y-89829166D02*
X42667319Y-89733928D01*
X42667319Y-89733928D02*
X42667319Y-89543452D01*
X42667319Y-89543452D02*
X42714938Y-89448214D01*
X42714938Y-89448214D02*
X42810176Y-89352976D01*
X42810176Y-89352976D02*
X43000652Y-89305357D01*
X43000652Y-89305357D02*
X43333985Y-89305357D01*
X43333985Y-89305357D02*
X43524461Y-89352976D01*
X43524461Y-89352976D02*
X43619700Y-89448214D01*
X43619700Y-89448214D02*
X43667319Y-89543452D01*
X43667319Y-89543452D02*
X43667319Y-89733928D01*
X42667319Y-88400595D02*
X42667319Y-88876785D01*
X42667319Y-88876785D02*
X43143509Y-88924404D01*
X43143509Y-88924404D02*
X43095890Y-88876785D01*
X43095890Y-88876785D02*
X43048271Y-88781547D01*
X43048271Y-88781547D02*
X43048271Y-88543452D01*
X43048271Y-88543452D02*
X43095890Y-88448214D01*
X43095890Y-88448214D02*
X43143509Y-88400595D01*
X43143509Y-88400595D02*
X43238747Y-88352976D01*
X43238747Y-88352976D02*
X43476842Y-88352976D01*
X43476842Y-88352976D02*
X43572080Y-88400595D01*
X43572080Y-88400595D02*
X43619700Y-88448214D01*
X43619700Y-88448214D02*
X43667319Y-88543452D01*
X43667319Y-88543452D02*
X43667319Y-88781547D01*
X43667319Y-88781547D02*
X43619700Y-88876785D01*
X43619700Y-88876785D02*
X43572080Y-88924404D01*
X57257142Y-77654819D02*
X56923809Y-77178628D01*
X56685714Y-77654819D02*
X56685714Y-76654819D01*
X56685714Y-76654819D02*
X57066666Y-76654819D01*
X57066666Y-76654819D02*
X57161904Y-76702438D01*
X57161904Y-76702438D02*
X57209523Y-76750057D01*
X57209523Y-76750057D02*
X57257142Y-76845295D01*
X57257142Y-76845295D02*
X57257142Y-76988152D01*
X57257142Y-76988152D02*
X57209523Y-77083390D01*
X57209523Y-77083390D02*
X57161904Y-77131009D01*
X57161904Y-77131009D02*
X57066666Y-77178628D01*
X57066666Y-77178628D02*
X56685714Y-77178628D01*
X57638095Y-76750057D02*
X57685714Y-76702438D01*
X57685714Y-76702438D02*
X57780952Y-76654819D01*
X57780952Y-76654819D02*
X58019047Y-76654819D01*
X58019047Y-76654819D02*
X58114285Y-76702438D01*
X58114285Y-76702438D02*
X58161904Y-76750057D01*
X58161904Y-76750057D02*
X58209523Y-76845295D01*
X58209523Y-76845295D02*
X58209523Y-76940533D01*
X58209523Y-76940533D02*
X58161904Y-77083390D01*
X58161904Y-77083390D02*
X57590476Y-77654819D01*
X57590476Y-77654819D02*
X58209523Y-77654819D01*
X59161904Y-77654819D02*
X58590476Y-77654819D01*
X58876190Y-77654819D02*
X58876190Y-76654819D01*
X58876190Y-76654819D02*
X58780952Y-76797676D01*
X58780952Y-76797676D02*
X58685714Y-76892914D01*
X58685714Y-76892914D02*
X58590476Y-76940533D01*
X50054819Y-87238094D02*
X49054819Y-87238094D01*
X49054819Y-87238094D02*
X49054819Y-86999999D01*
X49054819Y-86999999D02*
X49102438Y-86857142D01*
X49102438Y-86857142D02*
X49197676Y-86761904D01*
X49197676Y-86761904D02*
X49292914Y-86714285D01*
X49292914Y-86714285D02*
X49483390Y-86666666D01*
X49483390Y-86666666D02*
X49626247Y-86666666D01*
X49626247Y-86666666D02*
X49816723Y-86714285D01*
X49816723Y-86714285D02*
X49911961Y-86761904D01*
X49911961Y-86761904D02*
X50007200Y-86857142D01*
X50007200Y-86857142D02*
X50054819Y-86999999D01*
X50054819Y-86999999D02*
X50054819Y-87238094D01*
X50054819Y-85714285D02*
X50054819Y-86285713D01*
X50054819Y-85999999D02*
X49054819Y-85999999D01*
X49054819Y-85999999D02*
X49197676Y-86095237D01*
X49197676Y-86095237D02*
X49292914Y-86190475D01*
X49292914Y-86190475D02*
X49340533Y-86285713D01*
X50454819Y-93111904D02*
X49454819Y-93111904D01*
X50454819Y-92540476D02*
X49883390Y-92969047D01*
X49454819Y-92540476D02*
X50026247Y-93111904D01*
X60622080Y-83566666D02*
X60669700Y-83614285D01*
X60669700Y-83614285D02*
X60717319Y-83757142D01*
X60717319Y-83757142D02*
X60717319Y-83852380D01*
X60717319Y-83852380D02*
X60669700Y-83995237D01*
X60669700Y-83995237D02*
X60574461Y-84090475D01*
X60574461Y-84090475D02*
X60479223Y-84138094D01*
X60479223Y-84138094D02*
X60288747Y-84185713D01*
X60288747Y-84185713D02*
X60145890Y-84185713D01*
X60145890Y-84185713D02*
X59955414Y-84138094D01*
X59955414Y-84138094D02*
X59860176Y-84090475D01*
X59860176Y-84090475D02*
X59764938Y-83995237D01*
X59764938Y-83995237D02*
X59717319Y-83852380D01*
X59717319Y-83852380D02*
X59717319Y-83757142D01*
X59717319Y-83757142D02*
X59764938Y-83614285D01*
X59764938Y-83614285D02*
X59812557Y-83566666D01*
X60145890Y-82995237D02*
X60098271Y-83090475D01*
X60098271Y-83090475D02*
X60050652Y-83138094D01*
X60050652Y-83138094D02*
X59955414Y-83185713D01*
X59955414Y-83185713D02*
X59907795Y-83185713D01*
X59907795Y-83185713D02*
X59812557Y-83138094D01*
X59812557Y-83138094D02*
X59764938Y-83090475D01*
X59764938Y-83090475D02*
X59717319Y-82995237D01*
X59717319Y-82995237D02*
X59717319Y-82804761D01*
X59717319Y-82804761D02*
X59764938Y-82709523D01*
X59764938Y-82709523D02*
X59812557Y-82661904D01*
X59812557Y-82661904D02*
X59907795Y-82614285D01*
X59907795Y-82614285D02*
X59955414Y-82614285D01*
X59955414Y-82614285D02*
X60050652Y-82661904D01*
X60050652Y-82661904D02*
X60098271Y-82709523D01*
X60098271Y-82709523D02*
X60145890Y-82804761D01*
X60145890Y-82804761D02*
X60145890Y-82995237D01*
X60145890Y-82995237D02*
X60193509Y-83090475D01*
X60193509Y-83090475D02*
X60241128Y-83138094D01*
X60241128Y-83138094D02*
X60336366Y-83185713D01*
X60336366Y-83185713D02*
X60526842Y-83185713D01*
X60526842Y-83185713D02*
X60622080Y-83138094D01*
X60622080Y-83138094D02*
X60669700Y-83090475D01*
X60669700Y-83090475D02*
X60717319Y-82995237D01*
X60717319Y-82995237D02*
X60717319Y-82804761D01*
X60717319Y-82804761D02*
X60669700Y-82709523D01*
X60669700Y-82709523D02*
X60622080Y-82661904D01*
X60622080Y-82661904D02*
X60526842Y-82614285D01*
X60526842Y-82614285D02*
X60336366Y-82614285D01*
X60336366Y-82614285D02*
X60241128Y-82661904D01*
X60241128Y-82661904D02*
X60193509Y-82709523D01*
X60193509Y-82709523D02*
X60145890Y-82804761D01*
X43559580Y-83566666D02*
X43607200Y-83614285D01*
X43607200Y-83614285D02*
X43654819Y-83757142D01*
X43654819Y-83757142D02*
X43654819Y-83852380D01*
X43654819Y-83852380D02*
X43607200Y-83995237D01*
X43607200Y-83995237D02*
X43511961Y-84090475D01*
X43511961Y-84090475D02*
X43416723Y-84138094D01*
X43416723Y-84138094D02*
X43226247Y-84185713D01*
X43226247Y-84185713D02*
X43083390Y-84185713D01*
X43083390Y-84185713D02*
X42892914Y-84138094D01*
X42892914Y-84138094D02*
X42797676Y-84090475D01*
X42797676Y-84090475D02*
X42702438Y-83995237D01*
X42702438Y-83995237D02*
X42654819Y-83852380D01*
X42654819Y-83852380D02*
X42654819Y-83757142D01*
X42654819Y-83757142D02*
X42702438Y-83614285D01*
X42702438Y-83614285D02*
X42750057Y-83566666D01*
X43654819Y-83090475D02*
X43654819Y-82899999D01*
X43654819Y-82899999D02*
X43607200Y-82804761D01*
X43607200Y-82804761D02*
X43559580Y-82757142D01*
X43559580Y-82757142D02*
X43416723Y-82661904D01*
X43416723Y-82661904D02*
X43226247Y-82614285D01*
X43226247Y-82614285D02*
X42845295Y-82614285D01*
X42845295Y-82614285D02*
X42750057Y-82661904D01*
X42750057Y-82661904D02*
X42702438Y-82709523D01*
X42702438Y-82709523D02*
X42654819Y-82804761D01*
X42654819Y-82804761D02*
X42654819Y-82995237D01*
X42654819Y-82995237D02*
X42702438Y-83090475D01*
X42702438Y-83090475D02*
X42750057Y-83138094D01*
X42750057Y-83138094D02*
X42845295Y-83185713D01*
X42845295Y-83185713D02*
X43083390Y-83185713D01*
X43083390Y-83185713D02*
X43178628Y-83138094D01*
X43178628Y-83138094D02*
X43226247Y-83090475D01*
X43226247Y-83090475D02*
X43273866Y-82995237D01*
X43273866Y-82995237D02*
X43273866Y-82804761D01*
X43273866Y-82804761D02*
X43226247Y-82709523D01*
X43226247Y-82709523D02*
X43178628Y-82661904D01*
X43178628Y-82661904D02*
X43083390Y-82614285D01*
X40257142Y-77654819D02*
X39923809Y-77178628D01*
X39685714Y-77654819D02*
X39685714Y-76654819D01*
X39685714Y-76654819D02*
X40066666Y-76654819D01*
X40066666Y-76654819D02*
X40161904Y-76702438D01*
X40161904Y-76702438D02*
X40209523Y-76750057D01*
X40209523Y-76750057D02*
X40257142Y-76845295D01*
X40257142Y-76845295D02*
X40257142Y-76988152D01*
X40257142Y-76988152D02*
X40209523Y-77083390D01*
X40209523Y-77083390D02*
X40161904Y-77131009D01*
X40161904Y-77131009D02*
X40066666Y-77178628D01*
X40066666Y-77178628D02*
X39685714Y-77178628D01*
X40638095Y-76750057D02*
X40685714Y-76702438D01*
X40685714Y-76702438D02*
X40780952Y-76654819D01*
X40780952Y-76654819D02*
X41019047Y-76654819D01*
X41019047Y-76654819D02*
X41114285Y-76702438D01*
X41114285Y-76702438D02*
X41161904Y-76750057D01*
X41161904Y-76750057D02*
X41209523Y-76845295D01*
X41209523Y-76845295D02*
X41209523Y-76940533D01*
X41209523Y-76940533D02*
X41161904Y-77083390D01*
X41161904Y-77083390D02*
X40590476Y-77654819D01*
X40590476Y-77654819D02*
X41209523Y-77654819D01*
X41542857Y-76654819D02*
X42161904Y-76654819D01*
X42161904Y-76654819D02*
X41828571Y-77035771D01*
X41828571Y-77035771D02*
X41971428Y-77035771D01*
X41971428Y-77035771D02*
X42066666Y-77083390D01*
X42066666Y-77083390D02*
X42114285Y-77131009D01*
X42114285Y-77131009D02*
X42161904Y-77226247D01*
X42161904Y-77226247D02*
X42161904Y-77464342D01*
X42161904Y-77464342D02*
X42114285Y-77559580D01*
X42114285Y-77559580D02*
X42066666Y-77607200D01*
X42066666Y-77607200D02*
X41971428Y-77654819D01*
X41971428Y-77654819D02*
X41685714Y-77654819D01*
X41685714Y-77654819D02*
X41590476Y-77607200D01*
X41590476Y-77607200D02*
X41542857Y-77559580D01*
X40257142Y-92654819D02*
X39923809Y-92178628D01*
X39685714Y-92654819D02*
X39685714Y-91654819D01*
X39685714Y-91654819D02*
X40066666Y-91654819D01*
X40066666Y-91654819D02*
X40161904Y-91702438D01*
X40161904Y-91702438D02*
X40209523Y-91750057D01*
X40209523Y-91750057D02*
X40257142Y-91845295D01*
X40257142Y-91845295D02*
X40257142Y-91988152D01*
X40257142Y-91988152D02*
X40209523Y-92083390D01*
X40209523Y-92083390D02*
X40161904Y-92131009D01*
X40161904Y-92131009D02*
X40066666Y-92178628D01*
X40066666Y-92178628D02*
X39685714Y-92178628D01*
X40638095Y-91750057D02*
X40685714Y-91702438D01*
X40685714Y-91702438D02*
X40780952Y-91654819D01*
X40780952Y-91654819D02*
X41019047Y-91654819D01*
X41019047Y-91654819D02*
X41114285Y-91702438D01*
X41114285Y-91702438D02*
X41161904Y-91750057D01*
X41161904Y-91750057D02*
X41209523Y-91845295D01*
X41209523Y-91845295D02*
X41209523Y-91940533D01*
X41209523Y-91940533D02*
X41161904Y-92083390D01*
X41161904Y-92083390D02*
X40590476Y-92654819D01*
X40590476Y-92654819D02*
X41209523Y-92654819D01*
X42066666Y-91988152D02*
X42066666Y-92654819D01*
X41828571Y-91607200D02*
X41590476Y-92321485D01*
X41590476Y-92321485D02*
X42209523Y-92321485D01*
D11*
%TO.C,IN2*%
X71010000Y-76940000D02*
X63190000Y-76940000D01*
X64790000Y-76940000D02*
X64790000Y-77860000D01*
X63190000Y-76940000D02*
X63190000Y-77860000D01*
X68750000Y-77700000D02*
X68750000Y-78700000D01*
X67150000Y-77700000D02*
X68750000Y-77700000D01*
X64790000Y-77860000D02*
X64790000Y-78140000D01*
X63190000Y-77860000D02*
X64790000Y-77860000D01*
X68750000Y-78700000D02*
X67150000Y-78700000D01*
X67150000Y-78700000D02*
X67150000Y-77700000D01*
X66650000Y-79500000D02*
X71010000Y-79500000D01*
X71010000Y-82500000D02*
X66650000Y-82500000D01*
X66650000Y-82500000D02*
X66650000Y-79500000D01*
X68750000Y-83300000D02*
X71010000Y-83300000D01*
X68750000Y-83300000D02*
X67150000Y-83300000D01*
X67150000Y-83300000D02*
X67150000Y-84300000D01*
X68750000Y-83800000D02*
X71010000Y-83800000D01*
X64790000Y-83860000D02*
X63575000Y-83860000D01*
X64790000Y-83860000D02*
X64790000Y-84140000D01*
X64790000Y-84140000D02*
X63190000Y-84140000D01*
X63190000Y-84140000D02*
X63190000Y-85060000D01*
X68750000Y-84300000D02*
X68750000Y-83300000D01*
X67150000Y-84300000D02*
X68750000Y-84300000D01*
X71010000Y-85060000D02*
X71010000Y-76940000D01*
X64790000Y-85060000D02*
X64790000Y-84140000D01*
X63190000Y-85060000D02*
X71010000Y-85060000D01*
%TO.C,IN4*%
X28990000Y-85160000D02*
X36810000Y-85160000D01*
X35210000Y-85160000D02*
X35210000Y-84240000D01*
X36810000Y-85160000D02*
X36810000Y-84240000D01*
X31250000Y-84400000D02*
X31250000Y-83400000D01*
X32850000Y-84400000D02*
X31250000Y-84400000D01*
X35210000Y-84240000D02*
X35210000Y-83960000D01*
X36810000Y-84240000D02*
X35210000Y-84240000D01*
X31250000Y-83400000D02*
X32850000Y-83400000D01*
X32850000Y-83400000D02*
X32850000Y-84400000D01*
X33350000Y-82600000D02*
X28990000Y-82600000D01*
X28990000Y-79600000D02*
X33350000Y-79600000D01*
X33350000Y-79600000D02*
X33350000Y-82600000D01*
X31250000Y-78800000D02*
X28990000Y-78800000D01*
X31250000Y-78800000D02*
X32850000Y-78800000D01*
X32850000Y-78800000D02*
X32850000Y-77800000D01*
X31250000Y-78300000D02*
X28990000Y-78300000D01*
X35210000Y-78240000D02*
X36425000Y-78240000D01*
X35210000Y-78240000D02*
X35210000Y-77960000D01*
X35210000Y-77960000D02*
X36810000Y-77960000D01*
X36810000Y-77960000D02*
X36810000Y-77040000D01*
X31250000Y-77800000D02*
X31250000Y-78800000D01*
X32850000Y-77800000D02*
X31250000Y-77800000D01*
X28990000Y-77040000D02*
X28990000Y-85160000D01*
X35210000Y-77040000D02*
X35210000Y-77960000D01*
X36810000Y-77040000D02*
X28990000Y-77040000D01*
%TO.C,IN1*%
X71010000Y-86040000D02*
X63190000Y-86040000D01*
X64790000Y-86040000D02*
X64790000Y-86960000D01*
X63190000Y-86040000D02*
X63190000Y-86960000D01*
X68750000Y-86800000D02*
X68750000Y-87800000D01*
X67150000Y-86800000D02*
X68750000Y-86800000D01*
X64790000Y-86960000D02*
X64790000Y-87240000D01*
X63190000Y-86960000D02*
X64790000Y-86960000D01*
X68750000Y-87800000D02*
X67150000Y-87800000D01*
X67150000Y-87800000D02*
X67150000Y-86800000D01*
X66650000Y-88600000D02*
X71010000Y-88600000D01*
X71010000Y-91600000D02*
X66650000Y-91600000D01*
X66650000Y-91600000D02*
X66650000Y-88600000D01*
X68750000Y-92400000D02*
X71010000Y-92400000D01*
X68750000Y-92400000D02*
X67150000Y-92400000D01*
X67150000Y-92400000D02*
X67150000Y-93400000D01*
X68750000Y-92900000D02*
X71010000Y-92900000D01*
X64790000Y-92960000D02*
X63575000Y-92960000D01*
X64790000Y-92960000D02*
X64790000Y-93240000D01*
X64790000Y-93240000D02*
X63190000Y-93240000D01*
X63190000Y-93240000D02*
X63190000Y-94160000D01*
X68750000Y-93400000D02*
X68750000Y-92400000D01*
X67150000Y-93400000D02*
X68750000Y-93400000D01*
X71010000Y-94160000D02*
X71010000Y-86040000D01*
X64790000Y-94160000D02*
X64790000Y-93240000D01*
X63190000Y-94160000D02*
X71010000Y-94160000D01*
%TO.C,IN3*%
X36810000Y-86140000D02*
X28990000Y-86140000D01*
X35210000Y-86140000D02*
X35210000Y-87060000D01*
X28990000Y-86140000D02*
X28990000Y-94260000D01*
X32850000Y-86900000D02*
X31250000Y-86900000D01*
X31250000Y-86900000D02*
X31250000Y-87900000D01*
X36810000Y-87060000D02*
X36810000Y-86140000D01*
X35210000Y-87060000D02*
X36810000Y-87060000D01*
X35210000Y-87340000D02*
X35210000Y-87060000D01*
X35210000Y-87340000D02*
X36425000Y-87340000D01*
X31250000Y-87400000D02*
X28990000Y-87400000D01*
X32850000Y-87900000D02*
X32850000Y-86900000D01*
X31250000Y-87900000D02*
X32850000Y-87900000D01*
X31250000Y-87900000D02*
X28990000Y-87900000D01*
X33350000Y-88700000D02*
X33350000Y-91700000D01*
X28990000Y-88700000D02*
X33350000Y-88700000D01*
X33350000Y-91700000D02*
X28990000Y-91700000D01*
X32850000Y-92500000D02*
X32850000Y-93500000D01*
X31250000Y-92500000D02*
X32850000Y-92500000D01*
X36810000Y-93340000D02*
X35210000Y-93340000D01*
X35210000Y-93340000D02*
X35210000Y-93060000D01*
X32850000Y-93500000D02*
X31250000Y-93500000D01*
X31250000Y-93500000D02*
X31250000Y-92500000D01*
X36810000Y-94260000D02*
X36810000Y-93340000D01*
X35210000Y-94260000D02*
X35210000Y-93340000D01*
X28990000Y-94260000D02*
X36810000Y-94260000D01*
%TO.C,J2*%
X59640000Y-72510000D02*
X59640000Y-71090000D01*
X71360000Y-72510000D02*
X59640000Y-72510000D01*
X59640000Y-71090000D02*
X64140000Y-71090000D01*
X64140000Y-71090000D02*
X64140000Y-68700000D01*
X59950000Y-70250000D02*
X59950000Y-69650000D01*
X65250000Y-70200000D02*
X70750000Y-70200000D01*
X70750000Y-70200000D02*
X70750000Y-69700000D01*
X60550000Y-69950000D02*
X59950000Y-70250000D01*
X65250000Y-69700000D02*
X65250000Y-70200000D01*
X70750000Y-69700000D02*
X65250000Y-69700000D01*
X59950000Y-69650000D02*
X60550000Y-69950000D01*
X71360000Y-68700000D02*
X71360000Y-72510000D01*
X71360000Y-68700000D02*
X71360000Y-64890000D01*
X65250000Y-67700000D02*
X70750000Y-67700000D01*
X70750000Y-67700000D02*
X70750000Y-67200000D01*
X65250000Y-67200000D02*
X65250000Y-67700000D01*
X70750000Y-67200000D02*
X65250000Y-67200000D01*
X59640000Y-66310000D02*
X64140000Y-66310000D01*
X64140000Y-66310000D02*
X64140000Y-68700000D01*
X59640000Y-64890000D02*
X59640000Y-66310000D01*
X71360000Y-64890000D02*
X59640000Y-64890000D01*
%TO.C,J1*%
X43810000Y-39960000D02*
X42390000Y-39960000D01*
X43810000Y-28240000D02*
X43810000Y-39960000D01*
X42390000Y-39960000D02*
X42390000Y-35460000D01*
X42390000Y-35460000D02*
X40000000Y-35460000D01*
X41550000Y-39650000D02*
X40950000Y-39650000D01*
X41500000Y-34350000D02*
X41500000Y-28850000D01*
X41500000Y-28850000D02*
X41000000Y-28850000D01*
X41250000Y-39050000D02*
X41550000Y-39650000D01*
X41000000Y-34350000D02*
X41500000Y-34350000D01*
X41000000Y-28850000D02*
X41000000Y-34350000D01*
X40950000Y-39650000D02*
X41250000Y-39050000D01*
X40000000Y-28240000D02*
X43810000Y-28240000D01*
X40000000Y-28240000D02*
X36190000Y-28240000D01*
X39000000Y-34350000D02*
X39000000Y-28850000D01*
X39000000Y-28850000D02*
X38500000Y-28850000D01*
X38500000Y-34350000D02*
X39000000Y-34350000D01*
X38500000Y-28850000D02*
X38500000Y-34350000D01*
X37610000Y-39960000D02*
X37610000Y-35460000D01*
X37610000Y-35460000D02*
X40000000Y-35460000D01*
X36190000Y-39960000D02*
X37610000Y-39960000D01*
X36190000Y-28240000D02*
X36190000Y-39960000D01*
%TO.C,C2*%
X48136252Y-45160000D02*
X47613748Y-45160000D01*
X48136252Y-43690000D02*
X47613748Y-43690000D01*
%TO.C,R18*%
X60147936Y-36560000D02*
X60602064Y-36560000D01*
X60147936Y-35090000D02*
X60602064Y-35090000D01*
%TO.C,R16*%
X65710000Y-44397936D02*
X65710000Y-44852064D01*
X64240000Y-44397936D02*
X64240000Y-44852064D01*
%TO.C,C5*%
X35901248Y-47685000D02*
X37323752Y-47685000D01*
X35901248Y-44965000D02*
X37323752Y-44965000D01*
%TO.C,R2*%
X36510000Y-60552064D02*
X36510000Y-60097936D01*
X35040000Y-60552064D02*
X35040000Y-60097936D01*
%TO.C,C6*%
X44810000Y-52786252D02*
X44810000Y-52263748D01*
X43340000Y-52786252D02*
X43340000Y-52263748D01*
%TO.C,C3*%
X54623752Y-72865000D02*
X54101248Y-72865000D01*
X54623752Y-74335000D02*
X54101248Y-74335000D01*
%TO.C,R5*%
X54210000Y-65197936D02*
X54210000Y-65652064D01*
X52740000Y-65197936D02*
X52740000Y-65652064D01*
%TO.C,R13*%
X54912500Y-50077064D02*
X54912500Y-49622936D01*
X53442500Y-50077064D02*
X53442500Y-49622936D01*
%TO.C,R9*%
X41447500Y-45997936D02*
X41447500Y-46452064D01*
X39977500Y-45997936D02*
X39977500Y-46452064D01*
%TO.C,R4*%
X54210000Y-70152064D02*
X54210000Y-69697936D01*
X52740000Y-70152064D02*
X52740000Y-69697936D01*
%TO.C,U3*%
X41465000Y-68287500D02*
X41135000Y-68527500D01*
X41135000Y-68047500D01*
X41465000Y-68287500D01*
G36*
X41465000Y-68287500D02*
G01*
X41135000Y-68527500D01*
X41135000Y-68047500D01*
X41465000Y-68287500D01*
G37*
X44535000Y-66987500D02*
X44535000Y-67787500D01*
X44535000Y-66987500D02*
X44535000Y-66187500D01*
X41415000Y-66987500D02*
X41415000Y-67787500D01*
X41415000Y-66987500D02*
X41415000Y-66187500D01*
%TO.C,Q2*%
X65140000Y-62110000D02*
X64460000Y-62110000D01*
X64800000Y-61640000D01*
X65140000Y-62110000D01*
G36*
X65140000Y-62110000D02*
G01*
X64460000Y-62110000D01*
X64800000Y-61640000D01*
X65140000Y-62110000D01*
G37*
X63070000Y-61950000D02*
X63070000Y-61680000D01*
X63070000Y-55050000D02*
X63070000Y-55320000D01*
X56650000Y-61950000D02*
X63070000Y-61950000D01*
X56650000Y-55050000D02*
X63070000Y-55050000D01*
%TO.C,R15*%
X62110000Y-44852064D02*
X62110000Y-44397936D01*
X60640000Y-44852064D02*
X60640000Y-44397936D01*
%TO.C,R12*%
X58412500Y-49622936D02*
X58412500Y-50077064D01*
X56942500Y-49622936D02*
X56942500Y-50077064D01*
%TO.C,R8*%
X40410000Y-60652064D02*
X40410000Y-60197936D01*
X38940000Y-60652064D02*
X38940000Y-60197936D01*
%TO.C,R14*%
X62112500Y-50052064D02*
X62112500Y-49597936D01*
X60642500Y-50052064D02*
X60642500Y-49597936D01*
%TO.C,C7*%
X55636252Y-40260000D02*
X55113748Y-40260000D01*
X55636252Y-38790000D02*
X55113748Y-38790000D01*
%TO.C,R6*%
X48410000Y-67252064D02*
X48410000Y-66797936D01*
X46940000Y-67252064D02*
X46940000Y-66797936D01*
%TO.C,U6*%
X46305000Y-53450000D02*
X45975000Y-53690000D01*
X45975000Y-53210000D01*
X46305000Y-53450000D01*
G36*
X46305000Y-53450000D02*
G01*
X45975000Y-53690000D01*
X45975000Y-53210000D01*
X46305000Y-53450000D01*
G37*
X51330000Y-50750000D02*
X51330000Y-52700000D01*
X51330000Y-50750000D02*
X51330000Y-48800000D01*
X46210000Y-50750000D02*
X46210000Y-52700000D01*
X46210000Y-50750000D02*
X46210000Y-48800000D01*
%TO.C,R1*%
X35527064Y-71865000D02*
X35072936Y-71865000D01*
X35527064Y-73335000D02*
X35072936Y-73335000D01*
%TO.C,R20*%
X65710000Y-36552064D02*
X65710000Y-36097936D01*
X64240000Y-36552064D02*
X64240000Y-36097936D01*
%TO.C,R3*%
X48410000Y-72397936D02*
X48410000Y-72852064D01*
X46940000Y-72397936D02*
X46940000Y-72852064D01*
%TO.C,R7*%
X48410000Y-63052064D02*
X48410000Y-62597936D01*
X46940000Y-63052064D02*
X46940000Y-62597936D01*
%TO.C,U5*%
X40815000Y-54620000D02*
X40335000Y-54620000D01*
X40575000Y-54290000D01*
X40815000Y-54620000D01*
G36*
X40815000Y-54620000D02*
G01*
X40335000Y-54620000D01*
X40575000Y-54290000D01*
X40815000Y-54620000D01*
G37*
X37875000Y-54385000D02*
X39825000Y-54385000D01*
X37875000Y-54385000D02*
X35925000Y-54385000D01*
X37875000Y-49265000D02*
X39825000Y-49265000D01*
X37875000Y-49265000D02*
X35925000Y-49265000D01*
%TO.C,R19*%
X65710000Y-40452064D02*
X65710000Y-39997936D01*
X64240000Y-40452064D02*
X64240000Y-39997936D01*
%TO.C,Q1*%
X55165000Y-45225000D02*
X54835000Y-45465000D01*
X54835000Y-44985000D01*
X55165000Y-45225000D01*
G36*
X55165000Y-45225000D02*
G01*
X54835000Y-45465000D01*
X54835000Y-44985000D01*
X55165000Y-45225000D01*
G37*
X58235000Y-44062500D02*
X58235000Y-44712500D01*
X58235000Y-44062500D02*
X58235000Y-43412500D01*
X55115000Y-44062500D02*
X55115000Y-44712500D01*
X55115000Y-44062500D02*
X55115000Y-43412500D01*
%TO.C,R17*%
X55147936Y-36560000D02*
X55602064Y-36560000D01*
X55147936Y-35090000D02*
X55602064Y-35090000D01*
%TO.C,C4*%
X44110000Y-60063748D02*
X44110000Y-60586252D01*
X42640000Y-60063748D02*
X42640000Y-60586252D01*
%TO.C,RV1*%
X38985000Y-68235000D02*
X38985000Y-67665000D01*
X38985000Y-66385000D02*
X38985000Y-65815000D01*
X37285000Y-70335000D02*
X37285000Y-63715000D01*
X37285000Y-68235000D02*
X38985000Y-68235000D01*
X37285000Y-65815000D02*
X38985000Y-65815000D01*
X37285000Y-63715000D02*
X36295000Y-63715000D01*
X36735000Y-70335000D02*
X37285000Y-70335000D01*
X34865000Y-68625000D02*
X34865000Y-64825000D01*
X34865000Y-64235000D02*
X34865000Y-63715000D01*
X34865000Y-63715000D02*
X35255000Y-63715000D01*
X34815000Y-70135000D02*
X33575000Y-70135000D01*
X33565000Y-70135000D02*
X33565000Y-63915000D01*
X33565000Y-63915000D02*
X34865000Y-63915000D01*
%TO.C,U7*%
X59337500Y-38765000D02*
X59097500Y-38435000D01*
X59577500Y-38435000D01*
X59337500Y-38765000D01*
G36*
X59337500Y-38765000D02*
G01*
X59097500Y-38435000D01*
X59577500Y-38435000D01*
X59337500Y-38765000D01*
G37*
X60637500Y-41835000D02*
X61437500Y-41835000D01*
X60637500Y-41835000D02*
X59837500Y-41835000D01*
X60637500Y-38715000D02*
X61437500Y-38715000D01*
X60637500Y-38715000D02*
X59837500Y-38715000D01*
%TO.C,R22*%
X57235436Y-94810000D02*
X58689564Y-94810000D01*
X57235436Y-92990000D02*
X58689564Y-92990000D01*
D12*
%TO.C,U4*%
X50775000Y-60180000D02*
G75*
G02*
X50575000Y-60180000I-100000J0D01*
G01*
X50575000Y-60180000D02*
G75*
G02*
X50775000Y-60180000I100000J0D01*
G01*
D13*
X53185000Y-58480000D02*
X53185000Y-56880000D01*
X50065000Y-56880000D02*
X50065000Y-58480000D01*
D11*
%TO.C,R10*%
X48410000Y-57852064D02*
X48410000Y-57397936D01*
X46940000Y-57852064D02*
X46940000Y-57397936D01*
%TO.C,U1*%
X50515000Y-39095000D02*
X50185000Y-38855000D01*
X50515000Y-38615000D01*
X50515000Y-39095000D01*
G36*
X50515000Y-39095000D02*
G01*
X50185000Y-38855000D01*
X50515000Y-38615000D01*
X50515000Y-39095000D01*
G37*
X50335000Y-39405000D02*
X50335000Y-41985000D01*
X49355000Y-41985000D02*
X50335000Y-41985000D01*
X46595000Y-41985000D02*
X45615000Y-41985000D01*
X45615000Y-41985000D02*
X45615000Y-39265000D01*
%TO.C,C1*%
X47713748Y-36460000D02*
X48236252Y-36460000D01*
X47713748Y-34990000D02*
X48236252Y-34990000D01*
%TO.C,R11*%
X53410000Y-43797936D02*
X53410000Y-44252064D01*
X51940000Y-43797936D02*
X51940000Y-44252064D01*
%TO.C,Q3*%
X64167500Y-51050000D02*
X63837500Y-51290000D01*
X63837500Y-50810000D01*
X64167500Y-51050000D01*
G36*
X64167500Y-51050000D02*
G01*
X63837500Y-51290000D01*
X63837500Y-50810000D01*
X64167500Y-51050000D01*
G37*
X67237500Y-49887500D02*
X67237500Y-50537500D01*
X67237500Y-49887500D02*
X67237500Y-49237500D01*
X64117500Y-49887500D02*
X64117500Y-50537500D01*
X64117500Y-49887500D02*
X64117500Y-49237500D01*
%TO.C,U2*%
X43515000Y-74415000D02*
X43035000Y-74415000D01*
X43275000Y-74085000D01*
X43515000Y-74415000D01*
G36*
X43515000Y-74415000D02*
G01*
X43035000Y-74415000D01*
X43275000Y-74085000D01*
X43515000Y-74415000D01*
G37*
X42112500Y-74135000D02*
X42762500Y-74135000D01*
X42112500Y-74135000D02*
X41462500Y-74135000D01*
X42112500Y-71015000D02*
X42762500Y-71015000D01*
X42112500Y-71015000D02*
X41462500Y-71015000D01*
%TO.C,D2*%
X46800000Y-81790000D02*
X46800000Y-81930000D01*
X48770000Y-81930000D02*
X44830000Y-81930000D01*
X44830000Y-81930000D02*
X44830000Y-91070000D01*
X44830000Y-89495000D02*
X48770000Y-89495000D01*
X44830000Y-89615000D02*
X48770000Y-89615000D01*
X44830000Y-89735000D02*
X48770000Y-89735000D01*
X48770000Y-91070000D02*
X48770000Y-81930000D01*
X44830000Y-91070000D02*
X48770000Y-91070000D01*
X46800000Y-91210000D02*
X46800000Y-91070000D01*
%TO.C,Q4*%
X56365000Y-90325000D02*
X56035000Y-90565000D01*
X56035000Y-90085000D01*
X56365000Y-90325000D01*
G36*
X56365000Y-90325000D02*
G01*
X56035000Y-90565000D01*
X56035000Y-90085000D01*
X56365000Y-90325000D01*
G37*
X59435000Y-89162500D02*
X59435000Y-88512500D01*
X59435000Y-89162500D02*
X59435000Y-89812500D01*
X56315000Y-89162500D02*
X56315000Y-88512500D01*
X56315000Y-89162500D02*
X56315000Y-89812500D01*
%TO.C,Q5*%
X42652500Y-88240000D02*
X42322500Y-88000000D01*
X42652500Y-87760000D01*
X42652500Y-88240000D01*
G36*
X42652500Y-88240000D02*
G01*
X42322500Y-88000000D01*
X42652500Y-87760000D01*
X42652500Y-88240000D01*
G37*
X39252500Y-89162500D02*
X39252500Y-89812500D01*
X39252500Y-89162500D02*
X39252500Y-88512500D01*
X42372500Y-89162500D02*
X42372500Y-89812500D01*
X42372500Y-89162500D02*
X42372500Y-88512500D01*
%TO.C,R21*%
X58689564Y-77990000D02*
X57235436Y-77990000D01*
X58689564Y-79810000D02*
X57235436Y-79810000D01*
%TO.C,D1*%
X52400000Y-81790000D02*
X52400000Y-81930000D01*
X54370000Y-81930000D02*
X50430000Y-81930000D01*
X50430000Y-81930000D02*
X50430000Y-91070000D01*
X50430000Y-89495000D02*
X54370000Y-89495000D01*
X50430000Y-89615000D02*
X54370000Y-89615000D01*
X50430000Y-89735000D02*
X54370000Y-89735000D01*
X54370000Y-91070000D02*
X54370000Y-81930000D01*
X50430000Y-91070000D02*
X54370000Y-91070000D01*
X52400000Y-91210000D02*
X52400000Y-91070000D01*
%TO.C,C8*%
X56602500Y-82688748D02*
X56602500Y-84111252D01*
X59322500Y-82688748D02*
X59322500Y-84111252D01*
%TO.C,C9*%
X39540000Y-82688748D02*
X39540000Y-84111252D01*
X42260000Y-82688748D02*
X42260000Y-84111252D01*
%TO.C,R23*%
X40172936Y-79810000D02*
X41627064Y-79810000D01*
X40172936Y-77990000D02*
X41627064Y-77990000D01*
%TO.C,R24*%
X41627064Y-92990000D02*
X40172936Y-92990000D01*
X41627064Y-94810000D02*
X40172936Y-94810000D01*
%TD*%
M02*
