<?xml version="1.0" encoding="UTF-8" standalone="no"?>
<svg
   width="297mm"
   height="420mm"
   viewBox="0 0 3507.8739 4960.6327"
   version="1.2"
   id="svg71"
   sodipodi:docname="B-Back-Labels.svg"
   inkscape:version="1.4 (e7c3feb1, 2024-10-09)"
   xmlns:inkscape="http://www.inkscape.org/namespaces/inkscape"
   xmlns:sodipodi="http://sodipodi.sourceforge.net/DTD/sodipodi-0.dtd"
   xmlns="http://www.w3.org/2000/svg"
   xmlns:svg="http://www.w3.org/2000/svg">
  <sodipodi:namedview
     id="namedview71"
     pagecolor="#000000"
     bordercolor="#000000"
     borderopacity="0.25"
     inkscape:showpageshadow="2"
     inkscape:pageopacity="0.0"
     inkscape:pagecheckerboard="0"
     inkscape:deskcolor="#d1d1d1"
     inkscape:document-units="mm"
     inkscape:zoom="0.52408172"
     inkscape:cx="519.00303"
     inkscape:cy="864.36901"
     inkscape:window-width="1728"
     inkscape:window-height="959"
     inkscape:window-x="0"
     inkscape:window-y="38"
     inkscape:window-maximized="0"
     inkscape:current-layer="svg71" />
  <defs
     id="defs1">
    <marker
       style="overflow:visible"
       id="Tail"
       refX="-7"
       refY="0"
       orient="auto-start-reverse"
       inkscape:stockid="Arrow tail"
       markerWidth="1"
       markerHeight="1"
       viewBox="0 0 1 1"
       inkscape:isstock="true"
       inkscape:collect="always"
       preserveAspectRatio="xMidYMid">
      <path
         style="fill:none;fill-rule:evenodd;stroke:context-stroke;stroke-width:1;stroke-linecap:round"
         d="M -0.33043975,-3 2.7797858,0 -0.33043975,3 M -3.3304398,-3 -0.33043975,0 -3.3304398,3 m -3.0000001,0 3.0000001,-3 -3.0000001,-3"
         sodipodi:nodetypes="ccccccccc"
         id="path10" />
    </marker>
  </defs>
  <polyline
     fill="none"
     vector-effect="none"
     points="5637.07,2212.43 5636.9,2207.79 5636.4,2203.18 5635.58,2198.62 5634.43,2194.13 5632.97,2189.73 5631.2,2185.44 5629.12,2181.3 5626.75,2177.31 5624.11,2173.5 5621.2,2169.89 5618.04,2166.49 5614.65,2163.33 5611.03,2160.42 5607.23,2157.78 5603.24,2155.41 5599.09,2153.34 5594.81,2151.56 5590.41,2150.1 5585.91,2148.95 5581.35,2148.13 5576.74,2147.63 5572.11,2147.47 5567.47,2147.63 5562.86,2148.13 5558.3,2148.95 5553.8,2150.1 5549.4,2151.56 5545.12,2153.34 5540.97,2155.41 5536.99,2157.78 5533.18,2160.42 5529.57,2163.33 5526.17,2166.49 5523.01,2169.89 5520.1,2173.5 5517.46,2177.31 5515.09,2181.3 5513.02,2185.44 5511.24,2189.73 5509.78,2194.13 5508.63,2198.62 5507.81,2203.18 5507.31,2207.79 5507.15,2212.43 5507.31,2217.06 5507.81,2221.67 5508.63,2226.24 5509.78,2230.73 5511.24,2235.13 5513.02,2239.41 5515.09,2243.56 5517.46,2247.55 5520.1,2251.36 5523.01,2254.97 5526.17,2258.36 5529.57,2261.52 5533.18,2264.43 5536.99,2267.08 5540.97,2269.44 5545.12,2271.52 5549.4,2273.29 5553.8,2274.76 5558.3,2275.9 5562.86,2276.73 5567.47,2277.22 5572.11,2277.39 5576.74,2277.22 5581.35,2276.73 5585.91,2275.9 5590.41,2274.76 5594.81,2273.29 5599.09,2271.52 5603.24,2269.44 5607.23,2267.08 5611.03,2264.43 5614.65,2261.52 5618.04,2258.36 5621.2,2254.97 5624.11,2251.36 5626.75,2247.55 5629.12,2243.56 5631.2,2239.41 5632.97,2235.13 5634.43,2230.73 5635.58,2226.24 5636.4,2221.67 5636.9,2217.06 5637.07,2212.43 "
     id="polyline3"
     style="font-style:normal;font-weight:400;font-size:12px;font-family:Arial;fill-opacity:1;fill-rule:evenodd;stroke:#8080ff;stroke-width:5;stroke-linecap:round;stroke-linejoin:bevel;stroke-opacity:1"
     transform="rotate(180,3112.8242,3042.6401)" />
  <polyline
     fill="none"
     vector-effect="none"
     points="5637.07,4043.12 5636.9,4038.49 5636.4,4033.88 5635.58,4029.31 5634.43,4024.82 5632.97,4020.42 5631.2,4016.14 5629.12,4011.99 5626.75,4008 5624.11,4004.19 5621.2,4000.58 5618.04,3997.19 5614.65,3994.03 5611.03,3991.12 5607.23,3988.47 5603.24,3986.11 5599.09,3984.03 5594.81,3982.26 5590.41,3980.79 5585.91,3979.65 5581.35,3978.82 5576.74,3978.33 5572.11,3978.16 5567.47,3978.33 5562.86,3978.82 5558.3,3979.65 5553.8,3980.79 5549.4,3982.26 5545.12,3984.03 5540.97,3986.11 5536.99,3988.47 5533.18,3991.12 5529.57,3994.03 5526.17,3997.19 5523.01,4000.58 5520.1,4004.19 5517.46,4008 5515.09,4011.99 5513.02,4016.14 5511.24,4020.42 5509.78,4024.82 5508.63,4029.31 5507.81,4033.88 5507.31,4038.49 5507.15,4043.12 5507.31,4047.76 5507.81,4052.37 5508.63,4056.93 5509.78,4061.42 5511.24,4065.82 5513.02,4070.11 5515.09,4074.25 5517.46,4078.24 5520.1,4082.05 5523.01,4085.66 5526.17,4089.06 5529.57,4092.22 5533.18,4095.13 5536.99,4097.77 5540.97,4100.14 5545.12,4102.21 5549.4,4103.99 5553.8,4105.45 5558.3,4106.6 5562.86,4107.42 5567.47,4107.92 5572.11,4108.08 5576.74,4107.92 5581.35,4107.42 5585.91,4106.6 5590.41,4105.45 5594.81,4103.99 5599.09,4102.21 5603.24,4100.14 5607.23,4097.77 5611.03,4095.13 5614.65,4092.22 5618.04,4089.06 5621.2,4085.66 5624.11,4082.05 5626.75,4078.24 5629.12,4074.25 5631.2,4070.11 5632.97,4065.82 5634.43,4061.42 5635.58,4056.93 5636.4,4052.37 5636.9,4047.76 5637.07,4043.12 "
     id="polyline4"
     style="font-style:normal;font-weight:400;font-size:12px;font-family:Arial;fill-opacity:1;fill-rule:evenodd;stroke:#8080ff;stroke-width:5;stroke-linecap:round;stroke-linejoin:bevel;stroke-opacity:1"
     transform="rotate(180,3112.8242,3042.6401)" />
  <polyline
     fill="none"
     vector-effect="none"
     points="4254,3517.54 4254.17,3514.66 4254.67,3511.82 4255.5,3509.05 4256.64,3506.4 4258.08,3503.91 4259.81,3501.59 4261.79,3499.5 4264,3497.64 4266.41,3496.06 4268.98,3494.76 4271.69,3493.78 4274.5,3493.11 4277.37,3492.78 4280.25,3492.78 4283.11,3493.11 4285.92,3493.78 4288.63,3494.76 4291.21,3496.06 4293.62,3497.64 4295.83,3499.5 4297.81,3501.59 4299.53,3503.91 4300.97,3506.4 4302.11,3509.05 4302.94,3511.82 4303.44,3514.66 4303.61,3517.54 4303.44,3520.42 4302.94,3523.26 4302.11,3526.02 4300.97,3528.67 4299.53,3531.17 4297.81,3533.48 4295.83,3535.58 4293.62,3537.43 4291.21,3539.02 4288.63,3540.31 4285.92,3541.3 4283.11,3541.96 4280.25,3542.3 4277.37,3542.3 4274.5,3541.96 4271.69,3541.3 4268.98,3540.31 4266.41,3539.02 4264,3537.43 4261.79,3535.58 4259.81,3533.48 4258.08,3531.17 4256.64,3528.67 4255.5,3526.02 4254.67,3523.26 4254.17,3520.42 4254,3517.54 "
     id="polyline5"
     style="font-style:normal;font-weight:400;font-size:12px;font-family:Arial;fill-opacity:1;fill-rule:evenodd;stroke:#8080ff;stroke-width:5;stroke-linecap:round;stroke-linejoin:bevel;stroke-opacity:1"
     transform="rotate(180,3112.8242,3042.6401)" />
  <polyline
     fill="none"
     vector-effect="none"
     points="3072.62,3523.44 3072.78,3520.25 3073.27,3517.1 3074.08,3514.01 3075.21,3511.03 3076.64,3508.17 3078.35,3505.48 3080.33,3502.97 3082.56,3500.69 3085.01,3498.64 3087.66,3496.86 3090.48,3495.36 3093.43,3494.16 3096.5,3493.27 3099.64,3492.69 3102.82,3492.45 3106.01,3492.53 3109.18,3492.94 3112.28,3493.67 3115.3,3494.72 3118.19,3496.08 3120.93,3497.72 3123.48,3499.63 3125.82,3501.8 3127.93,3504.2 3129.78,3506.8 3131.35,3509.58 3132.63,3512.5 3133.6,3515.55 3134.25,3518.67 3134.58,3521.85 3134.58,3525.04 3134.25,3528.21 3133.6,3531.34 3132.63,3534.38 3131.35,3537.3 3129.78,3540.08 3127.93,3542.68 3125.82,3545.08 3123.48,3547.25 3120.93,3549.16 3118.19,3550.81 3115.3,3552.16 3112.28,3553.21 3109.18,3553.94 3106.01,3554.35 3102.82,3554.44 3099.64,3554.19 3096.5,3553.62 3093.43,3552.72 3090.48,3551.52 3087.66,3550.02 3085.01,3548.24 3082.56,3546.19 3080.33,3543.91 3078.35,3541.41 3076.64,3538.71 3075.21,3535.86 3074.08,3532.87 3073.27,3529.78 3072.78,3526.63 3072.62,3523.44 "
     id="polyline6"
     style="font-style:normal;font-weight:400;font-size:12px;font-family:Arial;fill-opacity:1;fill-rule:evenodd;stroke:#8080ff;stroke-width:5;stroke-linecap:round;stroke-linejoin:bevel;stroke-opacity:1"
     transform="rotate(180,3112.8242,3042.6401)" />
  <polyline
     fill="none"
     vector-effect="none"
     points="4005.97,3765.57 4006.14,3762.69 4006.64,3759.85 4007.47,3757.08 4008.61,3754.43 4010.06,3751.94 4011.78,3749.62 4013.76,3747.52 4015.97,3745.67 4018.38,3744.09 4020.95,3742.79 4023.66,3741.8 4026.47,3741.14 4029.34,3740.8 4032.22,3740.8 4035.08,3741.14 4037.89,3741.8 4040.6,3742.79 4043.18,3744.09 4045.59,3745.67 4047.8,3747.52 4049.78,3749.62 4051.5,3751.94 4052.94,3754.43 4054.08,3757.08 4054.91,3759.85 4055.41,3762.69 4055.58,3765.57 4055.41,3768.45 4054.91,3771.29 4054.08,3774.05 4052.94,3776.7 4051.5,3779.2 4049.78,3781.51 4047.8,3783.61 4045.59,3785.46 4043.18,3787.05 4040.6,3788.34 4037.89,3789.33 4035.08,3789.99 4032.22,3790.33 4029.34,3790.33 4026.47,3789.99 4023.66,3789.33 4020.95,3788.34 4018.38,3787.05 4015.97,3785.46 4013.76,3783.61 4011.78,3781.51 4010.06,3779.2 4008.61,3776.7 4007.47,3774.05 4006.64,3771.29 4006.14,3768.45 4005.97,3765.57 "
     id="polyline7"
     style="font-style:normal;font-weight:400;font-size:12px;font-family:Arial;fill-opacity:1;fill-rule:evenodd;stroke:#8080ff;stroke-width:5;stroke-linecap:round;stroke-linejoin:bevel;stroke-opacity:1"
     transform="rotate(180,3112.8242,3042.6401)" />
  <polyline
     fill="none"
     vector-effect="none"
     points="5827.52,3523.44 5827.35,3520.25 5826.86,3517.1 5826.05,3514.01 5824.92,3511.03 5823.5,3508.17 5821.78,3505.48 5819.8,3502.97 5817.57,3500.69 5815.12,3498.64 5812.47,3496.86 5809.66,3495.36 5806.7,3494.16 5803.63,3493.27 5800.49,3492.69 5797.31,3492.45 5794.12,3492.53 5790.95,3492.94 5787.85,3493.67 5784.83,3494.72 5781.94,3496.08 5779.21,3497.72 5776.65,3499.63 5774.31,3501.8 5772.2,3504.2 5770.35,3506.8 5768.78,3509.58 5767.5,3512.5 5766.53,3515.55 5765.88,3518.67 5765.55,3521.85 5765.55,3525.04 5765.88,3528.21 5766.53,3531.34 5767.5,3534.38 5768.78,3537.3 5770.35,3540.08 5772.2,3542.68 5774.31,3545.08 5776.65,3547.25 5779.21,3549.16 5781.94,3550.81 5784.83,3552.16 5787.85,3553.21 5790.95,3553.94 5794.12,3554.35 5797.31,3554.44 5800.49,3554.19 5803.63,3553.62 5806.7,3552.72 5809.66,3551.52 5812.47,3550.02 5815.12,3548.24 5817.57,3546.19 5819.8,3543.91 5821.78,3541.41 5823.5,3538.71 5824.92,3535.86 5826.05,3532.87 5826.86,3529.78 5827.35,3526.63 5827.52,3523.44 "
     id="polyline8"
     style="font-style:normal;font-weight:400;font-size:12px;font-family:Arial;fill-opacity:1;fill-rule:evenodd;stroke:#8080ff;stroke-width:5;stroke-linecap:round;stroke-linejoin:bevel;stroke-opacity:1"
     transform="rotate(180,3112.8242,3042.6401)" />
  <polyline
     fill="none"
     vector-effect="none"
     points="5189.73,2027 5189.56,2023.81 5189.07,2020.65 5188.26,2017.57 5187.13,2014.58 5185.7,2011.72 5183.99,2009.03 5182.01,2006.53 5179.78,2004.24 5177.33,2002.2 5174.68,2000.42 5171.87,1998.92 5168.91,1997.71 5165.84,1996.82 5162.7,1996.25 5159.52,1996 5156.33,1996.08 5153.16,1996.49 5150.06,1997.23 5147.04,1998.28 5144.15,1999.63 5141.41,2001.27 5138.86,2003.19 5136.52,2005.36 5134.41,2007.75 5132.56,2010.36 5130.99,2013.13 5129.71,2016.06 5128.74,2019.1 5128.09,2022.22 5127.76,2025.4 5127.76,2028.59 5128.09,2031.77 5128.74,2034.89 5129.71,2037.93 5130.99,2040.86 5132.56,2043.64 5134.41,2046.24 5136.52,2048.63 5138.86,2050.8 5141.41,2052.72 5144.15,2054.36 5147.04,2055.72 5150.06,2056.76 5153.16,2057.5 5156.33,2057.91 5159.52,2057.99 5162.7,2057.74 5165.84,2057.17 5168.91,2056.28 5171.87,2055.08 5174.68,2053.58 5177.33,2051.79 5179.78,2049.75 5182.01,2047.46 5183.99,2044.96 5185.7,2042.27 5187.13,2039.41 5188.26,2036.42 5189.07,2033.34 5189.56,2030.18 5189.73,2027 "
     id="polyline9"
     style="font-style:normal;font-weight:400;font-size:12px;font-family:Arial;fill-opacity:1;fill-rule:evenodd;stroke:#8080ff;stroke-width:5;stroke-linecap:round;stroke-linejoin:bevel;stroke-opacity:1"
     transform="rotate(180,3112.8242,3042.6401)" />
  <polyline
     fill="none"
     vector-effect="none"
     points="5827.52,4586.43 5827.35,4583.24 5826.86,4580.08 5826.05,4577 5824.92,4574.01 5823.5,4571.16 5821.78,4568.46 5819.8,4565.96 5817.57,4563.67 5815.12,4561.63 5812.47,4559.85 5809.66,4558.35 5806.7,4557.14 5803.63,4556.25 5800.49,4555.68 5797.31,4555.43 5794.12,4555.51 5790.95,4555.92 5787.85,4556.66 5784.83,4557.71 5781.94,4559.06 5779.21,4560.7 5776.65,4562.62 5774.31,4564.79 5772.2,4567.18 5770.35,4569.79 5768.78,4572.56 5767.5,4575.49 5766.53,4578.53 5765.88,4581.65 5765.55,4584.83 5765.55,4588.02 5765.88,4591.2 5766.53,4594.32 5767.5,4597.36 5768.78,4600.29 5770.35,4603.07 5772.2,4605.67 5774.31,4608.06 5776.65,4610.23 5779.21,4612.15 5781.94,4613.79 5784.83,4615.15 5787.85,4616.19 5790.95,4616.93 5794.12,4617.34 5797.31,4617.42 5800.49,4617.17 5803.63,4616.6 5806.7,4615.71 5809.66,4614.51 5812.47,4613.01 5815.12,4611.22 5817.57,4609.18 5819.8,4606.89 5821.78,4604.39 5823.5,4601.7 5824.92,4598.84 5826.05,4595.85 5826.86,4592.77 5827.35,4589.61 5827.52,4586.43 "
     id="polyline10"
     style="font-style:normal;font-weight:400;font-size:12px;font-family:Arial;fill-opacity:1;fill-rule:evenodd;stroke:#8080ff;stroke-width:5;stroke-linecap:round;stroke-linejoin:bevel;stroke-opacity:1"
     transform="rotate(180,3112.8242,3042.6401)" />
  <polyline
     fill="none"
     vector-effect="none"
     points="3710.41,2027 3710.57,2023.81 3711.06,2020.65 3711.87,2017.57 3713,2014.58 3714.43,2011.72 3716.14,2009.03 3718.12,2006.53 3720.35,2004.24 3722.8,2002.2 3725.45,2000.42 3728.27,1998.92 3731.22,1997.71 3734.29,1996.82 3737.43,1996.25 3740.61,1996 3743.8,1996.08 3746.97,1996.49 3750.07,1997.23 3753.09,1998.28 3755.98,1999.63 3758.72,2001.27 3761.27,2003.19 3763.61,2005.36 3765.72,2007.75 3767.57,2010.36 3769.14,2013.13 3770.42,2016.06 3771.39,2019.1 3772.04,2022.22 3772.37,2025.4 3772.37,2028.59 3772.04,2031.77 3771.39,2034.89 3770.42,2037.93 3769.14,2040.86 3767.57,2043.64 3765.72,2046.24 3763.61,2048.63 3761.27,2050.8 3758.72,2052.72 3755.98,2054.36 3753.09,2055.72 3750.07,2056.76 3746.97,2057.5 3743.8,2057.91 3740.61,2057.99 3737.43,2057.74 3734.29,2057.17 3731.22,2056.28 3728.27,2055.08 3725.45,2053.58 3722.8,2051.79 3720.35,2049.75 3718.12,2047.46 3716.14,2044.96 3714.43,2042.27 3713,2039.41 3711.87,2036.42 3711.06,2033.34 3710.57,2030.18 3710.41,2027 "
     id="polyline11"
     style="font-style:normal;font-weight:400;font-size:12px;font-family:Arial;fill-opacity:1;fill-rule:evenodd;stroke:#8080ff;stroke-width:5;stroke-linecap:round;stroke-linejoin:bevel;stroke-opacity:1"
     transform="rotate(180,3112.8242,3042.6401)" />
  <polyline
     fill="none"
     vector-effect="none"
     points="3134.62,2460.46 3134.46,2457.27 3133.97,2454.12 3133.15,2451.03 3132.03,2448.04 3130.6,2445.19 3128.89,2442.49 3126.91,2439.99 3124.68,2437.7 3122.23,2435.66 3119.58,2433.88 3116.76,2432.38 3113.8,2431.17 3110.74,2430.28 3107.6,2429.71 3104.42,2429.46 3101.23,2429.55 3098.06,2429.96 3094.95,2430.69 3091.94,2431.74 3089.05,2433.09 3086.31,2434.73 3083.76,2436.65 3081.42,2438.82 3079.31,2441.22 3077.46,2443.82 3075.89,2446.6 3074.61,2449.52 3073.64,2452.56 3072.98,2455.69 3072.66,2458.86 3072.66,2462.05 3072.98,2465.23 3073.64,2468.35 3074.61,2471.39 3075.89,2474.32 3077.46,2477.1 3079.31,2479.7 3081.42,2482.1 3083.76,2484.26 3086.31,2486.18 3089.05,2487.82 3091.94,2489.18 3094.95,2490.23 3098.06,2490.96 3101.23,2491.37 3104.42,2491.45 3107.6,2491.2 3110.74,2490.63 3113.8,2489.74 3116.76,2488.54 3119.58,2487.04 3122.23,2485.26 3124.68,2483.21 3126.91,2480.92 3128.89,2478.42 3130.6,2475.73 3132.03,2472.87 3133.15,2469.89 3133.97,2466.8 3134.46,2463.64 3134.62,2460.46 "
     id="polyline12"
     style="font-style:normal;font-weight:400;font-size:12px;font-family:Arial;fill-opacity:1;fill-rule:evenodd;stroke:#8080ff;stroke-width:5;stroke-linecap:round;stroke-linejoin:bevel;stroke-opacity:1"
     transform="rotate(180,3112.8242,3042.6401)" />
  <polyline
     fill="none"
     vector-effect="none"
     points="3072.62,4586.43 3072.78,4583.24 3073.27,4580.08 3074.08,4577 3075.21,4574.01 3076.64,4571.16 3078.35,4568.46 3080.33,4565.96 3082.56,4563.67 3085.01,4561.63 3087.66,4559.85 3090.48,4558.35 3093.43,4557.14 3096.5,4556.25 3099.64,4555.68 3102.82,4555.43 3106.01,4555.51 3109.18,4555.92 3112.28,4556.66 3115.3,4557.71 3118.19,4559.06 3120.93,4560.7 3123.48,4562.62 3125.82,4564.79 3127.93,4567.18 3129.78,4569.79 3131.35,4572.56 3132.63,4575.49 3133.6,4578.53 3134.25,4581.65 3134.58,4584.83 3134.58,4588.02 3134.25,4591.2 3133.6,4594.32 3132.63,4597.36 3131.35,4600.29 3129.78,4603.07 3127.93,4605.67 3125.82,4608.06 3123.48,4610.23 3120.93,4612.15 3118.19,4613.79 3115.3,4615.15 3112.28,4616.19 3109.18,4616.93 3106.01,4617.34 3102.82,4617.42 3099.64,4617.17 3096.5,4616.6 3093.43,4615.71 3090.48,4614.51 3087.66,4613.01 3085.01,4611.22 3082.56,4609.18 3080.33,4606.89 3078.35,4604.39 3076.64,4601.7 3075.21,4598.84 3074.08,4595.85 3073.27,4592.77 3072.78,4589.61 3072.62,4586.43 "
     id="polyline13"
     style="font-style:normal;font-weight:400;font-size:12px;font-family:Arial;fill-opacity:1;fill-rule:evenodd;stroke:#8080ff;stroke-width:5;stroke-linecap:round;stroke-linejoin:bevel;stroke-opacity:1"
     transform="rotate(180,3112.8242,3042.6401)" />
  <polyline
     fill="none"
     vector-effect="none"
     points="4854.59,3641.55 4854.42,3635.48 4853.92,3629.43 4853.07,3623.41 4851.9,3617.45 4850.4,3611.57 4848.57,3605.77 4846.42,3600.09 4843.96,3594.54 4841.19,3589.13 4838.13,3583.89 4834.78,3578.82 4831.16,3573.94 4827.27,3569.28 4823.13,3564.84 4818.74,3560.63 4814.13,3556.68 4809.31,3552.99 4804.29,3549.57 4799.09,3546.43 4793.72,3543.59 4788.2,3541.06 4782.55,3538.83 4776.78,3536.92 4770.92,3535.34 4764.98,3534.08 4758.97,3533.15 4752.93,3532.56 4746.86,3532.31 4740.78,3532.39 4734.73,3532.82 4728.7,3533.57 4722.72,3534.67 4716.82,3536.09 4711,3537.84 4705.29,3539.9 4699.7,3542.29 4694.26,3544.98 4688.97,3547.97 4683.86,3551.24 4678.93,3554.8 4674.21,3558.62 4669.71,3562.7 4665.45,3567.03 4661.43,3571.58 4657.67,3576.36 4654.19,3581.33 4650.98,3586.49 4648.06,3591.82 4645.45,3597.3 4643.15,3602.92 4641.16,3608.66 4639.49,3614.5 4638.15,3620.42 4637.14,3626.41 4636.47,3632.45 4636.13,3638.51 4636.13,3644.59 4636.47,3650.65 4637.14,3656.69 4638.15,3662.68 4639.49,3668.6 4641.16,3674.44 4643.15,3680.18 4645.45,3685.8 4648.06,3691.29 4650.98,3696.61 4654.19,3701.77 4657.67,3706.75 4661.43,3711.52 4665.45,3716.07 4669.71,3720.4 4674.21,3724.48 4678.93,3728.3 4683.86,3731.86 4688.97,3735.14 4694.26,3738.12 4699.7,3740.81 4705.29,3743.2 4711,3745.27 4716.82,3747.01 4722.72,3748.44 4728.7,3749.53 4734.73,3750.29 4740.78,3750.71 4746.86,3750.79 4752.93,3750.54 4758.97,3749.95 4764.98,3749.02 4770.92,3747.77 4776.78,3746.18 4782.55,3744.27 4788.2,3742.04 4793.72,3739.51 4799.09,3736.67 4804.29,3733.53 4809.31,3730.12 4814.13,3726.42 4818.74,3722.47 4823.13,3718.26 4827.27,3713.82 4831.16,3709.16 4834.78,3704.28 4838.13,3699.22 4841.19,3693.97 4843.96,3688.56 4846.42,3683.01 4848.57,3677.33 4850.4,3671.53 4851.9,3665.65 4853.07,3659.69 4853.92,3653.68 4854.42,3647.62 4854.59,3641.55 "
     id="polyline14"
     style="font-style:normal;font-weight:400;font-size:12px;font-family:Arial;fill-opacity:1;fill-rule:evenodd;stroke:#8080ff;stroke-width:5;stroke-linecap:round;stroke-linejoin:bevel;stroke-opacity:1"
     transform="rotate(180,3112.8242,3042.6401)" />
  <polyline
     fill="none"
     vector-effect="none"
     points="4894.16,3765.57 4893.99,3762.69 4893.49,3759.85 4892.66,3757.08 4891.52,3754.43 4890.08,3751.94 4888.35,3749.62 4886.38,3747.52 4884.17,3745.67 4881.76,3744.09 4879.18,3742.79 4876.47,3741.8 4873.66,3741.14 4870.8,3740.8 4867.91,3740.8 4865.05,3741.14 4862.24,3741.8 4859.53,3742.79 4856.95,3744.09 4854.54,3745.67 4852.33,3747.52 4850.35,3749.62 4848.63,3751.94 4847.19,3754.43 4846.05,3757.08 4845.22,3759.85 4844.72,3762.69 4844.55,3765.57 4844.72,3768.45 4845.22,3771.29 4846.05,3774.05 4847.19,3776.7 4848.63,3779.2 4850.35,3781.51 4852.33,3783.61 4854.54,3785.46 4856.95,3787.05 4859.53,3788.34 4862.24,3789.33 4865.05,3789.99 4867.91,3790.33 4870.8,3790.33 4873.66,3789.99 4876.47,3789.33 4879.18,3788.34 4881.76,3787.05 4884.17,3785.46 4886.38,3783.61 4888.35,3781.51 4890.08,3779.2 4891.52,3776.7 4892.66,3774.05 4893.49,3771.29 4893.99,3768.45 4894.16,3765.57 "
     id="polyline15"
     style="font-style:normal;font-weight:400;font-size:12px;font-family:Arial;fill-opacity:1;fill-rule:evenodd;stroke:#8080ff;stroke-width:5;stroke-linecap:round;stroke-linejoin:bevel;stroke-opacity:1"
     transform="rotate(180,3112.8242,3042.6401)" />
  <polyline
     fill="none"
     vector-effect="none"
     points="4646.13,3765.57 4645.96,3762.69 4645.46,3759.85 4644.63,3757.08 4643.49,3754.43 4642.05,3751.94 4640.32,3749.62 4638.35,3747.52 4636.14,3745.67 4633.73,3744.09 4631.15,3742.79 4628.44,3741.8 4625.63,3741.14 4622.77,3740.8 4619.88,3740.8 4617.02,3741.14 4614.21,3741.8 4611.5,3742.79 4608.92,3744.09 4606.51,3745.67 4604.3,3747.52 4602.32,3749.62 4600.6,3751.94 4599.16,3754.43 4598.02,3757.08 4597.19,3759.85 4596.69,3762.69 4596.52,3765.57 4596.69,3768.45 4597.19,3771.29 4598.02,3774.05 4599.16,3776.7 4600.6,3779.2 4602.32,3781.51 4604.3,3783.61 4606.51,3785.46 4608.92,3787.05 4611.5,3788.34 4614.21,3789.33 4617.02,3789.99 4619.88,3790.33 4622.77,3790.33 4625.63,3789.99 4628.44,3789.33 4631.15,3788.34 4633.73,3787.05 4636.14,3785.46 4638.35,3783.61 4640.32,3781.51 4642.05,3779.2 4643.49,3776.7 4644.63,3774.05 4645.46,3771.29 4645.96,3768.45 4646.13,3765.57 "
     id="polyline16"
     style="font-style:normal;font-weight:400;font-size:12px;font-family:Arial;fill-opacity:1;fill-rule:evenodd;stroke:#8080ff;stroke-width:5;stroke-linecap:round;stroke-linejoin:bevel;stroke-opacity:1"
     transform="rotate(180,3112.8242,3042.6401)" />
  <polyline
     fill="none"
     vector-effect="none"
     points="4894.16,3517.54 4893.99,3514.66 4893.49,3511.82 4892.66,3509.05 4891.52,3506.4 4890.08,3503.91 4888.35,3501.59 4886.38,3499.5 4884.17,3497.64 4881.76,3496.06 4879.18,3494.76 4876.47,3493.78 4873.66,3493.11 4870.8,3492.78 4867.91,3492.78 4865.05,3493.11 4862.24,3493.78 4859.53,3494.76 4856.95,3496.06 4854.54,3497.64 4852.33,3499.5 4850.35,3501.59 4848.63,3503.91 4847.19,3506.4 4846.05,3509.05 4845.22,3511.82 4844.72,3514.66 4844.55,3517.54 4844.72,3520.42 4845.22,3523.26 4846.05,3526.02 4847.19,3528.67 4848.63,3531.17 4850.35,3533.48 4852.33,3535.58 4854.54,3537.43 4856.95,3539.02 4859.53,3540.31 4862.24,3541.3 4865.05,3541.96 4867.91,3542.3 4870.8,3542.3 4873.66,3541.96 4876.47,3541.3 4879.18,3540.31 4881.76,3539.02 4884.17,3537.43 4886.38,3535.58 4888.35,3533.48 4890.08,3531.17 4891.52,3528.67 4892.66,3526.02 4893.49,3523.26 4893.99,3520.42 4894.16,3517.54 "
     id="polyline17"
     style="font-style:normal;font-weight:400;font-size:12px;font-family:Arial;fill-opacity:1;fill-rule:evenodd;stroke:#8080ff;stroke-width:5;stroke-linecap:round;stroke-linejoin:bevel;stroke-opacity:1"
     transform="rotate(180,3112.8242,3042.6401)" />
  <polyline
     fill="none"
     vector-effect="none"
     points="4646.13,3517.54 4645.96,3514.66 4645.46,3511.82 4644.63,3509.05 4643.49,3506.4 4642.05,3503.91 4640.32,3501.59 4638.35,3499.5 4636.14,3497.64 4633.73,3496.06 4631.15,3494.76 4628.44,3493.78 4625.63,3493.11 4622.77,3492.78 4619.88,3492.78 4617.02,3493.11 4614.21,3493.78 4611.5,3494.76 4608.92,3496.06 4606.51,3497.64 4604.3,3499.5 4602.32,3501.59 4600.6,3503.91 4599.16,3506.4 4598.02,3509.05 4597.19,3511.82 4596.69,3514.66 4596.52,3517.54 4596.69,3520.42 4597.19,3523.26 4598.02,3526.02 4599.16,3528.67 4600.6,3531.17 4602.32,3533.48 4604.3,3535.58 4606.51,3537.43 4608.92,3539.02 4611.5,3540.31 4614.21,3541.3 4617.02,3541.96 4619.88,3542.3 4622.77,3542.3 4625.63,3541.96 4628.44,3541.3 4631.15,3540.31 4633.73,3539.02 4636.14,3537.43 4638.35,3535.58 4640.32,3533.48 4642.05,3531.17 4643.49,3528.67 4644.63,3526.02 4645.46,3523.26 4645.96,3520.42 4646.13,3517.54 "
     id="polyline18"
     style="font-style:normal;font-weight:400;font-size:12px;font-family:Arial;fill-opacity:1;fill-rule:evenodd;stroke:#8080ff;stroke-width:5;stroke-linecap:round;stroke-linejoin:bevel;stroke-opacity:1"
     transform="rotate(180,3112.8242,3042.6401)" />
  <polyline
     fill="none"
     vector-effect="none"
     points="4254,3765.57 4254.17,3762.69 4254.67,3759.85 4255.5,3757.08 4256.64,3754.43 4258.08,3751.94 4259.81,3749.62 4261.79,3747.52 4264,3745.67 4266.41,3744.09 4268.98,3742.79 4271.69,3741.8 4274.5,3741.14 4277.37,3740.8 4280.25,3740.8 4283.11,3741.14 4285.92,3741.8 4288.63,3742.79 4291.21,3744.09 4293.62,3745.67 4295.83,3747.52 4297.81,3749.62 4299.53,3751.94 4300.97,3754.43 4302.11,3757.08 4302.94,3759.85 4303.44,3762.69 4303.61,3765.57 4303.44,3768.45 4302.94,3771.29 4302.11,3774.05 4300.97,3776.7 4299.53,3779.2 4297.81,3781.51 4295.83,3783.61 4293.62,3785.46 4291.21,3787.05 4288.63,3788.34 4285.92,3789.33 4283.11,3789.99 4280.25,3790.33 4277.37,3790.33 4274.5,3789.99 4271.69,3789.33 4268.98,3788.34 4266.41,3787.05 4264,3785.46 4261.79,3783.61 4259.81,3781.51 4258.08,3779.2 4256.64,3776.7 4255.5,3774.05 4254.67,3771.29 4254.17,3768.45 4254,3765.57 "
     id="polyline19"
     style="font-style:normal;font-weight:400;font-size:12px;font-family:Arial;fill-opacity:1;fill-rule:evenodd;stroke:#8080ff;stroke-width:5;stroke-linecap:round;stroke-linejoin:bevel;stroke-opacity:1"
     transform="rotate(180,3112.8242,3042.6401)" />
  <polyline
     fill="none"
     vector-effect="none"
     points="4045.54,3641.55 4045.71,3635.48 4046.22,3629.43 4047.06,3623.41 4048.23,3617.45 4049.74,3611.57 4051.57,3605.77 4053.71,3600.09 4056.17,3594.54 4058.94,3589.13 4062,3583.89 4065.35,3578.82 4068.97,3573.94 4072.86,3569.28 4077.01,3564.84 4081.39,3560.63 4086,3556.68 4090.82,3552.99 4095.84,3549.57 4101.05,3546.43 4106.42,3543.59 4111.93,3541.06 4117.58,3538.83 4123.35,3536.92 4129.21,3535.34 4135.16,3534.08 4141.16,3533.15 4147.21,3532.56 4153.27,3532.31 4159.35,3532.39 4165.41,3532.82 4171.43,3533.57 4177.41,3534.67 4183.31,3536.09 4189.13,3537.84 4194.84,3539.9 4200.43,3542.29 4205.87,3544.98 4211.16,3547.97 4216.28,3551.24 4221.2,3554.8 4225.92,3558.62 4230.42,3562.7 4234.68,3567.03 4238.7,3571.58 4242.46,3576.36 4245.95,3581.33 4249.15,3586.49 4252.07,3591.82 4254.68,3597.3 4256.99,3602.92 4258.97,3608.66 4260.64,3614.5 4261.98,3620.42 4262.99,3626.41 4263.66,3632.45 4264,3638.51 4264,3644.59 4263.66,3650.65 4262.99,3656.69 4261.98,3662.68 4260.64,3668.6 4258.97,3674.44 4256.99,3680.18 4254.68,3685.8 4252.07,3691.29 4249.15,3696.61 4245.95,3701.77 4242.46,3706.75 4238.7,3711.52 4234.68,3716.07 4230.42,3720.4 4225.92,3724.48 4221.2,3728.3 4216.28,3731.86 4211.16,3735.14 4205.87,3738.12 4200.43,3740.81 4194.84,3743.2 4189.13,3745.27 4183.31,3747.01 4177.41,3748.44 4171.43,3749.53 4165.41,3750.29 4159.35,3750.71 4153.27,3750.79 4147.21,3750.54 4141.16,3749.95 4135.16,3749.02 4129.21,3747.77 4123.35,3746.18 4117.58,3744.27 4111.93,3742.04 4106.42,3739.51 4101.05,3736.67 4095.84,3733.53 4090.82,3730.12 4086,3726.42 4081.39,3722.47 4077.01,3718.26 4072.86,3713.82 4068.97,3709.16 4065.35,3704.28 4062,3699.22 4058.94,3693.97 4056.17,3688.56 4053.71,3683.01 4051.57,3677.33 4049.74,3671.53 4048.23,3665.65 4047.06,3659.69 4046.22,3653.68 4045.71,3647.62 4045.54,3641.55 "
     id="polyline20"
     style="font-style:normal;font-weight:400;font-size:12px;font-family:Arial;fill-opacity:1;fill-rule:evenodd;stroke:#8080ff;stroke-width:5;stroke-linecap:round;stroke-linejoin:bevel;stroke-opacity:1"
     transform="rotate(180,3112.8242,3042.6401)" />
  <polyline
     fill="none"
     vector-effect="none"
     points="3263.07,4043.12 3263.23,4038.49 3263.73,4033.88 3264.55,4029.31 3265.7,4024.82 3267.16,4020.42 3268.94,4016.14 3271.01,4011.99 3273.38,4008 3276.02,4004.19 3278.93,4000.58 3282.09,3997.19 3285.49,3994.03 3289.1,3991.12 3292.91,3988.47 3296.89,3986.11 3301.04,3984.03 3305.33,3982.26 3309.73,3980.79 3314.22,3979.65 3318.78,3978.82 3323.39,3978.33 3328.03,3978.16 3332.66,3978.33 3337.27,3978.82 3341.83,3979.65 3346.33,3980.79 3350.73,3982.26 3355.01,3984.03 3359.16,3986.11 3363.15,3988.47 3366.96,3991.12 3370.57,3994.03 3373.96,3997.19 3377.12,4000.58 3380.03,4004.19 3382.67,4008 3385.04,4011.99 3387.12,4016.14 3388.89,4020.42 3390.36,4024.82 3391.5,4029.31 3392.33,4033.88 3392.82,4038.49 3392.99,4043.12 3392.82,4047.76 3392.33,4052.37 3391.5,4056.93 3390.36,4061.42 3388.89,4065.82 3387.12,4070.11 3385.04,4074.25 3382.67,4078.24 3380.03,4082.05 3377.12,4085.66 3373.96,4089.06 3370.57,4092.22 3366.96,4095.13 3363.15,4097.77 3359.16,4100.14 3355.01,4102.21 3350.73,4103.99 3346.33,4105.45 3341.83,4106.6 3337.27,4107.42 3332.66,4107.92 3328.03,4108.08 3323.39,4107.92 3318.78,4107.42 3314.22,4106.6 3309.73,4105.45 3305.33,4103.99 3301.04,4102.21 3296.89,4100.14 3292.91,4097.77 3289.1,4095.13 3285.49,4092.22 3282.09,4089.06 3278.93,4085.66 3276.02,4082.05 3273.38,4078.24 3271.01,4074.25 3268.94,4070.11 3267.16,4065.82 3265.7,4061.42 3264.55,4056.93 3263.73,4052.37 3263.23,4047.76 3263.07,4043.12 "
     id="polyline21"
     style="font-style:normal;font-weight:400;font-size:12px;font-family:Arial;fill-opacity:1;fill-rule:evenodd;stroke:#8080ff;stroke-width:5;stroke-linecap:round;stroke-linejoin:bevel;stroke-opacity:1"
     transform="rotate(180,3112.8242,3042.6401)" />
  <polyline
     fill="none"
     vector-effect="none"
     points="3794.56,4940.75 3794.72,4936.12 3795.22,4931.51 3796.04,4926.95 3797.19,4922.45 3798.65,4918.05 3800.43,4913.77 3802.5,4909.62 3804.87,4905.63 3807.52,4901.83 3810.43,4898.21 3813.59,4894.82 3816.98,4891.66 3820.59,4888.75 3824.4,4886.11 3828.39,4883.74 3832.53,4881.66 3836.82,4879.89 3841.22,4878.43 3845.71,4877.28 3850.27,4876.46 3854.88,4875.96 3859.52,4875.79 3864.15,4875.96 3868.76,4876.46 3873.33,4877.28 3877.82,4878.43 3882.22,4879.89 3886.5,4881.66 3890.65,4883.74 3894.64,4886.11 3898.45,4888.75 3902.06,4891.66 3905.45,4894.82 3908.61,4898.21 3911.52,4901.83 3914.17,4905.63 3916.53,4909.62 3918.61,4913.77 3920.38,4918.05 3921.85,4922.45 3922.99,4926.95 3923.82,4931.51 3924.31,4936.12 3924.48,4940.75 3924.31,4945.39 3923.82,4950 3922.99,4954.56 3921.85,4959.06 3920.38,4963.46 3918.61,4967.74 3916.53,4971.89 3914.17,4975.87 3911.52,4979.68 3908.61,4983.29 3905.45,4986.69 3902.06,4989.85 3898.45,4992.76 3894.64,4995.4 3890.65,4997.77 3886.5,4999.84 3882.22,5001.62 3877.82,5003.08 3873.33,5004.23 3868.76,5005.05 3864.15,5005.55 3859.52,5005.71 3854.88,5005.55 3850.27,5005.05 3845.71,5004.23 3841.22,5003.08 3836.82,5001.62 3832.53,4999.84 3828.39,4997.77 3824.4,4995.4 3820.59,4992.76 3816.98,4989.85 3813.59,4986.69 3810.43,4983.29 3807.52,4979.68 3804.87,4975.87 3802.5,4971.89 3800.43,4967.74 3798.65,4963.46 3797.19,4959.06 3796.04,4954.56 3795.22,4950 3794.72,4945.39 3794.56,4940.75 "
     id="polyline22"
     style="font-style:normal;font-weight:400;font-size:12px;font-family:Arial;fill-opacity:1;fill-rule:evenodd;stroke:#8080ff;stroke-width:5;stroke-linecap:round;stroke-linejoin:bevel;stroke-opacity:1"
     transform="rotate(180,3112.8242,3042.6401)" />
  <polyline
     fill="none"
     vector-effect="none"
     points="5105.57,4940.75 5105.41,4936.12 5104.91,4931.51 5104.09,4926.95 5102.94,4922.45 5101.48,4918.05 5099.7,4913.77 5097.63,4909.62 5095.26,4905.63 5092.62,4901.83 5089.71,4898.21 5086.55,4894.82 5083.15,4891.66 5079.54,4888.75 5075.73,4886.11 5071.74,4883.74 5067.6,4881.66 5063.31,4879.89 5058.91,4878.43 5054.42,4877.28 5049.86,4876.46 5045.25,4875.96 5040.61,4875.79 5035.98,4875.96 5031.37,4876.46 5026.8,4877.28 5022.31,4878.43 5017.91,4879.89 5013.63,4881.66 5009.48,4883.74 5005.49,4886.11 5001.68,4888.75 4998.07,4891.66 4994.68,4894.82 4991.52,4898.21 4988.61,4901.83 4985.96,4905.63 4983.6,4909.62 4981.52,4913.77 4979.75,4918.05 4978.28,4922.45 4977.14,4926.95 4976.31,4931.51 4975.82,4936.12 4975.65,4940.75 4975.82,4945.39 4976.31,4950 4977.14,4954.56 4978.28,4959.06 4979.75,4963.46 4981.52,4967.74 4983.6,4971.89 4985.96,4975.87 4988.61,4979.68 4991.52,4983.29 4994.68,4986.69 4998.07,4989.85 5001.68,4992.76 5005.49,4995.4 5009.48,4997.77 5013.63,4999.84 5017.91,5001.62 5022.31,5003.08 5026.8,5004.23 5031.37,5005.05 5035.98,5005.55 5040.61,5005.71 5045.25,5005.55 5049.86,5005.05 5054.42,5004.23 5058.91,5003.08 5063.31,5001.62 5067.6,4999.84 5071.74,4997.77 5075.73,4995.4 5079.54,4992.76 5083.15,4989.85 5086.55,4986.69 5089.71,4983.29 5092.62,4979.68 5095.26,4975.87 5097.63,4971.89 5099.7,4967.74 5101.48,4963.46 5102.94,4959.06 5104.09,4954.56 5104.91,4950 5105.41,4945.39 5105.57,4940.75 "
     id="polyline23"
     style="font-style:normal;font-weight:400;font-size:12px;font-family:Arial;fill-opacity:1;fill-rule:evenodd;stroke:#8080ff;stroke-width:5;stroke-linecap:round;stroke-linejoin:bevel;stroke-opacity:1"
     transform="rotate(180,3112.8242,3042.6401)" />
  <polyline
     fill="none"
     vector-effect="none"
     points="4520.93,4043.12 4520.76,4038.23 4520.26,4033.37 4519.42,4028.55 4518.25,4023.8 4516.75,4019.14 4514.94,4014.6 4512.81,4010.19 4510.39,4005.94 4507.68,4001.87 4504.7,3997.99 4501.46,3994.33 4497.97,3990.9 4494.25,3987.72 4490.32,3984.8 4486.2,3982.16 4481.91,3979.82 4477.47,3977.77 4472.89,3976.03 4468.21,3974.62 4463.44,3973.53 4458.61,3972.77 4453.73,3972.35 4448.84,3972.27 4443.96,3972.52 4439.1,3973.11 4434.3,3974.03 4429.57,3975.29 4424.94,3976.86 4420.43,3978.75 4416.05,3980.95 4411.85,3983.45 4407.82,3986.23 4404,3989.28 4400.39,3992.58 4397.02,3996.13 4393.91,3999.9 4391.06,4003.88 4388.49,4008.04 4386.22,4012.38 4384.25,4016.85 4382.59,4021.46 4381.26,4026.16 4380.25,4030.95 4379.58,4035.8 4379.24,4040.68 4379.24,4045.57 4379.58,4050.45 4380.25,4055.29 4381.26,4060.08 4382.59,4064.79 4384.25,4069.39 4386.22,4073.87 4388.49,4078.2 4391.06,4082.37 4393.91,4086.34 4397.02,4090.12 4400.39,4093.66 4404,4096.97 4407.82,4100.02 4411.85,4102.8 4416.05,4105.29 4420.43,4107.49 4424.94,4109.38 4429.57,4110.96 4434.3,4112.21 4439.1,4113.14 4443.96,4113.72 4448.84,4113.98 4453.73,4113.89 4458.61,4113.47 4463.44,4112.71 4468.21,4111.63 4472.89,4110.21 4477.47,4108.48 4481.91,4106.43 4486.2,4104.08 4490.32,4101.44 4494.25,4098.53 4497.97,4095.35 4501.46,4091.92 4504.7,4088.26 4507.68,4084.38 4510.39,4080.31 4512.81,4076.06 4514.94,4071.65 4516.75,4067.1 4518.25,4062.45 4519.42,4057.7 4520.26,4052.88 4520.76,4048.01 4520.93,4043.12 "
     id="polyline24"
     style="font-style:normal;font-weight:400;font-size:12px;font-family:Arial;fill-opacity:1;fill-rule:evenodd;stroke:#8080ff;stroke-width:5;stroke-linecap:round;stroke-linejoin:bevel;stroke-opacity:1"
     transform="rotate(180,3112.8242,3042.6401)" />
  <polyline
     fill="none"
     vector-effect="none"
     points="3434.92,2733.29 3434.75,2730.31 3434.25,2727.38 3433.42,2724.51 3432.28,2721.76 3430.84,2719.15 3429.12,2716.72 3427.13,2714.5 3424.91,2712.51 3422.48,2710.79 3419.87,2709.35 3417.12,2708.21 3414.25,2707.38 3411.32,2706.88 3408.34,2706.72 3405.37,2706.88 3402.43,2707.38 3399.56,2708.21 3396.81,2709.35 3394.2,2710.79 3391.77,2712.51 3389.55,2714.5 3387.56,2716.72 3385.84,2719.15 3384.4,2721.76 3383.26,2724.51 3382.43,2727.38 3381.93,2730.31 3381.77,2733.29 3381.93,2736.27 3382.43,2739.2 3383.26,2742.07 3384.4,2744.82 3385.84,2747.43 3387.56,2749.86 3389.55,2752.08 3391.77,2754.07 3394.2,2755.79 3396.81,2757.23 3399.56,2758.37 3402.43,2759.2 3405.37,2759.7 3408.34,2759.86 3411.32,2759.7 3414.25,2759.2 3417.12,2758.37 3419.87,2757.23 3422.48,2755.79 3424.91,2754.07 3427.13,2752.08 3429.12,2749.86 3430.84,2747.43 3432.28,2744.82 3433.42,2742.07 3434.25,2739.2 3434.75,2736.27 3434.92,2733.29 "
     id="polyline25"
     style="font-style:normal;font-weight:400;font-size:12px;font-family:Arial;fill-opacity:1;fill-rule:evenodd;stroke:#8080ff;stroke-width:5;stroke-linecap:round;stroke-linejoin:bevel;stroke-opacity:1"
     transform="rotate(180,3112.8242,3042.6401)" />
  <polyline
     fill="none"
     vector-effect="none"
     points="3746.72,3405.33 3746.56,3402.36 3746.06,3399.42 3745.23,3396.56 3744.09,3393.8 3742.65,3391.19 3740.93,3388.76 3738.94,3386.54 3736.72,3384.56 3734.29,3382.83 3731.68,3381.39 3728.93,3380.25 3726.06,3379.42 3723.13,3378.92 3720.15,3378.76 3717.17,3378.92 3714.24,3379.42 3711.37,3380.25 3708.62,3381.39 3706.01,3382.83 3703.58,3384.56 3701.36,3386.54 3699.37,3388.76 3697.65,3391.19 3696.21,3393.8 3695.07,3396.56 3694.24,3399.42 3693.74,3402.36 3693.58,3405.33 3693.74,3408.31 3694.24,3411.25 3695.07,3414.11 3696.21,3416.86 3697.65,3419.47 3699.37,3421.9 3701.36,3424.12 3703.58,3426.11 3706.01,3427.83 3708.62,3429.28 3711.37,3430.42 3714.24,3431.24 3717.17,3431.74 3720.15,3431.91 3723.13,3431.74 3726.06,3431.24 3728.93,3430.42 3731.68,3429.28 3734.29,3427.83 3736.72,3426.11 3738.94,3424.12 3740.93,3421.9 3742.65,3419.47 3744.09,3416.86 3745.23,3414.11 3746.06,3411.25 3746.56,3408.31 3746.72,3405.33 "
     id="polyline26"
     style="font-style:normal;font-weight:400;font-size:12px;font-family:Arial;fill-opacity:1;fill-rule:evenodd;stroke:#8080ff;stroke-width:5;stroke-linecap:round;stroke-linejoin:bevel;stroke-opacity:1"
     transform="rotate(180,3112.8242,3042.6401)" />
  <polyline
     fill="none"
     vector-effect="none"
     points="5206.56,2733.29 5206.39,2730.31 5205.89,2727.38 5205.07,2724.51 5203.92,2721.76 5202.48,2719.15 5200.76,2716.72 5198.77,2714.5 5196.55,2712.51 5194.12,2710.79 5191.51,2709.35 5188.76,2708.21 5185.9,2707.38 5182.96,2706.88 5179.98,2706.72 5177.01,2706.88 5174.07,2707.38 5171.2,2708.21 5168.45,2709.35 5165.84,2710.79 5163.41,2712.51 5161.19,2714.5 5159.21,2716.72 5157.48,2719.15 5156.04,2721.76 5154.9,2724.51 5154.07,2727.38 5153.57,2730.31 5153.41,2733.29 5153.57,2736.27 5154.07,2739.2 5154.9,2742.07 5156.04,2744.82 5157.48,2747.43 5159.21,2749.86 5161.19,2752.08 5163.41,2754.07 5165.84,2755.79 5168.45,2757.23 5171.2,2758.37 5174.07,2759.2 5177.01,2759.7 5179.98,2759.86 5182.96,2759.7 5185.9,2759.2 5188.76,2758.37 5191.51,2757.23 5194.12,2755.79 5196.55,2754.07 5198.77,2752.08 5200.76,2749.86 5202.48,2747.43 5203.92,2744.82 5205.07,2742.07 5205.89,2739.2 5206.39,2736.27 5206.56,2733.29 "
     id="polyline27"
     style="font-style:normal;font-weight:400;font-size:12px;font-family:Arial;fill-opacity:1;fill-rule:evenodd;stroke:#8080ff;stroke-width:5;stroke-linecap:round;stroke-linejoin:bevel;stroke-opacity:1"
     transform="rotate(180,3112.8242,3042.6401)" />
  <polyline
     fill="none"
     vector-effect="none"
     points="5518.37,3405.33 5518.2,3402.36 5517.7,3399.42 5516.87,3396.56 5515.73,3393.8 5514.29,3391.19 5512.57,3388.76 5510.58,3386.54 5508.36,3384.56 5505.93,3382.83 5503.32,3381.39 5500.57,3380.25 5497.7,3379.42 5494.77,3378.92 5491.79,3378.76 5488.82,3378.92 5485.88,3379.42 5483.01,3380.25 5480.26,3381.39 5477.65,3382.83 5475.22,3384.56 5473,3386.54 5471.01,3388.76 5469.29,3391.19 5467.85,3393.8 5466.71,3396.56 5465.88,3399.42 5465.38,3402.36 5465.22,3405.33 5465.38,3408.31 5465.88,3411.25 5466.71,3414.11 5467.85,3416.86 5469.29,3419.47 5471.01,3421.9 5473,3424.12 5475.22,3426.11 5477.65,3427.83 5480.26,3429.28 5483.01,3430.42 5485.88,3431.24 5488.82,3431.74 5491.79,3431.91 5494.77,3431.74 5497.7,3431.24 5500.57,3430.42 5503.32,3429.28 5505.93,3427.83 5508.36,3426.11 5510.58,3424.12 5512.57,3421.9 5514.29,3419.47 5515.73,3416.86 5516.87,3414.11 5517.7,3411.25 5518.2,3408.31 5518.37,3405.33 "
     id="polyline28"
     style="font-style:normal;font-weight:400;font-size:12px;font-family:Arial;fill-opacity:1;fill-rule:evenodd;stroke:#8080ff;stroke-width:5;stroke-linecap:round;stroke-linejoin:bevel;stroke-opacity:1"
     transform="rotate(180,3112.8242,3042.6401)" />
  <polyline
     fill="none"
     vector-effect="none"
     points="3263.07,2212.43 3263.23,2207.79 3263.73,2203.18 3264.55,2198.62 3265.7,2194.13 3267.16,2189.73 3268.94,2185.44 3271.01,2181.3 3273.38,2177.31 3276.02,2173.5 3278.93,2169.89 3282.09,2166.49 3285.49,2163.33 3289.1,2160.42 3292.91,2157.78 3296.89,2155.41 3301.04,2153.34 3305.33,2151.56 3309.73,2150.1 3314.22,2148.95 3318.78,2148.13 3323.39,2147.63 3328.03,2147.47 3332.66,2147.63 3337.27,2148.13 3341.83,2148.95 3346.33,2150.1 3350.73,2151.56 3355.01,2153.34 3359.16,2155.41 3363.15,2157.78 3366.96,2160.42 3370.57,2163.33 3373.96,2166.49 3377.12,2169.89 3380.03,2173.5 3382.67,2177.31 3385.04,2181.3 3387.12,2185.44 3388.89,2189.73 3390.36,2194.13 3391.5,2198.62 3392.33,2203.18 3392.82,2207.79 3392.99,2212.43 3392.82,2217.06 3392.33,2221.67 3391.5,2226.24 3390.36,2230.73 3388.89,2235.13 3387.12,2239.41 3385.04,2243.56 3382.67,2247.55 3380.03,2251.36 3377.12,2254.97 3373.96,2258.36 3370.57,2261.52 3366.96,2264.43 3363.15,2267.08 3359.16,2269.44 3355.01,2271.52 3350.73,2273.29 3346.33,2274.76 3341.83,2275.9 3337.27,2276.73 3332.66,2277.22 3328.03,2277.39 3323.39,2277.22 3318.78,2276.73 3314.22,2275.9 3309.73,2274.76 3305.33,2273.29 3301.04,2271.52 3296.89,2269.44 3292.91,2267.08 3289.1,2264.43 3285.49,2261.52 3282.09,2258.36 3278.93,2254.97 3276.02,2251.36 3273.38,2247.55 3271.01,2243.56 3268.94,2239.41 3267.16,2235.13 3265.7,2230.73 3264.55,2226.24 3263.73,2221.67 3263.23,2217.06 3263.07,2212.43 "
     id="polyline29"
     style="font-style:normal;font-weight:400;font-size:12px;font-family:Arial;fill-opacity:1;fill-rule:evenodd;stroke:#8080ff;stroke-width:5;stroke-linecap:round;stroke-linejoin:bevel;stroke-opacity:1"
     transform="rotate(180,3112.8242,3042.6401)" />
  <polyline
     fill="none"
     vector-effect="none"
     points="4005.97,3517.54 4006.14,3514.66 4006.64,3511.82 4007.47,3509.05 4008.61,3506.4 4010.06,3503.91 4011.78,3501.59 4013.76,3499.5 4015.97,3497.64 4018.38,3496.06 4020.95,3494.76 4023.66,3493.78 4026.47,3493.11 4029.34,3492.78 4032.22,3492.78 4035.08,3493.11 4037.89,3493.78 4040.6,3494.76 4043.18,3496.06 4045.59,3497.64 4047.8,3499.5 4049.78,3501.59 4051.5,3503.91 4052.94,3506.4 4054.08,3509.05 4054.91,3511.82 4055.41,3514.66 4055.58,3517.54 4055.41,3520.42 4054.91,3523.26 4054.08,3526.02 4052.94,3528.67 4051.5,3531.17 4049.78,3533.48 4047.8,3535.58 4045.59,3537.43 4043.18,3539.02 4040.6,3540.31 4037.89,3541.3 4035.08,3541.96 4032.22,3542.3 4029.34,3542.3 4026.47,3541.96 4023.66,3541.3 4020.95,3540.31 4018.38,3539.02 4015.97,3537.43 4013.76,3535.58 4011.78,3533.48 4010.06,3531.17 4008.61,3528.67 4007.47,3526.02 4006.64,3523.26 4006.14,3520.42 4005.97,3517.54 "
     id="polyline30"
     style="font-style:normal;font-weight:400;font-size:12px;font-family:Arial;fill-opacity:1;fill-rule:evenodd;stroke:#8080ff;stroke-width:5;stroke-linecap:round;stroke-linejoin:bevel;stroke-opacity:1"
     transform="rotate(180,3112.8242,3042.6401)" />
  <polyline
     fill="none"
     vector-effect="none"
     points="5765.51,2460.46 5765.67,2457.27 5766.16,2454.12 5766.98,2451.03 5768.1,2448.04 5769.53,2445.19 5771.24,2442.49 5773.23,2439.99 5775.45,2437.7 5777.9,2435.66 5780.55,2433.88 5783.37,2432.38 5786.33,2431.17 5789.39,2430.28 5792.53,2429.71 5795.71,2429.46 5798.91,2429.55 5802.07,2429.96 5805.18,2430.69 5808.19,2431.74 5811.08,2433.09 5813.82,2434.73 5816.37,2436.65 5818.72,2438.82 5820.82,2441.22 5822.67,2443.82 5824.25,2446.6 5825.52,2449.52 5826.49,2452.56 5827.15,2455.69 5827.48,2458.86 5827.48,2462.05 5827.15,2465.23 5826.49,2468.35 5825.52,2471.39 5824.25,2474.32 5822.67,2477.1 5820.82,2479.7 5818.72,2482.1 5816.37,2484.26 5813.82,2486.18 5811.08,2487.82 5808.19,2489.18 5805.18,2490.23 5802.07,2490.96 5798.91,2491.37 5795.71,2491.45 5792.53,2491.2 5789.39,2490.63 5786.33,2489.74 5783.37,2488.54 5780.55,2487.04 5777.9,2485.26 5775.45,2483.21 5773.23,2480.92 5771.24,2478.42 5769.53,2475.73 5768.1,2472.87 5766.98,2469.89 5766.16,2466.8 5765.67,2463.64 5765.51,2460.46 "
     id="polyline31"
     style="font-style:normal;font-weight:400;font-size:12px;font-family:Arial;fill-opacity:1;fill-rule:evenodd;stroke:#8080ff;stroke-width:5;stroke-linecap:round;stroke-linejoin:bevel;stroke-opacity:1"
     transform="rotate(180,3112.8242,3042.6401)" />
  <polyline
     fill="none"
     vector-effect="none"
     points="5729.19,5129.73 5891,5129.73 "
     id="polyline32"
     style="font-style:normal;font-weight:400;font-size:12px;font-family:Arial;fill-opacity:1;fill-rule:evenodd;stroke:#8080ff;stroke-width:5;stroke-linecap:round;stroke-linejoin:bevel;stroke-opacity:1"
     transform="rotate(180,3112.8242,3042.6401)" />
  <polyline
     fill="none"
     vector-effect="none"
     points="3170.94,5129.73 3009.13,5129.73 "
     id="polyline33"
     style="font-style:normal;font-weight:400;font-size:12px;font-family:Arial;fill-opacity:1;fill-rule:evenodd;stroke:#8080ff;stroke-width:5;stroke-linecap:round;stroke-linejoin:bevel;stroke-opacity:1"
     transform="rotate(180,3112.8242,3042.6401)" />
  <polyline
     fill="none"
     vector-effect="none"
     points="5705.57,5070.67 5729.19,5070.67 "
     id="polyline34"
     style="font-style:normal;font-weight:400;font-size:12px;font-family:Arial;fill-opacity:1;fill-rule:evenodd;stroke:#8080ff;stroke-width:5;stroke-linecap:round;stroke-linejoin:bevel;stroke-opacity:1"
     transform="rotate(180,3112.8242,3042.6401)" />
  <polyline
     fill="none"
     vector-effect="none"
     points="2993.78,5114.38 2993.78,1932.51 "
     id="polyline35"
     style="font-style:normal;font-weight:400;font-size:12px;font-family:Arial;fill-opacity:1;fill-rule:evenodd;stroke:#8080ff;stroke-width:5;stroke-linecap:round;stroke-linejoin:bevel;stroke-opacity:1"
     transform="rotate(180,3112.8242,3042.6401)" />
  <polyline
     fill="none"
     vector-effect="none"
     points="3009.13,1917.15 5891,1917.15 "
     id="polyline36"
     style="font-style:normal;font-weight:400;font-size:12px;font-family:Arial;fill-opacity:1;fill-rule:evenodd;stroke:#8080ff;stroke-width:5;stroke-linecap:round;stroke-linejoin:bevel;stroke-opacity:1"
     transform="rotate(180,3112.8242,3042.6401)" />
  <polyline
     fill="none"
     vector-effect="none"
     points="5906.35,5114.38 5906.35,1932.51 "
     id="polyline37"
     style="font-style:normal;font-weight:400;font-size:12px;font-family:Arial;fill-opacity:1;fill-rule:evenodd;stroke:#8080ff;stroke-width:5;stroke-linecap:round;stroke-linejoin:bevel;stroke-opacity:1"
     transform="rotate(180,3112.8242,3042.6401)" />
  <polyline
     fill="none"
     vector-effect="none"
     points="3307.36,3308.48 3821.13,3308.48 "
     id="polyline38"
     style="font-style:normal;font-weight:400;font-size:12px;font-family:Arial;fill-opacity:1;fill-rule:evenodd;stroke:#8080ff;stroke-width:5;stroke-linecap:round;stroke-linejoin:bevel;stroke-opacity:1"
     transform="rotate(180,3112.8242,3042.6401)" />
  <polyline
     fill="none"
     vector-effect="none"
     points="3194.56,5165.16 3194.56,5134.85 "
     id="polyline39"
     style="font-style:normal;font-weight:400;font-size:12px;font-family:Arial;fill-opacity:1;fill-rule:evenodd;stroke:#8080ff;stroke-width:5;stroke-linecap:round;stroke-linejoin:bevel;stroke-opacity:1"
     transform="rotate(180,3112.8242,3042.6401)" />
  <polyline
     fill="none"
     vector-effect="none"
     points="3253.62,5224.22 5646.51,5224.22 "
     id="polyline40"
     style="font-style:normal;font-weight:400;font-size:12px;font-family:Arial;fill-opacity:1;fill-rule:evenodd;stroke:#8080ff;stroke-width:5;stroke-linecap:round;stroke-linejoin:bevel;stroke-opacity:1"
     transform="rotate(180,3112.8242,3042.6401)" />
  <polyline
     fill="none"
     vector-effect="none"
     points="3194.56,5070.67 3170.94,5070.67 "
     id="polyline41"
     style="font-style:normal;font-weight:400;font-size:12px;font-family:Arial;fill-opacity:1;fill-rule:evenodd;stroke:#8080ff;stroke-width:5;stroke-linecap:round;stroke-linejoin:bevel;stroke-opacity:1"
     transform="rotate(180,3112.8242,3042.6401)" />
  <polyline
     fill="none"
     vector-effect="none"
     points="5705.57,5165.16 5705.57,5134.85 "
     id="polyline42"
     style="font-style:normal;font-weight:400;font-size:12px;font-family:Arial;fill-opacity:1;fill-rule:evenodd;stroke:#8080ff;stroke-width:5;stroke-linecap:round;stroke-linejoin:bevel;stroke-opacity:1"
     transform="rotate(180,3112.8242,3042.6401)" />
  <polyline
     fill="none"
     vector-effect="none"
     points="3856.57,2865.57 3856.57,3273.05 "
     id="polyline43"
     style="font-style:normal;font-weight:400;font-size:12px;font-family:Arial;fill-opacity:1;fill-rule:evenodd;stroke:#8080ff;stroke-width:5;stroke-linecap:round;stroke-linejoin:bevel;stroke-opacity:1"
     transform="rotate(180,3112.8242,3042.6401)" />
  <polyline
     fill="none"
     vector-effect="none"
     points="3271.92,2865.57 3271.92,3273.05 "
     id="polyline44"
     style="font-style:normal;font-weight:400;font-size:12px;font-family:Arial;fill-opacity:1;fill-rule:evenodd;stroke:#8080ff;stroke-width:5;stroke-linecap:round;stroke-linejoin:bevel;stroke-opacity:1"
     transform="rotate(180,3112.8242,3042.6401)" />
  <polyline
     fill="none"
     vector-effect="none"
     points="3170.94,5129.73 3170.94,5070.67 "
     id="polyline45"
     style="font-style:normal;font-weight:400;font-size:12px;font-family:Arial;fill-opacity:1;fill-rule:evenodd;stroke:#8080ff;stroke-width:5;stroke-linecap:round;stroke-linejoin:bevel;stroke-opacity:1"
     transform="rotate(180,3112.8242,3042.6401)" />
  <polyline
     fill="none"
     vector-effect="none"
     points="5705.57,5134.85 5705.57,5102.56 "
     id="polyline46"
     style="font-style:normal;font-weight:400;font-size:12px;font-family:Arial;fill-opacity:1;fill-rule:evenodd;stroke:#8080ff;stroke-width:5;stroke-linecap:round;stroke-linejoin:bevel;stroke-opacity:1"
     transform="rotate(180,3112.8242,3042.6401)" />
  <polyline
     fill="none"
     vector-effect="none"
     points="5729.19,5129.73 5729.19,5070.67 "
     id="polyline47"
     style="font-style:normal;font-weight:400;font-size:12px;font-family:Arial;fill-opacity:1;fill-rule:evenodd;stroke:#8080ff;stroke-width:5;stroke-linecap:round;stroke-linejoin:bevel;stroke-opacity:1"
     transform="rotate(180,3112.8242,3042.6401)" />
  <polyline
     fill="none"
     vector-effect="none"
     points="3194.56,5102.56 3194.56,5070.67 "
     id="polyline48"
     style="font-style:normal;font-weight:400;font-size:12px;font-family:Arial;fill-opacity:1;fill-rule:evenodd;stroke:#8080ff;stroke-width:5;stroke-linecap:round;stroke-linejoin:bevel;stroke-opacity:1"
     transform="rotate(180,3112.8242,3042.6401)" />
  <polyline
     fill="none"
     vector-effect="none"
     points="5705.57,5102.56 5705.57,5070.67 "
     id="polyline49"
     style="font-style:normal;font-weight:400;font-size:12px;font-family:Arial;fill-opacity:1;fill-rule:evenodd;stroke:#8080ff;stroke-width:5;stroke-linecap:round;stroke-linejoin:bevel;stroke-opacity:1"
     transform="rotate(180,3112.8242,3042.6401)" />
  <polyline
     fill="none"
     vector-effect="none"
     points="5079,2830.14 5592.77,2830.14 "
     id="polyline50"
     style="font-style:normal;font-weight:400;font-size:12px;font-family:Arial;fill-opacity:1;fill-rule:evenodd;stroke:#8080ff;stroke-width:5;stroke-linecap:round;stroke-linejoin:bevel;stroke-opacity:1"
     transform="rotate(180,3112.8242,3042.6401)" />
  <polyline
     fill="none"
     vector-effect="none"
     points="3194.56,5134.85 3194.56,5102.56 "
     id="polyline51"
     style="font-style:normal;font-weight:400;font-size:12px;font-family:Arial;fill-opacity:1;fill-rule:evenodd;stroke:#8080ff;stroke-width:5;stroke-linecap:round;stroke-linejoin:bevel;stroke-opacity:1"
     transform="rotate(180,3112.8242,3042.6401)" />
  <polyline
     fill="none"
     vector-effect="none"
     points="3307.36,2830.14 3821.13,2830.14 "
     id="polyline52"
     style="font-style:normal;font-weight:400;font-size:12px;font-family:Arial;fill-opacity:1;fill-rule:evenodd;stroke:#8080ff;stroke-width:5;stroke-linecap:round;stroke-linejoin:bevel;stroke-opacity:1"
     transform="rotate(180,3112.8242,3042.6401)" />
  <polyline
     fill="none"
     vector-effect="none"
     points="5628.21,2865.57 5628.21,3273.05 "
     id="polyline53"
     style="font-style:normal;font-weight:400;font-size:12px;font-family:Arial;fill-opacity:1;fill-rule:evenodd;stroke:#8080ff;stroke-width:5;stroke-linecap:round;stroke-linejoin:bevel;stroke-opacity:1"
     transform="rotate(180,3112.8242,3042.6401)" />
  <polyline
     fill="none"
     vector-effect="none"
     points="5079,3308.48 5592.77,3308.48 "
     id="polyline54"
     style="font-style:normal;font-weight:400;font-size:12px;font-family:Arial;fill-opacity:1;fill-rule:evenodd;stroke:#8080ff;stroke-width:5;stroke-linecap:round;stroke-linejoin:bevel;stroke-opacity:1"
     transform="rotate(180,3112.8242,3042.6401)" />
  <polyline
     fill="none"
     vector-effect="none"
     points="5043.57,2865.57 5043.57,3273.05 "
     id="polyline55"
     style="font-style:normal;font-weight:400;font-size:12px;font-family:Arial;fill-opacity:1;fill-rule:evenodd;stroke:#8080ff;stroke-width:5;stroke-linecap:round;stroke-linejoin:bevel;stroke-opacity:1"
     transform="rotate(180,3112.8242,3042.6401)" />
  <polyline
     fill="none"
     vector-effect="none"
     points="3009.13,5129.73 3006.95,5129.57 3004.81,5129.11 3002.75,5128.34 3000.83,5127.29 2999.08,5125.98 2997.53,5124.43 2996.21,5122.68 2995.16,5120.75 2994.4,5118.7 2993.93,5116.56 2993.78,5114.38 "
     id="polyline56"
     style="font-style:normal;font-weight:400;font-size:12px;font-family:Arial;fill-opacity:1;fill-rule:evenodd;stroke:#8080ff;stroke-width:5;stroke-linecap:round;stroke-linejoin:bevel;stroke-opacity:1"
     transform="rotate(180,3112.8242,3042.6401)" />
  <polyline
     fill="none"
     vector-effect="none"
     points="5891,5129.73 5893.19,5129.57 5895.33,5129.11 5897.38,5128.34 5899.3,5127.29 5901.06,5125.98 5902.6,5124.43 5903.92,5122.68 5904.97,5120.75 5905.73,5118.7 5906.2,5116.56 5906.35,5114.38 "
     id="polyline57"
     style="font-style:normal;font-weight:400;font-size:12px;font-family:Arial;fill-opacity:1;fill-rule:evenodd;stroke:#8080ff;stroke-width:5;stroke-linecap:round;stroke-linejoin:bevel;stroke-opacity:1"
     transform="rotate(180,3112.8242,3042.6401)" />
  <polyline
     fill="none"
     vector-effect="none"
     points="2993.78,1932.51 2993.93,1930.32 2994.4,1928.18 2995.16,1926.13 2996.21,1924.21 2997.53,1922.45 2999.08,1920.9 3000.83,1919.59 3002.75,1918.54 3004.81,1917.78 3006.95,1917.31 3009.13,1917.15 "
     id="polyline58"
     style="font-style:normal;font-weight:400;font-size:12px;font-family:Arial;fill-opacity:1;fill-rule:evenodd;stroke:#8080ff;stroke-width:5;stroke-linecap:round;stroke-linejoin:bevel;stroke-opacity:1"
     transform="rotate(180,3112.8242,3042.6401)" />
  <polyline
     fill="none"
     vector-effect="none"
     points="3307.36,2830.14 3304.09,2830.29 3300.85,2830.74 3297.66,2831.49 3294.56,2832.53 3291.56,2833.85 3288.7,2835.45 3286,2837.3 3283.49,2839.39 3281.17,2841.7 3279.08,2844.22 3277.23,2846.92 3275.64,2849.78 3274.32,2852.77 3273.28,2855.88 3272.53,2859.06 3272.08,2862.3 3271.92,2865.57 "
     id="polyline59"
     style="font-style:normal;font-weight:400;font-size:12px;font-family:Arial;fill-opacity:1;fill-rule:evenodd;stroke:#8080ff;stroke-width:5;stroke-linecap:round;stroke-linejoin:bevel;stroke-opacity:1"
     transform="rotate(180,3112.8242,3042.6401)" />
  <polyline
     fill="none"
     vector-effect="none"
     points="3821.13,3308.48 3824.4,3308.33 3827.64,3307.88 3830.83,3307.13 3833.93,3306.09 3836.93,3304.77 3839.79,3303.18 3842.49,3301.33 3845,3299.23 3847.32,3296.92 3849.41,3294.4 3851.26,3291.7 3852.85,3288.84 3854.17,3285.85 3855.21,3282.75 3855.96,3279.56 3856.42,3276.32 3856.57,3273.05 "
     id="polyline60"
     style="font-style:normal;font-weight:400;font-size:12px;font-family:Arial;fill-opacity:1;fill-rule:evenodd;stroke:#8080ff;stroke-width:5;stroke-linecap:round;stroke-linejoin:bevel;stroke-opacity:1"
     transform="rotate(180,3112.8242,3042.6401)" />
  <polyline
     fill="none"
     vector-effect="none"
     points="5628.21,2865.57 5628.06,2862.3 5627.6,2859.06 5626.85,2855.88 5625.81,2852.77 5624.49,2849.78 5622.9,2846.92 5621.05,2844.22 5618.96,2841.7 5616.65,2839.39 5614.13,2837.3 5611.43,2835.45 5608.57,2833.85 5605.57,2832.53 5602.47,2831.49 5599.29,2830.74 5596.04,2830.29 5592.77,2830.14 "
     id="polyline61"
     style="font-style:normal;font-weight:400;font-size:12px;font-family:Arial;fill-opacity:1;fill-rule:evenodd;stroke:#8080ff;stroke-width:5;stroke-linecap:round;stroke-linejoin:bevel;stroke-opacity:1"
     transform="rotate(180,3112.8242,3042.6401)" />
  <polyline
     fill="none"
     vector-effect="none"
     points="5906.35,1932.51 5906.2,1930.32 5905.73,1928.18 5904.97,1926.13 5903.92,1924.21 5902.6,1922.45 5901.06,1920.9 5899.3,1919.59 5897.38,1918.54 5895.33,1917.78 5893.19,1917.31 5891,1917.15 "
     id="polyline62"
     style="font-style:normal;font-weight:400;font-size:12px;font-family:Arial;fill-opacity:1;fill-rule:evenodd;stroke:#8080ff;stroke-width:5;stroke-linecap:round;stroke-linejoin:bevel;stroke-opacity:1"
     transform="rotate(180,3112.8242,3042.6401)" />
  <polyline
     fill="none"
     vector-effect="none"
     points="3194.56,5165.16 3194.73,5169.58 3195.22,5173.96 3196.04,5178.3 3197.19,5182.57 3198.65,5186.74 3200.41,5190.79 3202.47,5194.69 3204.82,5198.43 3207.45,5201.98 3210.33,5205.33 3213.45,5208.45 3216.8,5211.33 3220.35,5213.96 3224.09,5216.31 3227.99,5218.37 3232.04,5220.13 3236.21,5221.59 3240.48,5222.74 3244.82,5223.56 3249.2,5224.05 3253.62,5224.22 "
     id="polyline63"
     style="font-style:normal;font-weight:400;font-size:12px;font-family:Arial;fill-opacity:1;fill-rule:evenodd;stroke:#8080ff;stroke-width:5;stroke-linecap:round;stroke-linejoin:bevel;stroke-opacity:1"
     transform="rotate(180,3112.8242,3042.6401)" />
  <polyline
     fill="none"
     vector-effect="none"
     points="5592.77,3308.48 5596.04,3308.33 5599.29,3307.88 5602.47,3307.13 5605.57,3306.09 5608.57,3304.77 5611.43,3303.18 5614.13,3301.33 5616.65,3299.23 5618.96,3296.92 5621.05,3294.4 5622.9,3291.7 5624.49,3288.84 5625.81,3285.85 5626.85,3282.75 5627.6,3279.56 5628.06,3276.32 5628.21,3273.05 "
     id="polyline64"
     style="font-style:normal;font-weight:400;font-size:12px;font-family:Arial;fill-opacity:1;fill-rule:evenodd;stroke:#8080ff;stroke-width:5;stroke-linecap:round;stroke-linejoin:bevel;stroke-opacity:1"
     transform="rotate(180,3112.8242,3042.6401)" />
  <polyline
     fill="none"
     vector-effect="none"
     points="5646.51,5224.22 5650.93,5224.05 5655.32,5223.56 5659.65,5222.74 5663.92,5221.59 5668.09,5220.13 5672.14,5218.37 5676.04,5216.31 5679.78,5213.96 5683.33,5211.33 5686.68,5208.45 5689.8,5205.33 5692.68,5201.98 5695.31,5198.43 5697.66,5194.69 5699.72,5190.79 5701.49,5186.74 5702.95,5182.57 5704.09,5178.3 5704.91,5173.96 5705.4,5169.58 5705.57,5165.16 "
     id="polyline65"
     style="font-style:normal;font-weight:400;font-size:12px;font-family:Arial;fill-opacity:1;fill-rule:evenodd;stroke:#8080ff;stroke-width:5;stroke-linecap:round;stroke-linejoin:bevel;stroke-opacity:1"
     transform="rotate(180,3112.8242,3042.6401)" />
  <polyline
     fill="none"
     vector-effect="none"
     points="5079,2830.14 5075.73,2830.29 5072.49,2830.74 5069.3,2831.49 5066.2,2832.53 5063.2,2833.85 5060.35,2835.45 5057.65,2837.3 5055.13,2839.39 5052.81,2841.7 5050.72,2844.22 5048.87,2846.92 5047.28,2849.78 5045.96,2852.77 5044.92,2855.88 5044.17,2859.06 5043.72,2862.3 5043.57,2865.57 "
     id="polyline66"
     style="font-style:normal;font-weight:400;font-size:12px;font-family:Arial;fill-opacity:1;fill-rule:evenodd;stroke:#8080ff;stroke-width:5;stroke-linecap:round;stroke-linejoin:bevel;stroke-opacity:1"
     transform="rotate(180,3112.8242,3042.6401)" />
  <polyline
     fill="none"
     vector-effect="none"
     points="3271.92,3273.05 3272.08,3276.32 3272.53,3279.56 3273.28,3282.75 3274.32,3285.85 3275.64,3288.84 3277.23,3291.7 3279.08,3294.4 3281.17,3296.92 3283.49,3299.23 3286,3301.33 3288.7,3303.18 3291.56,3304.77 3294.56,3306.09 3297.66,3307.13 3300.85,3307.88 3304.09,3308.33 3307.36,3308.48 "
     id="polyline67"
     style="font-style:normal;font-weight:400;font-size:12px;font-family:Arial;fill-opacity:1;fill-rule:evenodd;stroke:#8080ff;stroke-width:5;stroke-linecap:round;stroke-linejoin:bevel;stroke-opacity:1"
     transform="rotate(180,3112.8242,3042.6401)" />
  <polyline
     fill="none"
     vector-effect="none"
     points="5043.57,3273.05 5043.72,3276.32 5044.17,3279.56 5044.92,3282.75 5045.96,3285.85 5047.28,3288.84 5048.87,3291.7 5050.72,3294.4 5052.81,3296.92 5055.13,3299.23 5057.65,3301.33 5060.35,3303.18 5063.2,3304.77 5066.2,3306.09 5069.3,3307.13 5072.49,3307.88 5075.73,3308.33 5079,3308.48 "
     id="polyline68"
     style="font-style:normal;font-weight:400;font-size:12px;font-family:Arial;fill-opacity:1;fill-rule:evenodd;stroke:#8080ff;stroke-width:5;stroke-linecap:round;stroke-linejoin:bevel;stroke-opacity:1"
     transform="rotate(180,3112.8242,3042.6401)" />
  <polyline
     fill="none"
     vector-effect="none"
     points="3856.57,2865.57 3856.42,2862.3 3855.96,2859.06 3855.21,2855.88 3854.17,2852.77 3852.85,2849.78 3851.26,2846.92 3849.41,2844.22 3847.32,2841.7 3845,2839.39 3842.49,2837.3 3839.79,2835.45 3836.93,2833.85 3833.93,2832.53 3830.83,2831.49 3827.64,2830.74 3824.4,2830.29 3821.13,2830.14 "
     id="polyline69"
     style="font-style:normal;font-weight:400;font-size:12px;font-family:Arial;fill-opacity:1;fill-rule:evenodd;stroke:#8080ff;stroke-width:5;stroke-linecap:round;stroke-linejoin:bevel;stroke-opacity:1"
     transform="rotate(180,3112.8242,3042.6401)" />
  <g
     id="g3"
     transform="matrix(2.1104101,0,0,2.1104101,1475.1347,3413.9479)">
    <g
       id="g2"
       style="fill:#e05400;fill-opacity:0.992157">
      <path
         style="fill:#fffffd;fill-opacity:1;stroke:none"
         d="M 245.921,49.037 V 21.225 H 188.1 V 49.037 H 105.395 V 21.225 H 47.575 V 49.037 H 0 V 263.486 H 284.711 V 49.037 Z M 199.805,32.936 h 34.399 v 12.688 h -34.399 z m -140.526,0 H 93.678 V 45.624 H 59.279 Z M 272.995,251.781 H 11.711 V 60.748 h 261.29 v 191.033 z"
         id="path1" />
      <rect
         x="193.94901"
         y="117.11"
         style="fill:#fffffd;fill-opacity:1;stroke:none"
         width="46.110001"
         height="11.71"
         id="rect1" />
      <polygon
         style="fill:#fffffd;fill-opacity:1;stroke:none"
         points="82.337,146.015 82.337,128.821 99.539,128.821 99.539,117.11 82.337,117.11 82.337,99.908 70.626,99.908 70.626,117.11 53.424,117.11 53.424,128.821 70.626,128.821 70.626,146.015 "
         id="polygon1" />
    </g>
    <path
       style="opacity:0.99;fill:none;fill-opacity:0.992157;stroke:#fffffd;stroke-width:3.91759;stroke-miterlimit:4.1;stroke-dasharray:none;stroke-dashoffset:0;stroke-opacity:1"
       d="M 73.574198,15.645618 C 9.4420081,-245.38883 -254.23829,235.65044 -279.68321,-62.856728"
       id="path71"
       sodipodi:nodetypes="cc" />
    <path
       style="opacity:0.99;fill:none;fill-opacity:0.992157;stroke:#fffffd;stroke-width:3.91759;stroke-miterlimit:4.1;stroke-dasharray:none;stroke-dashoffset:0;stroke-opacity:1"
       d="m -274.82556,-315.65948 c -1.99781,-110.88239 130.45329,-148.71555 213.542946,-151.18269"
       id="path72"
       sodipodi:nodetypes="cc" />
    <path
       style="opacity:0.99;fill:none;fill-opacity:0.992157;stroke:#fffffd;stroke-width:3.91759;stroke-miterlimit:4.1;stroke-dasharray:none;stroke-dashoffset:0;stroke-opacity:1"
       d="M 222.03353,8.0451976 C 182.63175,-142.9947 463.16615,165.07889 647.82789,92.12589 749.44198,51.981936 760.71413,-114.12535 756.67714,-226.59864 746.0553,-522.53025 355.7443,-454.91394 354.82868,-462.3886"
       id="path73"
       sodipodi:nodetypes="cssc" />
    <path
       style="opacity:0.99;fill:none;fill-opacity:0.992157;stroke:#fffffd;stroke-width:3.91759;stroke-miterlimit:4.1;stroke-dasharray:none;stroke-dashoffset:0;stroke-opacity:1"
       d="M 80.76208,9.4578381 C 175.41394,-236.35431 496.09999,101.28435 494.68732,-62.590578"
       id="path74"
       sodipodi:nodetypes="cc" />
    <path
       style="opacity:0.99;fill:none;fill-opacity:0.992157;stroke:#fffffd;stroke-width:3.91759;stroke-miterlimit:4.1;stroke-dasharray:none;stroke-dashoffset:0;stroke-opacity:1"
       d="m 412.74994,-213.75093 c 0,0 -440.766854,73.46105 -411.0998507,-172.35111"
       id="path75"
       sodipodi:nodetypes="cc" />
  </g>
  <path
     style="opacity:0.99;fill:none;fill-opacity:0.99000001;stroke:#fffffd;stroke-width:8.26772;stroke-dasharray:24.8032, 24.8032;stroke-dashoffset:0;stroke-opacity:1;marker-end:url(#Tail)"
     d="m 1480.2882,1952.9584 c 0,-806.5889 0,-806.5889 0,-806.5889"
     id="path107"
     inkscape:label="plus-flow" />
  <path
     style="opacity:0.99;fill:none;fill-opacity:0.99000001;stroke:#fffffd;stroke-width:8.26772;stroke-dasharray:24.8032, 24.8032;stroke-dashoffset:0;stroke-opacity:1;marker-end:url(#Tail)"
     d="m 2070.8782,1952.9584 c 0,-806.5889 0,-806.5889 0,-806.5889"
     id="path107-9"
     inkscape:label="minus-flow" />
  <path
     style="opacity:0.99;fill:none;fill-opacity:0.99000001;stroke:#fffffd;stroke-width:8.26772;stroke-dasharray:24.8032, 24.8032;stroke-dashoffset:0;stroke-opacity:1;marker-end:url(#Tail)"
     d="m 1775.5632,1752.3383 c 0,-605.9688 0,-605.9688 0,-605.9688"
     id="path108"
     inkscape:label="signal-flow" />
  <path
     d="m 1409.5849,2104.7613 h 141.4064 v 33.2032 h -141.4064 z m 54.0365,-50 h 33.2032 v 133.3335 h -33.2032 z"
     id="text99"
     style="font-weight:bold;font-size:266.667px;line-height:0;font-family:'System Font';-inkscape-font-specification:'System Font Bold';opacity:0.99;fill:#fffffd;fill-opacity:1;stroke-width:4.99606;stroke-dasharray:4.99606, 9.99213, 4.99606, 19.9842;stroke:none"
     aria-label="+"
     inkscape:label="plus" />
  <path
     d="m 2028.6907,2104.8265 h 84.3751 v 33.2032 h -84.3751 z"
     id="text99-0"
     style="font-weight:bold;font-size:266.667px;line-height:0;font-family:'System Font';-inkscape-font-specification:'System Font Bold';opacity:0.99;fill:#fffffd;fill-opacity:1;stroke-width:4.99606;stroke-dasharray:4.99606, 9.99213, 4.99606, 19.9842;stroke:none"
     aria-label="-"
     inkscape:label="minus" />
  <path
     d="m 1695.8677,1910.1301 q 4.9845,0 8.8867,-1.9084 3.9022,-1.9368 6.2663,-5.3263 2.3926,-3.3895 2.7913,-7.7474 l 0.028,-0.3133 h -8.374 l -0.057,0.2848 q -0.5412,2.4495 -1.8514,4.187 -1.3102,1.709 -3.2755,2.6205 -1.9369,0.9114 -4.4149,0.9114 -3.2756,0 -5.7251,-1.6805 -2.4211,-1.709 -3.7598,-4.8421 -1.3102,-3.1616 -1.3102,-7.4911 v -0.028 q 0,-4.3009 1.3102,-7.4056 1.3387,-3.1331 3.7598,-4.8136 2.421,-1.6805 5.7251,-1.6805 2.5635,0 4.5003,0.9399 1.9653,0.9115 3.2186,2.592 1.2533,1.6805 1.7375,3.9591 l 0.1139,0.4843 h 8.374 l -0.029,-0.2564 q -0.3987,-4.3864 -2.7628,-7.7474 -2.3641,-3.3895 -6.2663,-5.3263 -3.9022,-1.9369 -8.8867,-1.9369 -6.01,0 -10.3964,2.5635 -4.3864,2.535 -6.7789,7.2917 -2.3926,4.7282 -2.3926,11.3647 v 0.029 q 0,6.6081 2.3641,11.3933 2.3926,4.7566 6.779,7.3201 4.4148,2.5635 10.4248,2.5635 z m 23.0428,-0.7121 h 8.1462 l 14.0421,-22.5586 -5.7251,3.2471 h 4.0162 v 19.3115 h 8.1746 v -30.5339 h -8.1462 l -14.0991,22.3023 5.7536,-3.2471 h -3.9876 v -19.0552 h -8.1747 z m 55.8839,-24.2676 v -6.2663 h -21.2769 v 30.5339 h 8.317 v -24.2676 z m 24.7803,24.2676 h 8.317 v -30.5339 h -8.317 v 11.7351 h -11.6781 v -11.7351 h -8.3171 v 30.5339 h 8.3171 v -12.5041 h 11.6781 z m 23.2991,0.4842 q 2.0223,0 3.7313,-0.5981 1.709,-0.6266 3.0477,-1.7375 1.3672,-1.1393 2.2217,-2.7059 h 0.1709 v 4.5573 h 8.3171 v -20.9351 q 0,-3.0761 -1.6236,-5.3833 -1.595,-2.3071 -4.5003,-3.5604 -2.9053,-1.2817 -6.8644,-1.2817 -4.0161,0 -6.9499,1.2533 -2.9053,1.2247 -4.5573,3.4179 -1.6235,2.1932 -1.8514,5.0131 l -0.029,0.3417 h 7.605 l 0.057,-0.2563 q 0.3133,-1.4811 1.6805,-2.4495 1.3672,-0.9685 3.7028,-0.9685 2.4495,0 3.7313,1.1963 1.2817,1.1678 1.2817,3.1901 v 9.257 q 0,1.5951 -0.8545,2.8768 -0.826,1.2533 -2.3071,1.9938 -1.4527,0.7121 -3.3041,0.7121 -2.1647,0 -3.4464,-0.9399 -1.2818,-0.9684 -1.2818,-2.6489 v -0.057 q 0,-1.6236 1.2533,-2.592 1.2533,-0.9969 3.6458,-1.1393 l 10.6527,-0.6836 v -5.1839 l -11.9059,0.7405 q -3.7883,0.2564 -6.4372,1.3957 -2.6489,1.1393 -4.0446,3.1332 -1.3957,1.9653 -1.3957,4.7566 v 0.057 q 0,2.6774 1.2818,4.7852 1.3102,2.0792 3.6173,3.2755 2.3071,1.1678 5.3548,1.1678 z m 34.607,-14.6403 0.6266,-10.083 h 8.4025 v 24.2391 h 8.3171 v -30.5339 h -23.8688 l -0.9115,15.6942 q -0.1424,2.7344 -0.5981,4.5003 -0.4273,1.766 -1.3103,2.6205 -0.8829,0.826 -2.3641,0.826 -0.5696,0 -0.9969,-0.057 -0.4272,-0.057 -0.6836,-0.1139 v 6.9784 q 0.3703,0.1139 1.1678,0.2278 0.7976,0.1424 1.9369,0.1424 3.7598,0 5.896,-1.7659 2.1362,-1.766 3.1331,-5.013 0.997,-3.2471 1.2533,-7.662 z"
     id="text100-4-2"
     style="font-weight:bold;font-size:58.3334px;line-height:0;font-family:'System Font';-inkscape-font-specification:'System Font Bold';opacity:0.99;fill:#fffffd;fill-opacity:1;stroke-width:4.99606;stroke-dasharray:4.99606, 9.99213, 4.99606, 19.9842;stroke:none"
     aria-label=""
     inkscape:label="signal" />
</svg>
