<?xml version="1.0" encoding="UTF-8" standalone="no"?>
<svg
   width="297mm"
   height="420mm"
   viewBox="0 0 3507.8739 4960.6327"
   version="1.2"
   id="svg47"
   sodipodi:docname="B-Front-Labels.svg"
   inkscape:version="1.4 (e7c3feb1, 2024-10-09)"
   xmlns:inkscape="http://www.inkscape.org/namespaces/inkscape"
   xmlns:sodipodi="http://sodipodi.sourceforge.net/DTD/sodipodi-0.dtd"
   xmlns="http://www.w3.org/2000/svg"
   xmlns:svg="http://www.w3.org/2000/svg">
  <sodipodi:namedview
     id="namedview47"
     pagecolor="#000000"
     bordercolor="#000000"
     borderopacity="0.25"
     inkscape:showpageshadow="2"
     inkscape:pageopacity="0.0"
     inkscape:pagecheckerboard="0"
     inkscape:deskcolor="#d1d1d1"
     inkscape:document-units="mm"
     inkscape:zoom="0.52408172"
     inkscape:cx="553.34882"
     inkscape:cy="673.55908"
     inkscape:window-width="1728"
     inkscape:window-height="959"
     inkscape:window-x="0"
     inkscape:window-y="38"
     inkscape:window-maximized="0"
     inkscape:current-layer="svg47" />
  <defs
     id="defs1" />
  <polyline
     fill="none"
     vector-effect="none"
     points="5817.31,3508.13 5817.15,3504.94 5816.65,3501.79 5815.84,3498.7 5814.71,3495.71 5813.29,3492.86 5811.57,3490.17 5809.59,3487.66 5807.37,3485.38 5804.91,3483.33 5802.27,3481.55 5799.45,3480.05 5796.49,3478.85 5793.43,3477.96 5790.29,3477.38 5787.1,3477.14 5783.91,3477.22 5780.75,3477.63 5777.64,3478.36 5774.63,3479.41 5771.73,3480.76 5769,3482.41 5766.44,3484.32 5764.1,3486.49 5762,3488.89 5760.15,3491.49 5758.57,3494.27 5757.29,3497.19 5756.32,3500.23 5755.67,3503.36 5755.34,3506.53 5755.34,3509.73 5755.67,3512.9 5756.32,3516.03 5757.29,3519.07 5758.57,3521.99 5760.15,3524.77 5762,3527.37 5764.1,3529.77 5766.44,3531.94 5769,3533.85 5771.73,3535.5 5774.63,3536.85 5777.64,3537.9 5780.75,3538.63 5783.91,3539.04 5787.1,3539.12 5790.29,3538.88 5793.43,3538.31 5796.49,3537.41 5799.45,3536.21 5802.27,3534.71 5804.91,3532.93 5807.37,3530.88 5809.59,3528.6 5811.57,3526.09 5813.29,3523.4 5814.71,3520.55 5815.84,3517.56 5816.65,3514.47 5817.15,3511.32 5817.31,3508.13 "
     id="polyline3"
     transform="rotate(180,3094.4429,2985.1732)"
     style="font-style:normal;font-weight:400;font-size:12px;font-family:Arial;fill-opacity:1;fill-rule:evenodd;stroke:#8080ff;stroke-width:5;stroke-linecap:round;stroke-linejoin:bevel;stroke-opacity:1" />
  <polyline
     fill="none"
     vector-effect="none"
     points="5179.52,2011.68 5179.35,2008.5 5178.86,2005.34 5178.05,2002.26 5176.92,1999.27 5175.5,1996.41 5173.78,1993.72 5171.8,1991.22 5169.57,1988.93 5167.12,1986.89 5164.48,1985.1 5161.66,1983.6 5158.7,1982.4 5155.64,1981.51 5152.5,1980.94 5149.31,1980.69 5146.12,1980.77 5142.96,1981.18 5139.85,1981.92 5136.83,1982.96 5133.94,1984.32 5131.21,1985.96 5128.65,1987.88 5126.31,1990.05 5124.2,1992.44 5122.35,1995.04 5120.78,1997.82 5119.5,2000.75 5118.53,2003.79 5117.88,2006.91 5117.55,2010.09 5117.55,2013.28 5117.88,2016.46 5118.53,2019.58 5119.5,2022.62 5120.78,2025.55 5122.35,2028.32 5124.2,2030.93 5126.31,2033.32 5128.65,2035.49 5131.21,2037.41 5133.94,2039.05 5136.83,2040.4 5139.85,2041.45 5142.96,2042.19 5146.12,2042.6 5149.31,2042.68 5152.5,2042.43 5155.64,2041.86 5158.7,2040.97 5161.66,2039.76 5164.48,2038.26 5167.12,2036.48 5169.57,2034.44 5171.8,2032.15 5173.78,2029.65 5175.5,2026.96 5176.92,2024.1 5178.05,2021.11 5178.86,2018.03 5179.35,2014.87 5179.52,2011.68 "
     id="polyline4"
     transform="rotate(180,3094.4429,2985.1732)"
     style="font-style:normal;font-weight:400;font-size:12px;font-family:Arial;fill-opacity:1;fill-rule:evenodd;stroke:#8080ff;stroke-width:5;stroke-linecap:round;stroke-linejoin:bevel;stroke-opacity:1" />
  <polyline
     fill="none"
     vector-effect="none"
     points="5817.31,4571.12 5817.15,4567.93 5816.65,4564.77 5815.84,4561.69 5814.71,4558.7 5813.29,4555.84 5811.57,4553.15 5809.59,4550.65 5807.37,4548.36 5804.91,4546.32 5802.27,4544.54 5799.45,4543.03 5796.49,4541.83 5793.43,4540.94 5790.29,4540.37 5787.1,4540.12 5783.91,4540.2 5780.75,4540.61 5777.64,4541.35 5774.63,4542.4 5771.73,4543.75 5769,4545.39 5766.44,4547.31 5764.1,4549.48 5762,4551.87 5760.15,4554.48 5758.57,4557.25 5757.29,4560.18 5756.32,4563.22 5755.67,4566.34 5755.34,4569.52 5755.34,4572.71 5755.67,4575.89 5756.32,4579.01 5757.29,4582.05 5758.57,4584.98 5760.15,4587.75 5762,4590.36 5764.1,4592.75 5766.44,4594.92 5769,4596.84 5771.73,4598.48 5774.63,4599.83 5777.64,4600.88 5780.75,4601.62 5783.91,4602.03 5787.1,4602.11 5790.29,4601.86 5793.43,4601.29 5796.49,4600.4 5799.45,4599.2 5802.27,4597.69 5804.91,4595.91 5807.37,4593.87 5809.59,4591.58 5811.57,4589.08 5813.29,4586.39 5814.71,4583.53 5815.84,4580.54 5816.65,4577.46 5817.15,4574.3 5817.31,4571.12 "
     id="polyline5"
     transform="rotate(180,3094.4429,2985.1732)"
     style="font-style:normal;font-weight:400;font-size:12px;font-family:Arial;fill-opacity:1;fill-rule:evenodd;stroke:#8080ff;stroke-width:5;stroke-linecap:round;stroke-linejoin:bevel;stroke-opacity:1" />
  <polyline
     fill="none"
     vector-effect="none"
     points="5755.3,2445.15 5755.47,2441.96 5755.96,2438.8 5756.77,2435.72 5757.9,2432.73 5759.32,2429.88 5761.04,2427.18 5763.02,2424.68 5765.25,2422.39 5767.7,2420.35 5770.35,2418.57 5773.16,2417.07 5776.12,2415.86 5779.18,2414.97 5782.32,2414.4 5785.51,2414.15 5788.7,2414.23 5791.86,2414.64 5794.97,2415.38 5797.99,2416.43 5800.88,2417.78 5803.61,2419.42 5806.17,2421.34 5808.51,2423.51 5810.62,2425.9 5812.47,2428.51 5814.04,2431.28 5815.32,2434.21 5816.29,2437.25 5816.94,2440.37 5817.27,2443.55 5817.27,2446.74 5816.94,2449.92 5816.29,2453.04 5815.32,2456.08 5814.04,2459.01 5812.47,2461.79 5810.62,2464.39 5808.51,2466.78 5806.17,2468.95 5803.61,2470.87 5800.88,2472.51 5797.99,2473.87 5794.97,2474.91 5791.86,2475.65 5788.7,2476.06 5785.51,2476.14 5782.32,2475.89 5779.18,2475.32 5776.12,2474.43 5773.16,2473.23 5770.35,2471.73 5767.7,2469.94 5765.25,2467.9 5763.02,2465.61 5761.04,2463.11 5759.32,2460.42 5757.9,2457.56 5756.77,2454.57 5755.96,2451.49 5755.47,2448.33 5755.3,2445.15 "
     id="polyline6"
     transform="rotate(180,3094.4429,2985.1732)"
     style="font-style:normal;font-weight:400;font-size:12px;font-family:Arial;fill-opacity:1;fill-rule:evenodd;stroke:#8080ff;stroke-width:5;stroke-linecap:round;stroke-linejoin:bevel;stroke-opacity:1" />
  <polyline
     fill="none"
     vector-effect="none"
     points="3124.42,2445.15 3124.25,2441.96 3123.76,2438.8 3122.95,2435.72 3121.82,2432.73 3120.39,2429.88 3118.68,2427.18 3116.7,2424.68 3114.47,2422.39 3112.02,2420.35 3109.37,2418.57 3106.55,2417.07 3103.6,2415.86 3100.53,2414.97 3097.39,2414.4 3094.21,2414.15 3091.02,2414.23 3087.85,2414.64 3084.75,2415.38 3081.73,2416.43 3078.84,2417.78 3076.1,2419.42 3073.55,2421.34 3071.21,2423.51 3069.1,2425.9 3067.25,2428.51 3065.68,2431.28 3064.4,2434.21 3063.43,2437.25 3062.78,2440.37 3062.45,2443.55 3062.45,2446.74 3062.78,2449.92 3063.43,2453.04 3064.4,2456.08 3065.68,2459.01 3067.25,2461.79 3069.1,2464.39 3071.21,2466.78 3073.55,2468.95 3076.1,2470.87 3078.84,2472.51 3081.73,2473.87 3084.75,2474.91 3087.85,2475.65 3091.02,2476.06 3094.21,2476.14 3097.39,2475.89 3100.53,2475.32 3103.6,2474.43 3106.55,2473.23 3109.37,2471.73 3112.02,2469.94 3114.47,2467.9 3116.7,2465.61 3118.68,2463.11 3120.39,2460.42 3121.82,2457.56 3122.95,2454.57 3123.76,2451.49 3124.25,2448.33 3124.42,2445.15 "
     id="polyline7"
     transform="rotate(180,3094.4429,2985.1732)"
     style="font-style:normal;font-weight:400;font-size:12px;font-family:Arial;fill-opacity:1;fill-rule:evenodd;stroke:#8080ff;stroke-width:5;stroke-linecap:round;stroke-linejoin:bevel;stroke-opacity:1" />
  <polyline
     fill="none"
     vector-effect="none"
     points="3258.76,2197.12 3258.93,2192.65 3259.44,2188.21 3260.28,2183.82 3261.45,2179.51 3262.94,2175.29 3264.75,2171.21 3266.86,2167.27 3269.27,2163.5 3271.95,2159.92 3274.89,2156.56 3278.08,2153.43 3281.5,2150.55 3285.13,2147.94 3288.94,2145.6 3292.92,2143.57 3297.04,2141.84 3301.28,2140.43 3305.61,2139.34 3310.02,2138.58 3314.47,2138.16 3318.94,2138.07 3323.4,2138.33 3327.83,2138.92 3332.2,2139.84 3336.49,2141.09 3340.68,2142.66 3344.73,2144.55 3348.63,2146.73 3352.35,2149.21 3355.87,2151.96 3359.18,2154.96 3362.25,2158.21 3365.06,2161.69 3367.61,2165.36 3369.87,2169.22 3371.83,2173.23 3373.48,2177.39 3374.81,2181.65 3375.82,2186.01 3376.49,2190.42 3376.83,2194.88 3376.83,2199.35 3376.49,2203.81 3375.82,2208.23 3374.81,2212.58 3373.48,2216.85 3371.83,2221 3369.87,2225.02 3367.61,2228.87 3365.06,2232.55 3362.25,2236.02 3359.18,2239.27 3355.87,2242.27 3352.35,2245.02 3348.63,2247.5 3344.73,2249.68 3340.68,2251.57 3336.49,2253.14 3332.2,2254.39 3327.83,2255.32 3323.4,2255.91 3318.94,2256.16 3314.47,2256.08 3310.02,2255.65 3305.61,2254.9 3301.28,2253.81 3297.04,2252.39 3292.92,2250.66 3288.94,2248.63 3285.13,2246.3 3281.5,2243.68 3278.08,2240.8 3274.89,2237.67 3271.95,2234.31 3269.27,2230.73 3266.86,2226.97 3264.75,2223.03 3262.94,2218.94 3261.45,2214.73 3260.28,2210.41 3259.44,2206.02 3258.93,2201.58 3258.76,2197.12 "
     id="polyline8"
     transform="rotate(180,3094.4429,2985.1732)"
     style="font-style:normal;font-weight:400;font-size:12px;font-family:Arial;fill-opacity:1;fill-rule:evenodd;stroke:#8080ff;stroke-width:5;stroke-linecap:round;stroke-linejoin:bevel;stroke-opacity:1" />
  <polyline
     fill="none"
     vector-effect="none"
     points="5104.22,4027.81 5104.39,4025.22 5104.87,4022.67 5105.68,4020.2 5106.78,4017.85 5108.17,4015.66 5109.83,4013.66 5111.72,4011.89 5113.82,4010.36 5116.09,4009.11 5118.51,4008.15 5121.02,4007.51 5123.6,4007.18 5126.19,4007.18 5128.77,4007.51 5131.28,4008.15 5133.69,4009.11 5135.97,4010.36 5138.07,4011.89 5139.96,4013.66 5141.61,4015.66 5143.01,4017.85 5144.11,4020.2 5144.91,4022.67 5145.4,4025.22 5145.56,4027.81 5145.4,4030.4 5144.91,4032.95 5144.11,4035.42 5143.01,4037.77 5141.61,4039.96 5139.96,4041.96 5138.07,4043.74 5135.97,4045.26 5133.69,4046.51 5131.28,4047.47 5128.77,4048.11 5126.19,4048.44 5123.6,4048.44 5121.02,4048.11 5118.51,4047.47 5116.09,4046.51 5113.82,4045.26 5111.72,4043.74 5109.83,4041.96 5108.17,4039.96 5106.78,4037.77 5105.68,4035.42 5104.87,4032.95 5104.39,4030.4 5104.22,4027.81 "
     id="polyline9"
     transform="rotate(180,3094.4429,2985.1732)"
     style="font-style:normal;font-weight:400;font-size:12px;font-family:Arial;fill-opacity:1;fill-rule:evenodd;stroke:#8080ff;stroke-width:5;stroke-linecap:round;stroke-linejoin:bevel;stroke-opacity:1" />
  <polyline
     fill="none"
     vector-effect="none"
     points="3789.08,4925.44 3789.24,4920.94 3789.75,4916.47 3790.59,4912.04 3791.75,4907.69 3793.24,4903.44 3795.04,4899.31 3797.15,4895.33 3799.54,4891.51 3802.22,4887.89 3805.16,4884.47 3808.34,4881.29 3811.76,4878.35 3815.38,4875.67 3819.19,4873.28 3823.18,4871.17 3827.3,4869.37 3831.56,4867.88 3835.91,4866.72 3840.33,4865.88 3844.81,4865.38 3849.31,4865.21 3853.81,4865.38 3858.29,4865.88 3862.72,4866.72 3867.07,4867.88 3871.32,4869.37 3875.45,4871.17 3879.43,4873.28 3883.24,4875.67 3886.87,4878.35 3890.28,4881.29 3893.47,4884.47 3896.41,4887.89 3899.08,4891.51 3901.48,4895.33 3903.58,4899.31 3905.38,4903.44 3906.87,4907.69 3908.04,4912.04 3908.87,4916.47 3909.38,4920.94 3909.55,4925.44 3909.38,4929.94 3908.87,4934.42 3908.04,4938.85 3906.87,4943.2 3905.38,4947.45 3903.58,4951.58 3901.48,4955.56 3899.08,4959.38 3896.41,4963 3893.47,4966.41 3890.28,4969.6 3886.87,4972.54 3883.24,4975.21 3879.43,4977.61 3875.45,4979.71 3871.32,4981.52 3867.07,4983 3862.72,4984.17 3858.29,4985.01 3853.81,4985.51 3849.31,4985.68 3844.81,4985.51 3840.33,4985.01 3835.91,4984.17 3831.56,4983 3827.3,4981.52 3823.18,4979.71 3819.19,4977.61 3815.38,4975.21 3811.76,4972.54 3808.34,4969.6 3805.16,4966.41 3802.22,4963 3799.54,4959.38 3797.15,4955.56 3795.04,4951.58 3793.24,4947.45 3791.75,4943.2 3790.59,4938.85 3789.75,4934.42 3789.24,4929.94 3789.08,4925.44 "
     id="polyline10"
     transform="rotate(180,3094.4429,2985.1732)"
     style="font-style:normal;font-weight:400;font-size:12px;font-family:Arial;fill-opacity:1;fill-rule:evenodd;stroke:#8080ff;stroke-width:5;stroke-linecap:round;stroke-linejoin:bevel;stroke-opacity:1" />
  <polyline
     fill="none"
     vector-effect="none"
     points="5632.76,4760.09 5632.59,4755.2 5632.09,4750.34 5631.25,4745.52 5630.08,4740.77 5628.58,4736.11 5626.77,4731.56 5624.65,4727.16 5622.22,4722.91 5619.52,4718.83 5616.53,4714.96 5613.29,4711.29 5609.8,4707.87 5606.08,4704.69 5602.15,4701.77 5598.03,4699.13 5593.74,4696.78 5589.3,4694.74 5584.73,4693 5580.04,4691.59 5575.27,4690.5 5570.44,4689.74 5565.57,4689.32 5560.67,4689.23 5555.79,4689.49 5550.93,4690.08 5546.13,4691 5541.4,4692.25 5536.77,4693.83 5532.26,4695.72 5527.89,4697.92 5523.68,4700.41 5519.65,4703.19 5515.83,4706.24 5512.22,4709.55 5508.85,4713.1 5505.74,4716.87 5502.89,4720.85 5500.32,4725.01 5498.05,4729.34 5496.08,4733.82 5494.43,4738.42 5493.09,4743.13 5492.09,4747.92 5491.41,4752.76 5491.07,4757.64 5491.07,4762.54 5491.41,4767.42 5492.09,4772.26 5493.09,4777.05 5494.43,4781.76 5496.08,4786.36 5498.05,4790.84 5500.32,4795.17 5502.89,4799.33 5505.74,4803.31 5508.85,4807.08 5512.22,4810.63 5515.83,4813.94 5519.65,4816.99 5523.68,4819.77 5527.89,4822.26 5532.26,4824.46 5536.77,4826.35 5541.4,4827.93 5546.13,4829.18 5550.93,4830.1 5555.79,4830.69 5560.67,4830.95 5565.57,4830.86 5570.44,4830.44 5575.27,4829.68 5580.04,4828.59 5584.73,4827.18 5589.3,4825.44 5593.74,4823.4 5598.03,4821.05 5602.15,4818.41 5606.08,4815.5 5609.8,4812.31 5613.29,4808.89 5616.53,4805.22 5619.52,4801.35 5622.22,4797.27 5624.65,4793.02 5626.77,4788.62 5628.58,4784.07 5630.08,4779.41 5631.25,4774.66 5632.09,4769.84 5632.59,4764.98 5632.76,4760.09 "
     id="polyline11"
     transform="rotate(180,3094.4429,2985.1732)"
     style="font-style:normal;font-weight:400;font-size:12px;font-family:Arial;fill-opacity:1;fill-rule:evenodd;stroke:#8080ff;stroke-width:5;stroke-linecap:round;stroke-linejoin:bevel;stroke-opacity:1" />
  <polyline
     fill="none"
     vector-effect="none"
     points="3775.49,4264.03 3775.33,4261.44 3774.84,4258.89 3774.04,4256.42 3772.94,4254.07 3771.55,4251.88 3769.89,4249.88 3768,4248.1 3765.9,4246.58 3763.62,4245.33 3761.21,4244.37 3758.7,4243.73 3756.12,4243.4 3753.53,4243.4 3750.95,4243.73 3748.44,4244.37 3746.02,4245.33 3743.75,4246.58 3741.65,4248.1 3739.76,4249.88 3738.1,4251.88 3736.71,4254.07 3735.61,4256.42 3734.8,4258.89 3734.32,4261.44 3734.15,4264.03 3734.32,4266.62 3734.8,4269.17 3735.61,4271.64 3736.71,4273.99 3738.1,4276.18 3739.76,4278.18 3741.65,4279.96 3743.75,4281.48 3746.02,4282.73 3748.44,4283.69 3750.95,4284.33 3753.53,4284.66 3756.12,4284.66 3758.7,4284.33 3761.21,4283.69 3763.62,4282.73 3765.9,4281.48 3768,4279.96 3769.89,4278.18 3771.55,4276.18 3772.94,4273.99 3774.04,4271.64 3774.84,4269.17 3775.33,4266.62 3775.49,4264.03 "
     id="polyline12"
     transform="rotate(180,3094.4429,2985.1732)"
     style="font-style:normal;font-weight:400;font-size:12px;font-family:Arial;fill-opacity:1;fill-rule:evenodd;stroke:#8080ff;stroke-width:5;stroke-linecap:round;stroke-linejoin:bevel;stroke-opacity:1" />
  <polyline
     fill="none"
     vector-effect="none"
     points="5104.22,4264.03 5104.39,4261.44 5104.87,4258.89 5105.68,4256.42 5106.78,4254.07 5108.17,4251.88 5109.83,4249.88 5111.72,4248.1 5113.82,4246.58 5116.09,4245.33 5118.51,4244.37 5121.02,4243.73 5123.6,4243.4 5126.19,4243.4 5128.77,4243.73 5131.28,4244.37 5133.69,4245.33 5135.97,4246.58 5138.07,4248.1 5139.96,4249.88 5141.61,4251.88 5143.01,4254.07 5144.11,4256.42 5144.91,4258.89 5145.4,4261.44 5145.56,4264.03 5145.4,4266.62 5144.91,4269.17 5144.11,4271.64 5143.01,4273.99 5141.61,4276.18 5139.96,4278.18 5138.07,4279.96 5135.97,4281.48 5133.69,4282.73 5131.28,4283.69 5128.77,4284.33 5126.19,4284.66 5123.6,4284.66 5121.02,4284.33 5118.51,4283.69 5116.09,4282.73 5113.82,4281.48 5111.72,4279.96 5109.83,4278.18 5108.17,4276.18 5106.78,4273.99 5105.68,4271.64 5104.87,4269.17 5104.39,4266.62 5104.22,4264.03 "
     id="polyline13"
     transform="rotate(180,3094.4429,2985.1732)"
     style="font-style:normal;font-weight:400;font-size:12px;font-family:Arial;fill-opacity:1;fill-rule:evenodd;stroke:#8080ff;stroke-width:5;stroke-linecap:round;stroke-linejoin:bevel;stroke-opacity:1" />
  <polyline
     fill="none"
     vector-effect="none"
     points="5090.64,4925.44 5090.47,4920.94 5089.97,4916.47 5089.13,4912.04 5087.97,4907.69 5086.48,4903.44 5084.68,4899.31 5082.57,4895.33 5080.17,4891.51 5077.5,4887.89 5074.56,4884.47 5071.38,4881.29 5067.96,4878.35 5064.34,4875.67 5060.52,4873.28 5056.54,4871.17 5052.41,4869.37 5048.16,4867.88 5043.81,4866.72 5039.38,4865.88 5034.91,4865.38 5030.41,4865.21 5025.9,4865.38 5021.43,4865.88 5017,4866.72 5012.65,4867.88 5008.4,4869.37 5004.27,4871.17 5000.29,4873.28 4996.47,4875.67 4992.85,4878.35 4989.43,4881.29 4986.25,4884.47 4983.31,4887.89 4980.64,4891.51 4978.24,4895.33 4976.13,4899.31 4974.33,4903.44 4972.85,4907.69 4971.68,4912.04 4970.84,4916.47 4970.34,4920.94 4970.17,4925.44 4970.34,4929.94 4970.84,4934.42 4971.68,4938.85 4972.85,4943.2 4974.33,4947.45 4976.13,4951.58 4978.24,4955.56 4980.64,4959.38 4983.31,4963 4986.25,4966.41 4989.43,4969.6 4992.85,4972.54 4996.47,4975.21 5000.29,4977.61 5004.27,4979.71 5008.4,4981.52 5012.65,4983 5017,4984.17 5021.43,4985.01 5025.9,4985.51 5030.41,4985.68 5034.91,4985.51 5039.38,4985.01 5043.81,4984.17 5048.16,4983 5052.41,4981.52 5056.54,4979.71 5060.52,4977.61 5064.34,4975.21 5067.96,4972.54 5071.38,4969.6 5074.56,4966.41 5077.5,4963 5080.17,4959.38 5082.57,4955.56 5084.68,4951.58 5086.48,4947.45 5087.97,4943.2 5089.13,4938.85 5089.97,4934.42 5090.47,4929.94 5090.64,4925.44 "
     id="polyline14"
     transform="rotate(180,3094.4429,2985.1732)"
     style="font-style:normal;font-weight:400;font-size:12px;font-family:Arial;fill-opacity:1;fill-rule:evenodd;stroke:#8080ff;stroke-width:5;stroke-linecap:round;stroke-linejoin:bevel;stroke-opacity:1" />
  <polyline
     fill="none"
     vector-effect="none"
     points="5145.56,2362.47 5145.4,2359.88 5144.91,2357.33 5144.11,2354.86 5143.01,2352.51 5141.61,2350.32 5139.96,2348.32 5138.07,2346.54 5135.97,2345.02 5133.69,2343.77 5131.28,2342.81 5128.77,2342.17 5126.19,2341.84 5123.6,2341.84 5121.02,2342.17 5118.51,2342.81 5116.09,2343.77 5113.82,2345.02 5111.72,2346.54 5109.83,2348.32 5108.17,2350.32 5106.78,2352.51 5105.68,2354.86 5104.87,2357.33 5104.39,2359.88 5104.22,2362.47 5104.39,2365.06 5104.87,2367.61 5105.68,2370.08 5106.78,2372.43 5108.17,2374.62 5109.83,2376.62 5111.72,2378.4 5113.82,2379.92 5116.09,2381.17 5118.51,2382.13 5121.02,2382.77 5123.6,2383.1 5126.19,2383.1 5128.77,2382.77 5131.28,2382.13 5133.69,2381.17 5135.97,2379.92 5138.07,2378.4 5139.96,2376.62 5141.61,2374.62 5143.01,2372.43 5144.11,2370.08 5144.91,2367.61 5145.4,2365.06 5145.56,2362.47 "
     id="polyline15"
     transform="rotate(180,3094.4429,2985.1732)"
     style="font-style:normal;font-weight:400;font-size:12px;font-family:Arial;fill-opacity:1;fill-rule:evenodd;stroke:#8080ff;stroke-width:5;stroke-linecap:round;stroke-linejoin:bevel;stroke-opacity:1" />
  <polyline
     fill="none"
     vector-effect="none"
     points="3734.15,2362.47 3734.32,2359.88 3734.8,2357.33 3735.61,2354.86 3736.71,2352.51 3738.1,2350.32 3739.76,2348.32 3741.65,2346.54 3743.75,2345.02 3746.02,2343.77 3748.44,2342.81 3750.95,2342.17 3753.53,2341.84 3756.12,2341.84 3758.7,2342.17 3761.21,2342.81 3763.62,2343.77 3765.9,2345.02 3768,2346.54 3769.89,2348.32 3771.55,2350.32 3772.94,2352.51 3774.04,2354.86 3774.84,2357.33 3775.33,2359.88 3775.49,2362.47 3775.33,2365.06 3774.84,2367.61 3774.04,2370.08 3772.94,2372.43 3771.55,2374.62 3769.89,2376.62 3768,2378.4 3765.9,2379.92 3763.62,2381.17 3761.21,2382.13 3758.7,2382.77 3756.12,2383.1 3753.53,2383.1 3750.95,2382.77 3748.44,2382.13 3746.02,2381.17 3743.75,2379.92 3741.65,2378.4 3739.76,2376.62 3738.1,2374.62 3736.71,2372.43 3735.61,2370.08 3734.8,2367.61 3734.32,2365.06 3734.15,2362.47 "
     id="polyline16"
     transform="rotate(180,3094.4429,2985.1732)"
     style="font-style:normal;font-weight:400;font-size:12px;font-family:Arial;fill-opacity:1;fill-rule:evenodd;stroke:#8080ff;stroke-width:5;stroke-linecap:round;stroke-linejoin:bevel;stroke-opacity:1" />
  <polyline
     fill="none"
     vector-effect="none"
     points="3775.49,4027.81 3775.33,4025.22 3774.84,4022.67 3774.04,4020.2 3772.94,4017.85 3771.55,4015.66 3769.89,4013.66 3768,4011.89 3765.9,4010.36 3763.62,4009.11 3761.21,4008.15 3758.7,4007.51 3756.12,4007.18 3753.53,4007.18 3750.95,4007.51 3748.44,4008.15 3746.02,4009.11 3743.75,4010.36 3741.65,4011.89 3739.76,4013.66 3738.1,4015.66 3736.71,4017.85 3735.61,4020.2 3734.8,4022.67 3734.32,4025.22 3734.15,4027.81 3734.32,4030.4 3734.8,4032.95 3735.61,4035.42 3736.71,4037.77 3738.1,4039.96 3739.76,4041.96 3741.65,4043.74 3743.75,4045.26 3746.02,4046.51 3748.44,4047.47 3750.95,4048.11 3753.53,4048.44 3756.12,4048.44 3758.7,4048.11 3761.21,4047.47 3763.62,4046.51 3765.9,4045.26 3768,4043.74 3769.89,4041.96 3771.55,4039.96 3772.94,4037.77 3774.04,4035.42 3774.84,4032.95 3775.33,4030.4 3775.49,4027.81 "
     id="polyline17"
     transform="rotate(180,3094.4429,2985.1732)"
     style="font-style:normal;font-weight:400;font-size:12px;font-family:Arial;fill-opacity:1;fill-rule:evenodd;stroke:#8080ff;stroke-width:5;stroke-linecap:round;stroke-linejoin:bevel;stroke-opacity:1" />
  <polyline
     fill="none"
     vector-effect="none"
     points="3258.76,4027.81 3258.93,4023.35 3259.44,4018.9 3260.28,4014.52 3261.45,4010.2 3262.94,4005.99 3264.75,4001.9 3266.86,3997.96 3269.27,3994.19 3271.95,3990.62 3274.89,3987.26 3278.08,3984.13 3281.5,3981.25 3285.13,3978.63 3288.94,3976.3 3292.92,3974.26 3297.04,3972.53 3301.28,3971.12 3305.61,3970.03 3310.02,3969.27 3314.47,3968.85 3318.94,3968.77 3323.4,3969.02 3327.83,3969.61 3332.2,3970.54 3336.49,3971.79 3340.68,3973.36 3344.73,3975.24 3348.63,3977.43 3352.35,3979.9 3355.87,3982.65 3359.18,3985.66 3362.25,3988.91 3365.06,3992.38 3367.61,3996.06 3369.87,3999.91 3371.83,4003.93 3373.48,4008.08 3374.81,4012.35 3375.82,4016.7 3376.49,4021.12 3376.83,4025.58 3376.83,4030.05 3376.49,4034.5 3375.82,4038.92 3374.81,4043.28 3373.48,4047.54 3371.83,4051.7 3369.87,4055.71 3367.61,4059.57 3365.06,4063.24 3362.25,4066.71 3359.18,4069.96 3355.87,4072.97 3352.35,4075.72 3348.63,4078.19 3344.73,4080.38 3340.68,4082.26 3336.49,4083.84 3332.2,4085.09 3327.83,4086.01 3323.4,4086.6 3318.94,4086.86 3314.47,4086.77 3310.02,4086.35 3305.61,4085.59 3301.28,4084.5 3297.04,4083.09 3292.92,4081.36 3288.94,4079.32 3285.13,4076.99 3281.5,4074.38 3278.08,4071.5 3274.89,4068.37 3271.95,4065.01 3269.27,4061.43 3266.86,4057.66 3264.75,4053.72 3262.94,4049.63 3261.45,4045.42 3260.28,4041.11 3259.44,4036.72 3258.93,4032.28 3258.76,4027.81 "
     id="polyline18"
     transform="rotate(180,3094.4429,2985.1732)"
     style="font-style:normal;font-weight:400;font-size:12px;font-family:Arial;fill-opacity:1;fill-rule:evenodd;stroke:#8080ff;stroke-width:5;stroke-linecap:round;stroke-linejoin:bevel;stroke-opacity:1" />
  <polyline
     fill="none"
     vector-effect="none"
     points="5620.95,2197.12 5620.78,2192.65 5620.28,2188.21 5619.44,2183.82 5618.27,2179.51 5616.77,2175.29 5614.96,2171.21 5612.85,2167.27 5610.45,2163.5 5607.77,2159.92 5604.82,2156.56 5601.63,2153.43 5598.22,2150.55 5594.59,2147.94 5590.78,2145.6 5586.8,2143.57 5582.68,2141.84 5578.44,2140.43 5574.1,2139.34 5569.7,2138.58 5565.25,2138.16 5560.78,2138.07 5556.32,2138.33 5551.89,2138.92 5547.51,2139.84 5543.22,2141.09 5539.04,2142.66 5534.99,2144.55 5531.09,2146.73 5527.37,2149.21 5523.84,2151.96 5520.54,2154.96 5517.47,2158.21 5514.65,2161.69 5512.11,2165.36 5509.85,2169.22 5507.89,2173.23 5506.24,2177.39 5504.9,2181.65 5503.9,2186.01 5503.22,2190.42 5502.89,2194.88 5502.89,2199.35 5503.22,2203.81 5503.9,2208.23 5504.9,2212.58 5506.24,2216.85 5507.89,2221 5509.85,2225.02 5512.11,2228.87 5514.65,2232.55 5517.47,2236.02 5520.54,2239.27 5523.84,2242.27 5527.37,2245.02 5531.09,2247.5 5534.99,2249.68 5539.04,2251.57 5543.22,2253.14 5547.51,2254.39 5551.89,2255.32 5556.32,2255.91 5560.78,2256.16 5565.25,2256.08 5569.7,2255.65 5574.1,2254.9 5578.44,2253.81 5582.68,2252.39 5586.8,2250.66 5590.78,2248.63 5594.59,2246.3 5598.22,2243.68 5601.63,2240.8 5604.82,2237.67 5607.77,2234.31 5610.45,2230.73 5612.85,2226.97 5614.96,2223.03 5616.77,2218.94 5618.27,2214.73 5619.44,2210.41 5620.28,2206.02 5620.78,2201.58 5620.95,2197.12 "
     id="polyline19"
     transform="rotate(180,3094.4429,2985.1732)"
     style="font-style:normal;font-weight:400;font-size:12px;font-family:Arial;fill-opacity:1;fill-rule:evenodd;stroke:#8080ff;stroke-width:5;stroke-linecap:round;stroke-linejoin:bevel;stroke-opacity:1" />
  <polyline
     fill="none"
     vector-effect="none"
     points="5620.95,4027.81 5620.78,4023.35 5620.28,4018.9 5619.44,4014.52 5618.27,4010.2 5616.77,4005.99 5614.96,4001.9 5612.85,3997.96 5610.45,3994.19 5607.77,3990.62 5604.82,3987.26 5601.63,3984.13 5598.22,3981.25 5594.59,3978.63 5590.78,3976.3 5586.8,3974.26 5582.68,3972.53 5578.44,3971.12 5574.1,3970.03 5569.7,3969.27 5565.25,3968.85 5560.78,3968.77 5556.32,3969.02 5551.89,3969.61 5547.51,3970.54 5543.22,3971.79 5539.04,3973.36 5534.99,3975.24 5531.09,3977.43 5527.37,3979.9 5523.84,3982.65 5520.54,3985.66 5517.47,3988.91 5514.65,3992.38 5512.11,3996.06 5509.85,3999.91 5507.89,4003.93 5506.24,4008.08 5504.9,4012.35 5503.9,4016.7 5503.22,4021.12 5502.89,4025.58 5502.89,4030.05 5503.22,4034.5 5503.9,4038.92 5504.9,4043.28 5506.24,4047.54 5507.89,4051.7 5509.85,4055.71 5512.11,4059.57 5514.65,4063.24 5517.47,4066.71 5520.54,4069.96 5523.84,4072.97 5527.37,4075.72 5531.09,4078.19 5534.99,4080.38 5539.04,4082.26 5543.22,4083.84 5547.51,4085.09 5551.89,4086.01 5556.32,4086.6 5560.78,4086.86 5565.25,4086.77 5569.7,4086.35 5574.1,4085.59 5578.44,4084.5 5582.68,4083.09 5586.8,4081.36 5590.78,4079.32 5594.59,4076.99 5598.22,4074.38 5601.63,4071.5 5604.82,4068.37 5607.77,4065.01 5610.45,4061.43 5612.85,4057.66 5614.96,4053.72 5616.77,4049.63 5618.27,4045.42 5619.44,4041.11 5620.28,4036.72 5620.78,4032.28 5620.95,4027.81 "
     id="polyline20"
     transform="rotate(180,3094.4429,2985.1732)"
     style="font-style:normal;font-weight:400;font-size:12px;font-family:Arial;fill-opacity:1;fill-rule:evenodd;stroke:#8080ff;stroke-width:5;stroke-linecap:round;stroke-linejoin:bevel;stroke-opacity:1" />
  <polyline
     fill="none"
     vector-effect="none"
     points="3700.2,2011.68 3700.36,2008.5 3700.85,2005.34 3701.67,2002.26 3702.79,1999.27 3704.22,1996.41 3705.93,1993.72 3707.91,1991.22 3710.14,1988.93 3712.59,1986.89 3715.24,1985.1 3718.06,1983.6 3721.02,1982.4 3724.08,1981.51 3727.22,1980.94 3730.4,1980.69 3733.59,1980.77 3736.76,1981.18 3739.87,1981.92 3742.88,1982.96 3745.77,1984.32 3748.51,1985.96 3751.06,1987.88 3753.41,1990.05 3755.51,1992.44 3757.36,1995.04 3758.93,1997.82 3760.21,2000.75 3761.18,2003.79 3761.84,2006.91 3762.16,2010.09 3762.16,2013.28 3761.84,2016.46 3761.18,2019.58 3760.21,2022.62 3758.93,2025.55 3757.36,2028.32 3755.51,2030.93 3753.41,2033.32 3751.06,2035.49 3748.51,2037.41 3745.77,2039.05 3742.88,2040.4 3739.87,2041.45 3736.76,2042.19 3733.59,2042.6 3730.4,2042.68 3727.22,2042.43 3724.08,2041.86 3721.02,2040.97 3718.06,2039.76 3715.24,2038.26 3712.59,2036.48 3710.14,2034.44 3707.91,2032.15 3705.93,2029.65 3704.22,2026.96 3702.79,2024.1 3701.67,2021.11 3700.85,2018.03 3700.36,2014.87 3700.2,2011.68 "
     id="polyline21"
     transform="rotate(180,3094.4429,2985.1732)"
     style="font-style:normal;font-weight:400;font-size:12px;font-family:Arial;fill-opacity:1;fill-rule:evenodd;stroke:#8080ff;stroke-width:5;stroke-linecap:round;stroke-linejoin:bevel;stroke-opacity:1" />
  <polyline
     fill="none"
     vector-effect="none"
     points="3062.41,4571.12 3062.57,4567.93 3063.06,4564.77 3063.88,4561.69 3065,4558.7 3066.43,4555.84 3068.14,4553.15 3070.12,4550.65 3072.35,4548.36 3074.8,4546.32 3077.45,4544.54 3080.27,4543.03 3083.23,4541.83 3086.29,4540.94 3089.43,4540.37 3092.61,4540.12 3095.8,4540.2 3098.97,4540.61 3102.08,4541.35 3105.09,4542.4 3107.98,4543.75 3110.72,4545.39 3113.27,4547.31 3115.61,4549.48 3117.72,4551.87 3119.57,4554.48 3121.14,4557.25 3122.42,4560.18 3123.39,4563.22 3124.05,4566.34 3124.37,4569.52 3124.37,4572.71 3124.05,4575.89 3123.39,4579.01 3122.42,4582.05 3121.14,4584.98 3119.57,4587.75 3117.72,4590.36 3115.61,4592.75 3113.27,4594.92 3110.72,4596.84 3107.98,4598.48 3105.09,4599.83 3102.08,4600.88 3098.97,4601.62 3095.8,4602.03 3092.61,4602.11 3089.43,4601.86 3086.29,4601.29 3083.23,4600.4 3080.27,4599.2 3077.45,4597.69 3074.8,4595.91 3072.35,4593.87 3070.12,4591.58 3068.14,4589.08 3066.43,4586.39 3065,4583.53 3063.88,4580.54 3063.06,4577.46 3062.57,4574.3 3062.41,4571.12 "
     id="polyline22"
     transform="rotate(180,3094.4429,2985.1732)"
     style="font-style:normal;font-weight:400;font-size:12px;font-family:Arial;fill-opacity:1;fill-rule:evenodd;stroke:#8080ff;stroke-width:5;stroke-linecap:round;stroke-linejoin:bevel;stroke-opacity:1" />
  <polyline
     fill="none"
     vector-effect="none"
     points="3062.41,3508.13 3062.57,3504.94 3063.06,3501.79 3063.88,3498.7 3065,3495.71 3066.43,3492.86 3068.14,3490.17 3070.12,3487.66 3072.35,3485.38 3074.8,3483.33 3077.45,3481.55 3080.27,3480.05 3083.23,3478.85 3086.29,3477.96 3089.43,3477.38 3092.61,3477.14 3095.8,3477.22 3098.97,3477.63 3102.08,3478.36 3105.09,3479.41 3107.98,3480.76 3110.72,3482.41 3113.27,3484.32 3115.61,3486.49 3117.72,3488.89 3119.57,3491.49 3121.14,3494.27 3122.42,3497.19 3123.39,3500.23 3124.05,3503.36 3124.37,3506.53 3124.37,3509.73 3124.05,3512.9 3123.39,3516.03 3122.42,3519.07 3121.14,3521.99 3119.57,3524.77 3117.72,3527.37 3115.61,3529.77 3113.27,3531.94 3110.72,3533.85 3107.98,3535.5 3105.09,3536.85 3102.08,3537.9 3098.97,3538.63 3095.8,3539.04 3092.61,3539.12 3089.43,3538.88 3086.29,3538.31 3083.23,3537.41 3080.27,3536.21 3077.45,3534.71 3074.8,3532.93 3072.35,3530.88 3070.12,3528.6 3068.14,3526.09 3066.43,3523.4 3065,3520.55 3063.88,3517.56 3063.06,3514.47 3062.57,3511.32 3062.41,3508.13 "
     id="polyline23"
     transform="rotate(180,3094.4429,2985.1732)"
     style="font-style:normal;font-weight:400;font-size:12px;font-family:Arial;fill-opacity:1;fill-rule:evenodd;stroke:#8080ff;stroke-width:5;stroke-linecap:round;stroke-linejoin:bevel;stroke-opacity:1" />
  <polyline
     fill="none"
     vector-effect="none"
     points="5695.36,5149.85 5695.36,5119.53 "
     id="polyline24"
     transform="rotate(180,3094.4429,2985.1732)"
     style="font-style:normal;font-weight:400;font-size:12px;font-family:Arial;fill-opacity:1;fill-rule:evenodd;stroke:#8080ff;stroke-width:5;stroke-linecap:round;stroke-linejoin:bevel;stroke-opacity:1" />
  <polyline
     fill="none"
     vector-effect="none"
     points="5695.36,5087.25 5695.36,5055.36 "
     id="polyline25"
     transform="rotate(180,3094.4429,2985.1732)"
     style="font-style:normal;font-weight:400;font-size:12px;font-family:Arial;fill-opacity:1;fill-rule:evenodd;stroke:#8080ff;stroke-width:5;stroke-linecap:round;stroke-linejoin:bevel;stroke-opacity:1" />
  <polyline
     fill="none"
     vector-effect="none"
     points="5695.36,5119.53 5695.36,5087.25 "
     id="polyline26"
     transform="rotate(180,3094.4429,2985.1732)"
     style="font-style:normal;font-weight:400;font-size:12px;font-family:Arial;fill-opacity:1;fill-rule:evenodd;stroke:#8080ff;stroke-width:5;stroke-linecap:round;stroke-linejoin:bevel;stroke-opacity:1" />
  <polyline
     fill="none"
     vector-effect="none"
     points="3184.36,5087.25 3184.36,5055.36 "
     id="polyline27"
     transform="rotate(180,3094.4429,2985.1732)"
     style="font-style:normal;font-weight:400;font-size:12px;font-family:Arial;fill-opacity:1;fill-rule:evenodd;stroke:#8080ff;stroke-width:5;stroke-linecap:round;stroke-linejoin:bevel;stroke-opacity:1" />
  <polyline
     fill="none"
     vector-effect="none"
     points="3243.41,5208.91 5636.31,5208.91 "
     id="polyline28"
     transform="rotate(180,3094.4429,2985.1732)"
     style="font-style:normal;font-weight:400;font-size:12px;font-family:Arial;fill-opacity:1;fill-rule:evenodd;stroke:#8080ff;stroke-width:5;stroke-linecap:round;stroke-linejoin:bevel;stroke-opacity:1" />
  <polyline
     fill="none"
     vector-effect="none"
     points="3184.36,5119.53 3184.36,5087.25 "
     id="polyline29"
     transform="rotate(180,3094.4429,2985.1732)"
     style="font-style:normal;font-weight:400;font-size:12px;font-family:Arial;fill-opacity:1;fill-rule:evenodd;stroke:#8080ff;stroke-width:5;stroke-linecap:round;stroke-linejoin:bevel;stroke-opacity:1" />
  <polyline
     fill="none"
     vector-effect="none"
     points="5695.36,5055.36 5718.98,5055.36 "
     id="polyline30"
     transform="rotate(180,3094.4429,2985.1732)"
     style="font-style:normal;font-weight:400;font-size:12px;font-family:Arial;fill-opacity:1;fill-rule:evenodd;stroke:#8080ff;stroke-width:5;stroke-linecap:round;stroke-linejoin:bevel;stroke-opacity:1" />
  <polyline
     fill="none"
     vector-effect="none"
     points="5718.98,5114.42 5718.98,5055.36 "
     id="polyline31"
     transform="rotate(180,3094.4429,2985.1732)"
     style="font-style:normal;font-weight:400;font-size:12px;font-family:Arial;fill-opacity:1;fill-rule:evenodd;stroke:#8080ff;stroke-width:5;stroke-linecap:round;stroke-linejoin:bevel;stroke-opacity:1" />
  <polyline
     fill="none"
     vector-effect="none"
     points="5718.98,5114.42 5880.79,5114.42 "
     id="polyline32"
     transform="rotate(180,3094.4429,2985.1732)"
     style="font-style:normal;font-weight:400;font-size:12px;font-family:Arial;fill-opacity:1;fill-rule:evenodd;stroke:#8080ff;stroke-width:5;stroke-linecap:round;stroke-linejoin:bevel;stroke-opacity:1" />
  <polyline
     fill="none"
     vector-effect="none"
     points="5896.15,5099.06 5896.15,1917.2 "
     id="polyline33"
     transform="rotate(180,3094.4429,2985.1732)"
     style="font-style:normal;font-weight:400;font-size:12px;font-family:Arial;fill-opacity:1;fill-rule:evenodd;stroke:#8080ff;stroke-width:5;stroke-linecap:round;stroke-linejoin:bevel;stroke-opacity:1" />
  <polyline
     fill="none"
     vector-effect="none"
     points="3184.36,5055.36 3160.73,5055.36 "
     id="polyline34"
     transform="rotate(180,3094.4429,2985.1732)"
     style="font-style:normal;font-weight:400;font-size:12px;font-family:Arial;fill-opacity:1;fill-rule:evenodd;stroke:#8080ff;stroke-width:5;stroke-linecap:round;stroke-linejoin:bevel;stroke-opacity:1" />
  <polyline
     fill="none"
     vector-effect="none"
     points="2998.92,1901.84 5880.79,1901.84 "
     id="polyline35"
     transform="rotate(180,3094.4429,2985.1732)"
     style="font-style:normal;font-weight:400;font-size:12px;font-family:Arial;fill-opacity:1;fill-rule:evenodd;stroke:#8080ff;stroke-width:5;stroke-linecap:round;stroke-linejoin:bevel;stroke-opacity:1" />
  <polyline
     fill="none"
     vector-effect="none"
     points="3160.73,5114.42 3160.73,5055.36 "
     id="polyline36"
     transform="rotate(180,3094.4429,2985.1732)"
     style="font-style:normal;font-weight:400;font-size:12px;font-family:Arial;fill-opacity:1;fill-rule:evenodd;stroke:#8080ff;stroke-width:5;stroke-linecap:round;stroke-linejoin:bevel;stroke-opacity:1" />
  <polyline
     fill="none"
     vector-effect="none"
     points="2983.57,5099.06 2983.57,1917.2 "
     id="polyline37"
     transform="rotate(180,3094.4429,2985.1732)"
     style="font-style:normal;font-weight:400;font-size:12px;font-family:Arial;fill-opacity:1;fill-rule:evenodd;stroke:#8080ff;stroke-width:5;stroke-linecap:round;stroke-linejoin:bevel;stroke-opacity:1" />
  <polyline
     fill="none"
     vector-effect="none"
     points="3160.73,5114.42 2998.92,5114.42 "
     id="polyline38"
     transform="rotate(180,3094.4429,2985.1732)"
     style="font-style:normal;font-weight:400;font-size:12px;font-family:Arial;fill-opacity:1;fill-rule:evenodd;stroke:#8080ff;stroke-width:5;stroke-linecap:round;stroke-linejoin:bevel;stroke-opacity:1" />
  <polyline
     fill="none"
     vector-effect="none"
     points="3184.36,5149.85 3184.36,5119.53 "
     id="polyline39"
     transform="rotate(180,3094.4429,2985.1732)"
     style="font-style:normal;font-weight:400;font-size:12px;font-family:Arial;fill-opacity:1;fill-rule:evenodd;stroke:#8080ff;stroke-width:5;stroke-linecap:round;stroke-linejoin:bevel;stroke-opacity:1" />
  <polyline
     fill="none"
     vector-effect="none"
     points="3184.36,5149.85 3184.52,5154.26 3185.02,5158.65 3185.84,5162.99 3186.98,5167.26 3188.44,5171.43 3190.2,5175.47 3192.27,5179.38 3194.62,5183.12 3197.24,5186.67 3200.12,5190.02 3203.24,5193.14 3206.59,5196.02 3210.14,5198.64 3213.88,5200.99 3217.79,5203.06 3221.84,5204.82 3226,5206.28 3230.27,5207.43 3234.61,5208.25 3239,5208.74 3243.41,5208.91 "
     id="polyline40"
     transform="rotate(180,3094.4429,2985.1732)"
     style="font-style:normal;font-weight:400;font-size:12px;font-family:Arial;fill-opacity:1;fill-rule:evenodd;stroke:#8080ff;stroke-width:5;stroke-linecap:round;stroke-linejoin:bevel;stroke-opacity:1" />
  <polyline
     fill="none"
     vector-effect="none"
     points="2983.57,1917.2 2983.73,1915.01 2984.19,1912.87 2984.96,1910.82 2986.01,1908.9 2987.32,1907.14 2988.87,1905.59 2990.62,1904.28 2992.55,1903.23 2994.6,1902.46 2996.74,1902 2998.92,1901.84 "
     id="polyline41"
     transform="rotate(180,3094.4429,2985.1732)"
     style="font-style:normal;font-weight:400;font-size:12px;font-family:Arial;fill-opacity:1;fill-rule:evenodd;stroke:#8080ff;stroke-width:5;stroke-linecap:round;stroke-linejoin:bevel;stroke-opacity:1" />
  <polyline
     fill="none"
     vector-effect="none"
     points="2998.92,5114.42 2996.74,5114.26 2994.6,5113.8 2992.55,5113.03 2990.62,5111.98 2988.87,5110.67 2987.32,5109.12 2986.01,5107.37 2984.96,5105.44 2984.19,5103.39 2983.73,5101.25 2983.57,5099.06 "
     id="polyline42"
     transform="rotate(180,3094.4429,2985.1732)"
     style="font-style:normal;font-weight:400;font-size:12px;font-family:Arial;fill-opacity:1;fill-rule:evenodd;stroke:#8080ff;stroke-width:5;stroke-linecap:round;stroke-linejoin:bevel;stroke-opacity:1" />
  <polyline
     fill="none"
     vector-effect="none"
     points="5880.79,5114.42 5882.98,5114.26 5885.12,5113.8 5887.17,5113.03 5889.09,5111.98 5890.85,5110.67 5892.4,5109.12 5893.71,5107.37 5894.76,5105.44 5895.53,5103.39 5895.99,5101.25 5896.15,5099.06 "
     id="polyline43"
     transform="rotate(180,3094.4429,2985.1732)"
     style="font-style:normal;font-weight:400;font-size:12px;font-family:Arial;fill-opacity:1;fill-rule:evenodd;stroke:#8080ff;stroke-width:5;stroke-linecap:round;stroke-linejoin:bevel;stroke-opacity:1" />
  <polyline
     fill="none"
     vector-effect="none"
     points="5636.31,5208.91 5640.72,5208.74 5645.11,5208.25 5649.45,5207.43 5653.71,5206.28 5657.88,5204.82 5661.93,5203.06 5665.83,5200.99 5669.57,5198.64 5673.13,5196.02 5676.47,5193.14 5679.6,5190.02 5682.48,5186.67 5685.1,5183.12 5687.45,5179.38 5689.51,5175.47 5691.28,5171.43 5692.74,5167.26 5693.88,5162.99 5694.7,5158.65 5695.2,5154.26 5695.36,5149.85 "
     id="polyline44"
     transform="rotate(180,3094.4429,2985.1732)"
     style="font-style:normal;font-weight:400;font-size:12px;font-family:Arial;fill-opacity:1;fill-rule:evenodd;stroke:#8080ff;stroke-width:5;stroke-linecap:round;stroke-linejoin:bevel;stroke-opacity:1" />
  <polyline
     fill="none"
     vector-effect="none"
     points="5896.15,1917.2 5895.99,1915.01 5895.53,1912.87 5894.76,1910.82 5893.71,1908.9 5892.4,1907.14 5890.85,1905.59 5889.09,1904.28 5887.17,1903.23 5885.12,1902.46 5882.98,1902 5880.79,1901.84 "
     id="polyline45"
     transform="rotate(180,3094.4429,2985.1732)"
     style="font-style:normal;font-weight:400;font-size:12px;font-family:Arial;fill-opacity:1;fill-rule:evenodd;stroke:#8080ff;stroke-width:5;stroke-linecap:round;stroke-linejoin:bevel;stroke-opacity:1" />
  <path
     style="font-weight:bold;font-size:600px;line-height:0;font-family:'System Font';-inkscape-font-specification:'System Font Bold';opacity:0.99;fill:#fffffd;stroke-width:8.26772;stroke-miterlimit:4.1;stroke-opacity:0.98"
     d="m 1301.9554,2677.1091 h 87.5977 v -422.7539 h -87.8907 l -109.2773,75.8789 v 78.5157 l 107.8125,-73.2422 h 1.7578 z m 182.2266,0 h 307.3242 v -70.3125 h -225.293 l 33.6914,27.2461 v -59.4726 l -33.9843,59.4726 122.4609,-111.6211 q 36.6211,-33.6914 57.7148,-58.0078 21.0938,-24.6094 30.1758,-46.289 9.375,-21.9727 9.375,-47.461 v -0.5859 q 0,-36.0352 -19.0429,-63.8672 -19.043,-27.832 -53.0274,-43.3594 -33.9844,-15.8203 -78.8086,-15.8203 -44.5312,0 -79.9805,17.2852 -35.1562,17.2851 -55.371,48.0468 -20.2149,30.4688 -20.2149,70.3125 v 2.3438 h 82.0313 l 0.2929,-2.6367 q 0.586,-19.043 9.961,-33.9844 9.375,-15.2344 25.7812,-23.7305 16.4063,-8.789 38.086,-8.789 18.75,0 33.1054,7.6171 14.6485,7.6172 22.8516,21.0938 8.2031,13.1836 8.2031,30.4687 v 0.586 q 0,14.6484 -5.2734,28.125 -4.9805,13.4765 -19.043,30.4687 -14.0625,16.9922 -41.6016,42.4805 l -149.414,139.7461 z m 532.3242,0 h 142.9687 q 45.4102,0 77.9297,-14.6484 32.8125,-14.9414 50.3907,-41.8945 17.8711,-26.9532 17.8711,-63.8672 v -0.586 q 0,-27.832 -13.1836,-49.8047 -12.8907,-22.2656 -35.7422,-35.7421 -22.8516,-13.7696 -52.4414,-15.8204 v -1.7578 q 23.4375,-3.2226 41.8945,-16.1132 18.457,-13.1836 29.0039,-32.8125 10.8398,-19.9219 10.8398,-43.0665 v -0.5859 q 0,-32.5195 -15.8203,-56.25 -15.8203,-24.0234 -44.8242,-36.9141 -29.0039,-12.8906 -69.1406,-12.8906 h -139.7461 v 65.625 h 116.8945 q 31.0547,0 48.3399,14.0625 17.2851,13.7696 17.2851,38.9649 v 0.5859 q 0,27.2461 -19.6289,42.4805 -19.3359,14.9414 -56.8359,14.9414 h -106.0547 v 60.0586 h 116.6016 q 26.9531,0 45.1171,6.7383 18.4571,6.7382 27.8321,20.2148 9.375,13.1836 9.375,32.5195 v 0.586 q 0,29.2968 -20.2149,44.8242 -20.2148,15.2344 -58.3007,15.2344 h -120.4101 z m -44.2383,0 h 88.4766 v -422.7539 h -88.4766 z"
     id="text47"
     inkscape:label="voltage"
     aria-label="12 В" />
  <path
     d="m 1362.2338,3093.3689 q 21.2402,0 37.793,-7.9102 16.5527,-8.0566 26.0742,-21.9726 9.5215,-13.916 9.5215,-31.4942 v -0.2929 q 0,-22.5586 -14.3555,-36.1817 -14.209,-13.7695 -37.3535,-15.6738 v -0.5859 q 13.1836,-2.7832 23.291,-9.5215 10.1074,-6.7383 15.8203,-16.8457 5.7129,-10.1074 5.7129,-23.1446 v -0.2929 q 0,-16.1133 -8.3496,-28.2715 -8.2031,-12.3047 -23.291,-19.1895 -14.9414,-7.0312 -35.1563,-7.0312 -19.7753,0 -35.0097,7.1777 -15.0879,7.1778 -24.3164,20.0684 -9.0821,12.8906 -10.8399,30.1758 l -0.1465,1.4648 h 25.3418 l 0.1465,-1.4648 q 1.1719,-10.6934 7.0313,-18.4571 5.8593,-7.7636 15.5273,-11.8652 9.8145,-4.248 22.2656,-4.248 12.8907,0 21.8262,4.1015 9.082,4.1016 13.7695,11.8653 4.6875,7.7636 4.6875,18.8964 v 0.293 q 0,10.5469 -5.4199,18.8965 -5.4199,8.2031 -15.0879,13.0371 -9.6679,4.6875 -22.2656,4.6875 h -25.3418 v 22.2656 h 26.5137 q 22.2656,0 35.1562,10.5469 13.0371,10.4004 13.0371,29.8828 v 0.293 q 0,11.1328 -5.8593,19.7754 -5.8594,8.4961 -16.4063,13.33 -10.4004,4.834 -24.3164,4.834 -14.0625,0 -24.7558,-4.3945 -10.6934,-4.541 -17.1387,-12.4512 -6.2988,-7.9101 -7.4707,-18.3105 l -0.1465,-1.4649 h -25.3418 l 0.1465,1.7579 q 1.4648,16.6992 10.8398,29.7363 9.5215,13.0371 25.7813,20.5078 16.2597,7.4707 38.0859,7.4707 z m 117.041,-1.4648 q 7.0313,0 11.8653,-4.834 4.8339,-4.834 4.8339,-11.8653 0,-7.0312 -4.8339,-11.8652 -4.834,-4.834 -11.8653,-4.834 -7.0312,0 -11.8652,4.834 -4.834,4.834 -4.834,11.8652 0,7.0313 4.834,11.8653 4.834,4.834 11.8652,4.834 z m 124.9512,1.4648 q 21.9727,0 38.9648,-9.082 16.9922,-9.2286 26.6602,-25.4883 9.668,-16.2598 9.668,-37.3535 v -0.293 q 0,-20.3613 -9.0821,-36.0352 -8.9355,-15.8203 -24.7558,-24.9023 -15.6739,-9.082 -36.0352,-9.082 -10.2539,0 -19.3359,2.4902 -9.082,2.4902 -16.4063,7.3242 -7.3242,4.834 -12.3047,12.0117 h -0.5859 l 7.1777,-71.0449 h 99.3164 v -23.4375 h -120.996 l -10.8399,120.5567 h 23.291 q 2.0508,-3.6622 4.541,-6.7383 2.6368,-3.0762 5.42,-5.7129 7.0312,-6.4453 16.1132,-9.5215 9.2286,-3.2227 19.9219,-3.2227 14.0625,0 24.9024,6.1524 10.8398,6.1523 16.9922,16.9922 6.2988,10.6933 6.2988,24.6094 v 0.2929 q 0,14.209 -6.1524,25.1953 -6.1523,10.8399 -17.1386,16.9922 -10.9864,6.1524 -25.3418,6.1524 -12.5977,0 -22.7051,-4.834 -10.1074,-4.834 -16.4063,-13.1836 -6.2988,-8.4961 -7.6171,-18.8965 l -0.1465,-1.1719 h -25.9278 l 0.1465,1.6114 q 1.6113,17.1386 11.1328,30.6152 9.5215,13.4766 25.1953,21.2402 15.8204,7.7637 36.0352,7.7637 z m 196.4355,-73.8281 60.7911,70.3125 h 32.2265 l -71.0449,-81.4453 v 2.3437 l 68.9941,-73.2422 h -30.9082 l -60.0586,64.4531 h -5.8593 v -64.4531 h -25.4883 v 152.3438 h 25.4883 v -70.3125 z m 131.543,70.3125 h 66.6504 q 22.5586,0 38.5254,-7.0313 15.9668,-7.1777 24.4629,-20.3613 8.6426,-13.3301 8.6426,-31.9336 v -0.293 q 0,-14.0625 -5.8594,-25.0488 -5.8594,-11.1328 -16.8457,-18.1641 -10.9863,-7.0312 -26.2207,-8.789 v -0.586 q 10.9863,-1.6113 19.6289,-8.3496 8.6426,-6.8847 13.623,-16.8457 4.9805,-9.9609 4.9805,-20.9472 v -0.293 q 0,-15.8203 -7.6172,-27.6856 -7.6172,-11.8652 -21.2402,-18.457 -13.6231,-6.5918 -31.7871,-6.5918 h -66.9434 v 23.291 h 60.9375 q 19.1895,0 29.5899,8.3496 10.4003,8.2032 10.4003,23.877 v 0.293 q 0,17.1386 -12.4511,26.2207 -12.3047,9.082 -35.7422,9.082 h -52.7344 v 22.7051 h 60.2051 q 16.8457,0 28.125,4.1015 11.4258,4.1016 17.1387,12.3047 5.7129,8.2032 5.7129,20.5078 v 0.293 q 0,18.1641 -12.4512,27.6856 -12.3047,9.375 -36.0352,9.375 h -62.6953 z m -13.1836,0 h 26.3672 v -211.377 h -26.3672 z m 291.6504,-152.3438 h -123.6328 v 21.0938 h 49.0723 v 131.25 h 25.4882 v -131.25 h 49.0723 z"
     id="text47-1"
     style="font-size:300px;line-height:0;font-family:'System Font';-inkscape-font-specification:'System Font';opacity:0.99;fill:#fffffd;stroke-width:8.26772;stroke-miterlimit:4.1;stroke-opacity:0.98"
     inkscape:label="watts"
     aria-label="3.5 кВт" />
  <ellipse
     style="opacity:0.99;fill:none;fill-opacity:1;stroke:#fffffd;stroke-width:8.26772;stroke-miterlimit:4.1;stroke-dasharray:none;stroke-opacity:1"
     id="path47"
     cx="626.9707"
     cy="1210.2563"
     rx="135.01767"
     ry="139.56882"
     inkscape:label="power-highlight" />
  <path
     style="opacity:0.99;fill:none;fill-opacity:1;stroke:#fffffd;stroke-width:8.26772;stroke-miterlimit:4.1;stroke-dasharray:none;stroke-opacity:1"
     d="m 729.64821,1304.6866 c 120.747,120.7469 120.747,120.7469 120.747,120.7469"
     id="path48"
     inkscape:label="power-flow" />
  <path
     d="m 907.99219,1432.2761 v -23.2178 h -6.5918 v 23.2178 h -1.83105 l -19.29932,-23.2178 h -8.1665 l 22.55859,25.7813 v -1.0254 l -24.93897,28.0884 h 8.86231 l 20.98389,-24.353 h 1.83105 v 24.353 h 6.5918 v -24.353 h 1.83105 l 20.98389,24.353 h 8.8623 l -24.93896,-28.0884 v 1.0254 l 22.55859,-25.7813 h -8.1665 l -19.29932,23.2178 z m 36.87744,29.6265 h 6.29883 l 20.54443,-30.6519 -4.35791,2.3438 h 3.07617 v 28.3081 h 6.37207 v -38.0859 h -6.29883 l -20.54443,30.6518 4.35791,-2.3437 h -3.07617 v -28.3081 h -6.37207 z m 40.86914,0 h 16.40623 q 4.065,0 6.9946,-1.3184 2.9297,-1.355 4.5044,-3.8086 1.5747,-2.4536 1.5747,-5.7861 v -0.073 q 0,-2.3438 -0.9887,-4.1748 -0.9888,-1.8311 -2.7832,-3.003 -1.7578,-1.1718 -4.1748,-1.5014 v -0.293 q 2.6367,-0.5493 4.4311,-2.9297 1.8311,-2.3804 1.8311,-5.3101 v -0.073 q 0,-4.541 -3.0762,-7.1777 -3.0762,-2.6367 -8.4228,-2.6367 h -16.29643 z m 6.37207,-5.2734 v -11.6089 h 8.34956 q 4.1749,0 6.189,1.4282 2.0508,1.3916 2.0508,4.3213 v 0.073 q 0,2.8565 -1.8311,4.3213 -1.7944,1.4649 -5.2734,1.4649 z m 0,-16.8824 v -10.6567 h 8.97216 q 3.0029,0 4.541,1.3183 1.5747,1.3184 1.5747,3.8819 v 0.073 q 0,2.7466 -1.7578,4.065 -1.7212,1.3183 -5.31,1.3183 z m 40.24656,5.3833 1.2085,-16.04 h 14.6485 v 32.8125 h 6.372 v -38.0859 h -26.77 l -1.5015,21.1669 q -0.2563,3.479 -0.8789,6.0791 -0.6225,2.5635 -1.831,3.9551 -1.2085,1.3916 -3.2593,1.3916 -0.7324,0 -1.2451,-0.073 -0.5127,-0.1099 -0.7691,-0.1831 v 5.7495 q 0.4029,0.1465 1.0621,0.2563 0.6958,0.1099 1.6113,0.1099 4.0649,0 6.3721,-2.0874 2.3437,-2.0874 3.4423,-5.9326 1.1353,-3.8819 1.5381,-9.1187 z m 46.9483,17.5049 q 3.1128,0 5.7861,-0.8423 2.6733,-0.8789 4.7607,-2.417 2.0874,-1.5747 3.4058,-3.6255 1.355,-2.0507 1.8311,-4.3945 l 0.073,-0.3662 h -6.2622 l -0.1099,0.3296 q -0.5493,1.6479 -1.831,2.9297 -1.2818,1.2817 -3.1861,2.0141 -1.9043,0.7325 -4.3213,0.7325 -3.4423,0 -5.9692,-1.5015 -2.5268,-1.5381 -3.9184,-4.3945 -1.355,-2.8565 -1.355,-6.8848 v -2.4536 q 0,-4.2481 1.3916,-7.1411 1.3916,-2.9297 3.8086,-4.3946 2.417,-1.5014 5.4565,-1.5014 3.0396,0 5.3833,1.4282 2.3438,1.3916 3.6621,4.2847 1.355,2.893 1.355,7.3242 v 2.4536 l 3.2227,-4.6143 h -27.5391 v 4.9805 h 30.6885 v -2.3437 q 0,-5.7129 -2.0142,-10.0342 -2.0141,-4.3213 -5.7861,-6.7017 -3.7354,-2.417 -8.9356,-2.417 -5.2002,0 -9.0454,2.5269 -3.8452,2.4902 -5.9692,6.9946 -2.124,4.4678 -2.124,10.3638 v 0.037 q 0,5.9692 2.0874,10.4004 2.124,4.3945 6.0424,6.8115 3.9551,2.417 9.4117,2.417 z m 48.4497,-0.7324 h 6.372 v -38.0859 h -6.372 v 15.7104 h -18.6402 v -15.7104 h -6.372 v 38.0859 h 6.372 v -17.1021 h 18.6402 z m 40.3198,0 h 6.3721 v -38.0859 h -6.3721 v 15.7104 h -18.6401 v -15.7104 h -6.3721 v 38.0859 h 6.3721 v -17.1021 h 18.6401 z m 36.7676,0 h 6.372 v -38.0859 h -14.1723 q -4.3579,0 -7.6172,1.538 -3.2227,1.5015 -5.0171,4.3213 -1.7578,2.8198 -1.7578,6.7383 v 0.073 q 0,3.8819 2.3071,6.7017 2.3071,2.8198 6.3355,3.9917 l -10.6201,14.7217 h 7.3608 l 9.668,-13.5498 h 7.1411 z m -7.7637,-18.8233 q -3.6621,0 -5.7861,-1.8676 -2.1241,-1.9043 -2.1241,-4.834 v -0.073 q 0,-3.4057 2.0874,-5.31 2.1241,-1.9043 5.8228,-1.9043 h 7.7637 v 13.9892 z"
     id="text48"
     style="font-size:75px;line-height:0;font-family:'System Font';-inkscape-font-specification:'System Font';opacity:0.99;fill:#fffffd;stroke-width:0;stroke-miterlimit:4.1;stroke-opacity:0.98"
     inkscape:label="power-label"
     aria-label="Живлення" />
  <g
     id="g54"
     transform="translate(-3748.8844,-1053.3329)">
    <path
       id="path50"
       style="opacity:0.99;fill:none;fill-opacity:0.976471;stroke:#fffffc;stroke-width:6.42273;stroke-miterlimit:4.1;stroke-dasharray:none;stroke-opacity:1"
       d="m 5483.1986,4826.082 c 0,13.4433 -8.368,19.6928 -18.6903,19.6928 -10.3222,0 -18.6902,-6.2495 -18.6902,-19.6928 0,-13.4433 9.9174,-28.9895 18.6902,-28.9895 8.7729,0 18.6903,15.5462 18.6903,28.9895 z"
       sodipodi:nodetypes="ssszs" />
    <path
       style="opacity:0.99;fill:none;fill-opacity:0.976471;stroke:#fffffc;stroke-width:6.42274;stroke-miterlimit:4.1;stroke-dasharray:none;stroke-opacity:1"
       d="m 5483.1681,4826.4055 c -0.7495,39.8099 -19.7739,41.5297 -35.4668,32.3623"
       id="path51"
       sodipodi:nodetypes="cc" />
    <path
       style="opacity:0.99;fill:none;fill-opacity:0.976471;stroke:#fffffc;stroke-width:6.42274;stroke-miterlimit:4.1;stroke-dasharray:none;stroke-opacity:1"
       d="m 5387.1568,4820.1642 c 53.2513,26.1567 52.7415,-12.5426 32.1929,-12.9412 -21.5366,-0.4176 -22.4906,21.6756 -14.9748,31.29 10.1774,13.0193 26.4295,5.3757 28.9962,1.4746"
       id="path52"
       sodipodi:nodetypes="cssc" />
    <path
       id="path50-0"
       style="opacity:0.99;fill:none;fill-opacity:0.976471;stroke:#fffffc;stroke-width:6.42273;stroke-miterlimit:4.1;stroke-dasharray:none;stroke-opacity:1"
       d="m 5532.4751,4826.082 c 0,13.4433 -8.368,19.6928 -18.6903,19.6928 -10.3222,0 -18.6902,-6.2495 -18.6902,-19.6928 0,-13.4432 9.9174,-28.9895 18.6902,-28.9895 8.7729,0 18.6903,15.5463 18.6903,28.9895 z"
       sodipodi:nodetypes="ssszs" />
    <path
       style="opacity:0.99;fill:none;fill-opacity:0.976471;stroke:#fffffc;stroke-width:6.42274;stroke-miterlimit:4.1;stroke-dasharray:none;stroke-opacity:1"
       d="m 5532.4446,4826.4055 c -0.7495,39.8099 -19.7739,41.5297 -35.4668,32.3623"
       id="path51-1"
       sodipodi:nodetypes="cc" />
    <path
       style="opacity:0.99;fill:none;fill-opacity:0.976471;stroke:#fffffc;stroke-width:8.56363;stroke-miterlimit:4.1;stroke-dasharray:none;stroke-opacity:1"
       d="m 5550.8561,4786.9705 c 0.6796,43.1584 -0.03,78.8641 2e-4,79.2669"
       id="path53"
       sodipodi:nodetypes="cc" />
    <path
       style="opacity:0.99;fill:none;fill-opacity:0.976471;stroke:#fffffc;stroke-width:8.56363;stroke-miterlimit:4.1;stroke-dasharray:none;stroke-opacity:1"
       d="m 5565.4464,4790.8528 40.2564,1e-4 c -0.7505,31.1056 -35.2857,43.7695 -30.9499,75.118"
       id="path54"
       sodipodi:nodetypes="ccc" />
  </g>
</svg>
